<svg xmlns="http://www.w3.org/2000/svg" width="100%" height="137" preserveAspectRatio="none" viewBox="0 0 1940 137"><path d="M121,75.555v36.974c33.521,12.984,69.517,22.511,110.047,29.126,11.1,1.81,22.7,3.423,34.5,4.795,12.173,1.414,24.925,2.614,37.9,3.567,13.339.98,27.34,1.728,41.617,2.225,14.644.51,30,.768,45.635.768,16.552,0,33.928-.289,51.65-.86,18.141-.584,37.182-1.479,56.592-2.662,40.077-2.442,83.607-6.227,129.382-11.246,28.165-3.093,55.383-5.8,80.9-8.053,24.966-2.208,49.134-4.054,71.834-5.486,22.1-1.4,43.565-2.454,63.8-3.138,19.594-.663,38.7-1,56.795-1,31.748,0,61.018.989,89.485,3.024,25.727,1.839,50.5,4.518,75.737,8.194,21.6,3.145,43.33,6.972,68.381,12.042,22.282,4.51,44.2,9.4,67.4,14.563,35.43,7.9,72.065,16.067,115,24.029,48.838,9.058,97.9,16.312,149.98,22.175,23.862,2.686,47.615,4.718,70.6,6.037,22.177,1.272,44.277,1.918,65.681,1.918h.063c27.419,0,54.593-1.06,80.767-3.148,24.717-1.972,49.246-4.918,72.908-8.753,22.175-3.591,44.246-8.08,65.6-13.331,19.807-4.87,39.606-10.548,58.847-16.882,17.6-5.785,35.307-12.318,52.646-19.4,15.721-6.424,31.091-13.259,47-20.9,30.5-14.648,57.181-29.534,79.252-42.166V75.551Z" transform="translate(-121 -75.551)" fill="#f4f0ec"/></svg>