<?xml version="1.0" standalone="no"?>
<!DOCTYPE svg PUBLIC "-//W3C//DTD SVG 20010904//EN"
 "http://www.w3.org/TR/2001/REC-SVG-20010904/DTD/svg10.dtd">
<svg version="1.0" xmlns="http://www.w3.org/2000/svg"
 width="736.000000pt" height="736.000000pt" viewBox="0 0 736.000000 736.000000"
 preserveAspectRatio="xMidYMid meet">
<metadata>
Created by potrace 1.11, written by Peter Selinger 2001-2013
</metadata>
<g transform="translate(0.000000,736.000000) scale(0.100000,-0.100000)"
fill="#000000" stroke="none">
<path d="M3615 6871 c-34 -10 -74 -41 -230 -175 -82 -70 -174 -149 -204 -175
-30 -25 -62 -53 -71 -62 -9 -8 -25 -22 -37 -30 -19 -14 -120 -99 -153 -129
-15 -14 -102 -86 -144 -120 -10 -8 -26 -22 -35 -30 -9 -9 -41 -36 -71 -60 -30
-25 -57 -47 -60 -50 -3 -3 -45 -39 -95 -80 -49 -41 -101 -85 -115 -97 -48 -41
-68 -59 -175 -148 -59 -49 -123 -105 -142 -122 -19 -18 -37 -33 -39 -33 -2 0
-12 -8 -22 -17 -16 -16 -45 -42 -183 -159 -74 -65 -78 -68 -118 -104 -21 -19
-72 -64 -112 -100 -285 -251 -702 -664 -830 -821 -19 -23 -39 -47 -45 -53 -15
-16 -146 -180 -169 -212 -11 -15 -30 -40 -42 -55 -13 -15 -23 -31 -23 -37 0
-6 -4 -12 -8 -14 -8 -3 -112 -154 -112 -162 0 -2 -18 -34 -41 -71 -22 -36 -60
-108 -85 -158 -25 -51 -51 -103 -59 -117 -13 -25 -94 -242 -101 -270 -2 -8
-11 -42 -20 -75 -9 -33 -18 -69 -20 -80 -2 -11 -9 -45 -15 -75 -7 -30 -13 -66
-14 -80 -2 -14 -7 -54 -11 -90 -17 -126 -9 -496 12 -593 3 -12 7 -35 9 -52 16
-119 83 -347 145 -490 21 -49 81 -171 103 -210 41 -71 71 -121 76 -125 4 -3
15 -18 25 -35 11 -16 23 -34 28 -40 4 -5 29 -37 55 -70 101 -131 286 -299 443
-405 54 -37 304 -172 312 -169 3 0 51 -17 78 -28 8 -3 17 -7 20 -8 4 -1 51
-15 100 -30 28 -9 60 -17 76 -20 10 -2 19 -4 19 -5 0 -1 9 -3 20 -5 11 -2 45
-8 75 -14 30 -6 78 -14 105 -17 69 -10 399 -11 460 -1 28 4 67 10 89 12 21 3
42 7 46 10 4 2 22 7 41 10 61 11 181 45 224 65 11 5 43 18 70 29 28 10 82 36
120 57 39 20 82 44 97 51 28 14 155 104 224 158 55 43 243 231 289 290 22 28
43 52 46 55 3 3 20 26 37 52 18 25 38 53 44 60 15 16 20 24 95 148 32 52 61
103 65 112 13 31 25 20 67 -57 22 -41 45 -81 50 -87 6 -7 37 -52 68 -99 159
-237 376 -453 602 -600 71 -46 216 -123 271 -144 117 -44 160 -58 249 -80 163
-41 278 -53 476 -50 99 2 191 6 205 9 27 5 74 13 130 23 38 6 69 13 85 17 6 2
24 6 40 11 154 39 391 145 530 235 158 103 362 287 455 410 14 18 30 38 35 44
9 10 98 144 140 211 26 41 98 188 125 255 12 30 26 64 31 75 18 43 59 176 59
194 0 10 3 21 7 25 4 3 8 14 9 24 3 17 15 78 20 97 15 60 35 216 29 225 -3 5
-1 11 4 14 9 6 7 415 -2 466 -3 14 -8 45 -11 70 -6 50 -8 61 -31 168 -27 124
-89 308 -144 427 -16 33 -31 70 -35 83 -4 12 -12 22 -18 22 -6 0 -8 3 -5 6 3
4 -4 25 -17 48 -13 22 -33 57 -43 76 -41 77 -191 304 -237 361 -12 14 -32 41
-46 59 -31 42 -168 207 -195 236 -11 12 -45 50 -75 84 -99 115 -509 518 -650
640 -22 19 -136 121 -206 185 -12 11 -43 38 -69 60 -26 22 -52 45 -59 50 -6 6
-60 53 -121 105 -60 52 -115 100 -121 105 -6 6 -33 28 -59 50 -87 72 -96 80
-124 105 -15 14 -47 41 -72 61 -24 20 -54 45 -65 55 -12 11 -36 30 -53 43 -18
14 -44 36 -59 50 -15 14 -47 42 -71 61 -47 38 -73 60 -111 93 -14 12 -50 42
-80 67 -30 25 -62 52 -71 60 -9 8 -38 34 -65 56 -99 83 -129 109 -140 119 -7
6 -31 26 -55 45 -24 19 -53 44 -65 55 -12 11 -43 38 -70 60 -26 22 -52 45 -58
50 -6 6 -40 35 -76 65 -36 30 -67 57 -70 60 -22 23 -120 101 -120 95 0 -4 -7
-2 -15 5 -17 14 -117 21 -150 11z"/>
</g>
</svg>
