<?xml version="1.0" standalone="no"?>
<!DOCTYPE svg PUBLIC "-//W3C//DTD SVG 1.1//EN" "http://www.w3.org/Graphics/SVG/1.1/DTD/svg11.dtd" >
<svg xmlns="http://www.w3.org/2000/svg" xmlns:xlink="http://www.w3.org/1999/xlink" version="1.1">
<metadata>
Created by FontForge 20170924 at Tue Jul  2 09:54:35 2019
 By www-data
Copyright (c) 2010-2019 by Benjamin Critton. All rights reserved.
</metadata>
<defs>
<font id="RaisonnePro-Bold" horiz-adv-x="600" >
  <font-face 
    font-family="Raisonne Pro"
    font-weight="700"
    font-stretch="normal"
    units-per-em="1000"
    panose-1="2 11 8 3 4 2 2 4 1 3"
    ascent="738"
    descent="-262"
    x-height="500"
    cap-height="700"
    bbox="-695 -279 1302 1017"
    underline-thickness="50"
    underline-position="-100"
    unicode-range="U+000D-FB02"
  />
<missing-glyph horiz-adv-x="722" 
d="M380 349.5q-37 21.5 -57 58.5q-21 36 -21 77q0 40 18.5 74.5t51.5 54.5q37 23 80 23q42 0 78.5 -21t56.5 -58q21 -37 21 -79q0 -40 -19.5 -75t-53.5 -55q-34 -21 -76 -21t-79 21.5zM500 411q17 11 26 28.5t9 38.5q0 25 -12 46q-11 19 -30.5 30t-41.5 11q-23 0 -40 -11
q-18 -10 -27 -27.5t-9 -38.5q0 -26 11 -45q11 -20 31 -32t43 -12q19 0 40 12zM86 445l157 -93l-79 137l61 36l151 -262l-56 -33l-152 85l75 -129l-62 -37l-151 264zM657 391l35 -61l-465 -269l-35 61z" />
    <glyph glyph-name="f_f" unicode="ff" horiz-adv-x="751" 
d="M14 381v119h96v60q0 69 45 107.5t112 38.5q92 0 131 -58l-81 -79q-7 11 -16 17t-25 6q-18 0 -28 -11.5t-10 -27.5v-53h203v60q0 68 45 107t111 39q47 0 79 -14t53 -44l-82 -79q-6 11 -15 17t-25 6q-18 0 -28 -11.5t-10 -27.5v-53h139v-119h-139v-381h-128v381h-203v-381
h-128v381h-96z" />
    <glyph glyph-name="f_f_i" unicode="ffi" horiz-adv-x="965" 
d="M784 576.5q-24 24.5 -24 59.5t24 59.5t59 24.5t59 -24.5t24 -59.5t-24 -59.5t-59 -24.5t-59 24.5zM14 381v119h96v60q0 69 45 107.5t112 38.5q92 0 131 -58l-81 -79q-7 11 -16 17t-25 6q-18 0 -28 -11.5t-10 -27.5v-53h203v60q0 68 45 107t111 39q47 0 79 -14t53 -44
l-82 -79q-6 11 -15 17t-25 6q-18 0 -28 -11.5t-10 -27.5v-53h338v-500h-128v381h-210v-381h-128v381h-203v-381h-128v381h-96z" />
    <glyph glyph-name="f_f_l" unicode="ffl" horiz-adv-x="921" 
d="M14 381v119h96v61q0 66 30.5 111.5t81.5 68.5t111 23q44 0 85 -14t69 -42q29 28 70.5 42t87.5 14q59 0 108.5 -23t79.5 -68.5t30 -111.5v-561h-128v555q0 38 -23.5 63t-66.5 25q-44 0 -69 -25t-25 -63v-55h112v-119h-112v-381h-128v381h-185v-381h-128v381h-96zM423 555
q0 38 -23.5 63t-66.5 25q-45 0 -70 -25t-25 -63v-55h185v55z" />
    <glyph glyph-name="f_i" unicode="fi" horiz-adv-x="634" 
d="M453 576.5q-24 24.5 -24 59.5t24 59.5t59 24.5t59 -24.5t24 -59.5t-24 -59.5t-59 -24.5t-59 24.5zM14 381v119h96v60q0 69 45 107.5t112 38.5q47 0 79 -14t52 -44l-81 -79q-7 11 -16 17t-24 6q-19 0 -29 -11.5t-10 -27.5v-53h338v-500h-128v381h-210v-381h-128v381h-96z
" />
    <glyph glyph-name="f_l" unicode="fl" horiz-adv-x="609" 
d="M14 381v119h96v61q0 66 30.5 111.5t81.5 68.5t111 23q58 0 108 -23t80 -68.5t30 -111.5v-561h-128v555q0 38 -23.5 63t-66.5 25q-45 0 -70 -25t-25 -63v-55h112v-119h-112v-381h-128v381h-96z" />
    <glyph glyph-name=".notdef" horiz-adv-x="722" 
d="M380 349.5q-37 21.5 -57 58.5q-21 36 -21 77q0 40 18.5 74.5t51.5 54.5q37 23 80 23q42 0 78.5 -21t56.5 -58q21 -37 21 -79q0 -40 -19.5 -75t-53.5 -55q-34 -21 -76 -21t-79 21.5zM500 411q17 11 26 28.5t9 38.5q0 25 -12 46q-11 19 -30.5 30t-41.5 11q-23 0 -40 -11
q-18 -10 -27 -27.5t-9 -38.5q0 -26 11 -45q11 -20 31 -32t43 -12q19 0 40 12zM86 445l157 -93l-79 137l61 36l151 -262l-56 -33l-152 85l75 -129l-62 -37l-151 264zM657 391l35 -61l-465 -269l-35 61z" />
    <glyph glyph-name="nonmarkingreturn" unicode="&#xd;" horiz-adv-x="0" 
 />
    <glyph glyph-name="space" unicode=" " horiz-adv-x="240" 
 />
    <glyph glyph-name="A" unicode="A" horiz-adv-x="686" 
d="M406 700l265 -700h-137l-39 108h-304l-39 -108h-137l265 700h126zM343 524l-107 -292h214z" />
    <glyph glyph-name="Aacute" unicode="&#xc1;" horiz-adv-x="686" 
d="M406 700l265 -700h-137l-39 108h-304l-39 -108h-137l265 700h126zM343 524l-107 -292h214zM501 964l51 -104l-241 -113l-51 104z" />
    <glyph glyph-name="Abreve" unicode="&#x102;" horiz-adv-x="686" 
d="M406 700l265 -700h-137l-39 108h-304l-39 -108h-137l265 700h126zM343 524l-107 -292h214zM252 772.5q-42 22.5 -68.5 62.5t-29.5 90h117q4 -30 22.5 -49t49.5 -19t50 19t23 49h118q-4 -50 -30.5 -90t-69 -62.5t-91.5 -22.5t-91 22.5z" />
    <glyph glyph-name="Acircumflex" unicode="&#xc2;" horiz-adv-x="686" 
d="M406 700l265 -700h-137l-39 108h-304l-39 -108h-137l265 700h126zM343 524l-107 -292h214zM343 1005l194 -193l-77 -77l-117 117l-117 -117l-76 77z" />
    <glyph glyph-name="Adieresis" unicode="&#xc4;" horiz-adv-x="686" 
d="M406 700l265 -700h-137l-39 108h-304l-39 -108h-137l265 700h126zM343 524l-107 -292h214zM167.5 793q-23.5 24 -23.5 58t23.5 58t57.5 24t58 -24t24 -58t-24 -58t-58 -24t-57.5 24zM405.5 793q-23.5 24 -23.5 58t23.5 58t57.5 24t58 -24t24 -58t-24 -58t-58 -24
t-57.5 24z" />
    <glyph glyph-name="Agrave" unicode="&#xc0;" horiz-adv-x="686" 
d="M406 700l265 -700h-137l-39 108h-304l-39 -108h-137l265 700h126zM343 524l-107 -292h214zM185 964l241 -113l-51 -104l-241 113z" />
    <glyph glyph-name="Amacron" unicode="&#x100;" horiz-adv-x="686" 
d="M406 700l265 -700h-137l-39 108h-304l-39 -108h-137l265 700h126zM343 524l-107 -292h214zM500 894v-112h-315v112h315z" />
    <glyph glyph-name="Aogonek" unicode="&#x104;" horiz-adv-x="686" 
d="M406 700l265 -700h-137l-39 108h-304l-39 -108h-137l265 700h126zM343 524l-107 -292h214zM552.5 -218.5q-35.5 31.5 -35.5 81.5q0 30 18 67l31 70h105l-39 -88q-11 -23 -11 -36q0 -28 35 -28h22v-98h-32q-58 0 -93.5 31.5z" />
    <glyph glyph-name="Aring" unicode="&#xc5;" horiz-adv-x="686" 
d="M406 700l265 -700h-137l-39 108h-304l-39 -108h-137l265 700h126zM343 524l-107 -292h214zM268 781q-31 31 -31 76q0 44 31 75t76 31t76 -31t31 -75t-31 -75.5t-76 -31.5t-76 31zM364 836q8 8 8 21q0 12 -8 20t-20 8q-13 0 -21 -8t-8 -20q0 -13 8 -21t21 -8q12 0 20 8z
" />
    <glyph glyph-name="Atilde" unicode="&#xc3;" horiz-adv-x="686" 
d="M406 700l265 -700h-137l-39 108h-304l-39 -108h-137l265 700h126zM343 524l-107 -292h214zM186 896q29 33 78 33q25 0 45 -8t41 -25l19 -14q3 -3 11.5 -9.5t14 -9.5t11.5 -3q19 0 19 23v46h103v-51q0 -60 -29 -93t-78 -33q-25 0 -45 8t-41 25l-18 15q-4 3 -12.5 10
t-14 9.5t-10.5 2.5q-10 0 -15 -6t-5 -17v-47h-103v51q0 60 29 93z" />
    <glyph glyph-name="AE" unicode="&#xc6;" horiz-adv-x="844" 
d="M795 700v-123h-321v-162h155v-123h-155v-168h326v-124h-457v108h-152l-39 -108h-137l260 700h520zM343 534l-108 -302h108v302z" />
    <glyph glyph-name="AEacute" unicode="&#x1fc;" horiz-adv-x="844" 
d="M795 700v-123h-321v-162h155v-123h-155v-168h326v-124h-457v108h-152l-39 -108h-137l260 700h520zM343 534l-108 -302h108v302zM686 964l51 -104l-241 -113l-51 104z" />
    <glyph glyph-name="B" unicode="B" horiz-adv-x="570" 
d="M301 700q90 0 142 -51t52 -133q0 -38 -17.5 -69.5t-43.5 -48.5q45 -23 74.5 -69.5t29.5 -106.5q0 -63 -30.5 -113.5t-83 -79.5t-115.5 -29h-247v700h239zM348 463q18 18 18 50q0 31 -18 49t-51 18h-104v-135h104q33 0 51 18zM380.5 152q26.5 27 26.5 73q0 45 -26.5 72
t-73.5 27h-114v-199h114q47 0 73.5 27z" />
    <glyph glyph-name="C" unicode="C" horiz-adv-x="774" 
d="M214 41.5q-79 47.5 -124.5 129t-45.5 179.5t45.5 179.5t124.5 129t177 47.5q84 0 152.5 -34t116.5 -95l-92 -93q-29 46 -74 71t-103 25q-62 0 -111 -30.5t-76.5 -83t-27.5 -116.5t27.5 -116.5t76.5 -83t111 -30.5t111 30t76.5 83t27.5 118h132q0 -98 -45.5 -180
t-124.5 -129.5t-177 -47.5t-177 47.5z" />
    <glyph glyph-name="Cacute" unicode="&#x106;" horiz-adv-x="774" 
d="M214 41.5q-79 47.5 -124.5 129t-45.5 179.5t45.5 179.5t124.5 129t177 47.5q84 0 152.5 -34t116.5 -95l-92 -93q-29 46 -74 71t-103 25q-62 0 -111 -30.5t-76.5 -83t-27.5 -116.5t27.5 -116.5t76.5 -83t111 -30.5t111 30t76.5 83t27.5 118h132q0 -98 -45.5 -180
t-124.5 -129.5t-177 -47.5t-177 47.5zM548 964l51 -104l-241 -113l-51 104z" />
    <glyph glyph-name="Ccaron" unicode="&#x10c;" horiz-adv-x="774" 
d="M214 41.5q-79 47.5 -124.5 129t-45.5 179.5t45.5 179.5t124.5 129t177 47.5q84 0 152.5 -34t116.5 -95l-92 -93q-29 46 -74 71t-103 25q-62 0 -111 -30.5t-76.5 -83t-27.5 -116.5t27.5 -116.5t76.5 -83t111 -30.5t111 30t76.5 83t27.5 118h132q0 -98 -45.5 -180
t-124.5 -129.5t-177 -47.5t-177 47.5zM273 1005l117 -117l117 117l77 -77l-194 -193l-193 193z" />
    <glyph glyph-name="Ccedilla" unicode="&#xc7;" horiz-adv-x="774" 
d="M699 183.5q-39 -77.5 -108.5 -127t-156.5 -59.5l-20 -36q33 -8 53.5 -33.5t20.5 -67.5q0 -48 -34 -82t-82 -34q-47 0 -81 34t-35 81h88q0 -13 8 -20.5t20 -7.5t20 7.5t8 20.5q0 14 -8.5 23t-24.5 9h-81l62 106q-87 10 -156.5 59.5t-108.5 126.5t-39 167q0 98 45.5 179.5
t124.5 129t177 47.5q84 0 152.5 -34t116.5 -95l-92 -93q-29 46 -74 71t-103 25q-62 0 -111 -30.5t-76.5 -83t-27.5 -116.5t27.5 -116.5t76.5 -83t111 -30.5t111 30t76.5 83t27.5 118h132q0 -90 -39 -167.5z" />
    <glyph glyph-name="Ccircumflex" unicode="&#x108;" horiz-adv-x="774" 
d="M214 41.5q-79 47.5 -124.5 129t-45.5 179.5t45.5 179.5t124.5 129t177 47.5q84 0 152.5 -34t116.5 -95l-92 -93q-29 46 -74 71t-103 25q-62 0 -111 -30.5t-76.5 -83t-27.5 -116.5t27.5 -116.5t76.5 -83t111 -30.5t111 30t76.5 83t27.5 118h132q0 -98 -45.5 -180
t-124.5 -129.5t-177 -47.5t-177 47.5zM390 1005l194 -193l-77 -77l-117 117l-117 -117l-76 77z" />
    <glyph glyph-name="Cdotaccent" unicode="&#x10a;" horiz-adv-x="774" 
d="M214 41.5q-79 47.5 -124.5 129t-45.5 179.5t45.5 179.5t124.5 129t177 47.5q84 0 152.5 -34t116.5 -95l-92 -93q-29 46 -74 71t-103 25q-62 0 -111 -30.5t-76.5 -83t-27.5 -116.5t27.5 -116.5t76.5 -83t111 -30.5t111 30t76.5 83t27.5 118h132q0 -98 -45.5 -180
t-124.5 -129.5t-177 -47.5t-177 47.5zM331.5 776.5q-24.5 24.5 -24.5 59.5t24.5 59.5t58.5 24.5q35 0 60 -24.5t25 -59.5t-25 -59.5t-60 -24.5q-34 0 -58.5 24.5z" />
    <glyph glyph-name="D" unicode="D" horiz-adv-x="667" 
d="M278 700q100 0 178.5 -42.5t122.5 -122t44 -185.5t-44 -185.5t-122.5 -122t-178.5 -42.5h-216v700h216zM387 150.5q48 26.5 75.5 77.5t27.5 122t-27.5 122.5t-75.5 78t-108 26.5h-86v-453h86q60 0 108 26.5z" />
    <glyph glyph-name="Eth" unicode="&#xd0;" horiz-adv-x="701" 
d="M16 298v105h81v297h215q100 0 178.5 -42.5t122.5 -122t44 -185.5t-44 -185.5t-122.5 -122t-178.5 -42.5h-215v298h-81zM421 150.5q48 26.5 75.5 77.5t27.5 122t-27.5 122.5t-75.5 78t-108 26.5h-85v-174h115v-105h-115v-174h85q60 0 108 26.5z" />
    <glyph glyph-name="Dcaron" unicode="&#x10e;" horiz-adv-x="667" 
d="M278 700q100 0 178.5 -42.5t122.5 -122t44 -185.5t-44 -185.5t-122.5 -122t-178.5 -42.5h-216v700h216zM387 150.5q48 26.5 75.5 77.5t27.5 122t-27.5 122.5t-75.5 78t-108 26.5h-86v-453h86q60 0 108 26.5zM167 1005l117 -117l117 117l77 -77l-194 -193l-193 193z" />
    <glyph glyph-name="Dcroat" unicode="&#x110;" horiz-adv-x="701" 
d="M16 298v105h81v297h215q100 0 178.5 -42.5t122.5 -122t44 -185.5t-44 -185.5t-122.5 -122t-178.5 -42.5h-215v298h-81zM421 150.5q48 26.5 75.5 77.5t27.5 122t-27.5 122.5t-75.5 78t-108 26.5h-85v-174h115v-105h-115v-174h85q60 0 108 26.5z" />
    <glyph glyph-name="E" unicode="E" horiz-adv-x="560" 
d="M510 700v-123h-317v-162h202v-123h-202v-168h323v-124h-454v700h448z" />
    <glyph glyph-name="Eacute" unicode="&#xc9;" horiz-adv-x="560" 
d="M510 700v-123h-317v-162h202v-123h-202v-168h323v-124h-454v700h448zM451 964l51 -104l-241 -113l-51 104z" />
    <glyph glyph-name="Ebreve" unicode="&#x114;" horiz-adv-x="560" 
d="M510 700v-123h-317v-162h202v-123h-202v-168h323v-124h-454v700h448zM202 772.5q-42 22.5 -68.5 62.5t-29.5 90h117q4 -30 22.5 -49t49.5 -19t50 19t23 49h118q-4 -50 -30.5 -90t-69 -62.5t-91.5 -22.5t-91 22.5z" />
    <glyph glyph-name="Ecaron" unicode="&#x11a;" horiz-adv-x="560" 
d="M510 700v-123h-317v-162h202v-123h-202v-168h323v-124h-454v700h448zM176 1005l117 -117l117 117l77 -77l-194 -193l-193 193z" />
    <glyph glyph-name="Ecircumflex" unicode="&#xca;" horiz-adv-x="560" 
d="M510 700v-123h-317v-162h202v-123h-202v-168h323v-124h-454v700h448zM293 1005l194 -193l-77 -77l-117 117l-117 -117l-76 77z" />
    <glyph glyph-name="Edieresis" unicode="&#xcb;" horiz-adv-x="560" 
d="M510 700v-123h-317v-162h202v-123h-202v-168h323v-124h-454v700h448zM116.5 793q-23.5 24 -23.5 58t23.5 58t57.5 24t58 -24t24 -58t-24 -58t-58 -24t-57.5 24zM354.5 793q-23.5 24 -23.5 58t23.5 58t57.5 24t58 -24t24 -58t-24 -58t-58 -24t-57.5 24z" />
    <glyph glyph-name="Edotaccent" unicode="&#x116;" horiz-adv-x="560" 
d="M510 700v-123h-317v-162h202v-123h-202v-168h323v-124h-454v700h448zM234.5 776.5q-24.5 24.5 -24.5 59.5t24.5 59.5t58.5 24.5q35 0 60 -24.5t25 -59.5t-25 -59.5t-60 -24.5q-34 0 -58.5 24.5z" />
    <glyph glyph-name="Egrave" unicode="&#xc8;" horiz-adv-x="560" 
d="M510 700v-123h-317v-162h202v-123h-202v-168h323v-124h-454v700h448zM135 964l241 -113l-51 -104l-241 113z" />
    <glyph glyph-name="Emacron" unicode="&#x112;" horiz-adv-x="560" 
d="M510 700v-123h-317v-162h202v-123h-202v-168h323v-124h-454v700h448zM450 894v-112h-315v112h315z" />
    <glyph glyph-name="Eogonek" unicode="&#x118;" horiz-adv-x="560" 
d="M510 700v-123h-317v-162h202v-123h-202v-168h323v-124h-454v700h448zM397.5 -218.5q-35.5 31.5 -35.5 81.5q0 30 18 67l31 70h105l-39 -88q-11 -23 -11 -36q0 -28 35 -28h22v-98h-32q-58 0 -93.5 31.5z" />
    <glyph glyph-name="F" unicode="F" horiz-adv-x="548" 
d="M514 700v-123h-321v-162h188v-123h-188v-292h-131v700h452z" />
    <glyph glyph-name="G" unicode="G" horiz-adv-x="783" 
d="M211.5 41.5q-78.5 47.5 -123 129t-44.5 179.5t45 179.5t124 129t178 47.5q82 0 150.5 -34t117.5 -95l-92 -91q-30 44 -74.5 69t-101.5 25q-62 0 -111 -30t-76.5 -83t-27.5 -117t27.5 -117t76.5 -83t111 -30q80 0 135 45.5t73 124.5h-212v117h334v-407h-120v85
q-39 -46 -94 -68.5t-119 -22.5q-98 0 -176.5 47.5z" />
    <glyph glyph-name="Gbreve" unicode="&#x11e;" horiz-adv-x="783" 
d="M211.5 41.5q-78.5 47.5 -123 129t-44.5 179.5t45 179.5t124 129t178 47.5q82 0 150.5 -34t117.5 -95l-92 -91q-30 44 -74.5 69t-101.5 25q-62 0 -111 -30t-76.5 -83t-27.5 -117t27.5 -117t76.5 -83t111 -30q80 0 135 45.5t73 124.5h-212v117h334v-407h-120v85
q-39 -46 -94 -68.5t-119 -22.5q-98 0 -176.5 47.5zM301 772.5q-42 22.5 -68.5 62.5t-29.5 90h117q4 -30 22.5 -49t49.5 -19t50 19t23 49h118q-4 -50 -30.5 -90t-69 -62.5t-91.5 -22.5t-91 22.5z" />
    <glyph glyph-name="Gcircumflex" unicode="&#x11c;" horiz-adv-x="783" 
d="M211.5 41.5q-78.5 47.5 -123 129t-44.5 179.5t45 179.5t124 129t178 47.5q82 0 150.5 -34t117.5 -95l-92 -91q-30 44 -74.5 69t-101.5 25q-62 0 -111 -30t-76.5 -83t-27.5 -117t27.5 -117t76.5 -83t111 -30q80 0 135 45.5t73 124.5h-212v117h334v-407h-120v85
q-39 -46 -94 -68.5t-119 -22.5q-98 0 -176.5 47.5zM392 1005l194 -193l-77 -77l-117 117l-117 -117l-76 77z" />
    <glyph glyph-name="uni0122" unicode="&#x122;" horiz-adv-x="783" 
d="M211.5 41.5q-78.5 47.5 -123 129t-44.5 179.5t45 179.5t124 129t178 47.5q82 0 150.5 -34t117.5 -95l-92 -91q-30 44 -74.5 69t-101.5 25q-62 0 -111 -30t-76.5 -83t-27.5 -117t27.5 -117t76.5 -83t111 -30q80 0 135 45.5t73 124.5h-212v117h334v-407h-120v85
q-39 -46 -94 -68.5t-119 -22.5q-98 0 -176.5 47.5zM303 -42h138l-139 -237l-105 60z" />
    <glyph glyph-name="Gdotaccent" unicode="&#x120;" horiz-adv-x="783" 
d="M211.5 41.5q-78.5 47.5 -123 129t-44.5 179.5t45 179.5t124 129t178 47.5q82 0 150.5 -34t117.5 -95l-92 -91q-30 44 -74.5 69t-101.5 25q-62 0 -111 -30t-76.5 -83t-27.5 -117t27.5 -117t76.5 -83t111 -30q80 0 135 45.5t73 124.5h-212v117h334v-407h-120v85
q-39 -46 -94 -68.5t-119 -22.5q-98 0 -176.5 47.5zM333.5 776.5q-24.5 24.5 -24.5 59.5t24.5 59.5t58.5 24.5q35 0 60 -24.5t25 -59.5t-25 -59.5t-60 -24.5q-34 0 -58.5 24.5z" />
    <glyph glyph-name="H" unicode="H" horiz-adv-x="604" 
d="M193 700v-285h218v285h131v-700h-131v292h-218v-292h-131v700h131z" />
    <glyph glyph-name="Hbar" unicode="&#x126;" horiz-adv-x="681" 
d="M657 500h-76v-500h-131v292h-218v-292h-131v500h-76v105h76v95h131v-95h218v95h131v-95h76v-105zM450 500h-218v-85h218v85z" />
    <glyph glyph-name="Hcircumflex" unicode="&#x124;" horiz-adv-x="604" 
d="M193 700v-285h218v285h131v-700h-131v292h-218v-292h-131v700h131zM303 1005l194 -193l-77 -77l-117 117l-117 -117l-76 77z" />
    <glyph glyph-name="I" unicode="I" horiz-adv-x="423" 
d="M146 124v453h-106v123h343v-123h-106v-453h106v-124h-343v124h106z" />
    <glyph glyph-name="IJ" unicode="&#x132;" horiz-adv-x="584" 
d="M174.5 24q-52.5 30 -82.5 82t-30 117h131q0 -46 27.5 -75.5t71.5 -29.5q48 0 73.5 30.5t25.5 84.5v467h131v-460q0 -72 -28 -127.5t-80.5 -87t-121.5 -31.5q-65 0 -117.5 30zM193 700v-374h-131v374h131z" />
    <glyph glyph-name="Iacute" unicode="&#xcd;" horiz-adv-x="423" 
d="M146 124v453h-106v123h343v-123h-106v-453h106v-124h-343v124h106zM370 964l51 -104l-241 -113l-51 104z" />
    <glyph glyph-name="Ibreve" unicode="&#x12c;" horiz-adv-x="423" 
d="M146 124v453h-106v123h343v-123h-106v-453h106v-124h-343v124h106zM121 772.5q-42 22.5 -68.5 62.5t-29.5 90h117q4 -30 22.5 -49t49.5 -19t50 19t23 49h118q-4 -50 -30.5 -90t-69 -62.5t-91.5 -22.5t-91 22.5z" />
    <glyph glyph-name="Icircumflex" unicode="&#xce;" horiz-adv-x="423" 
d="M146 124v453h-106v123h343v-123h-106v-453h106v-124h-343v124h106zM212 1005l194 -193l-77 -77l-117 117l-117 -117l-76 77z" />
    <glyph glyph-name="Idieresis" unicode="&#xcf;" horiz-adv-x="423" 
d="M146 124v453h-106v123h343v-123h-106v-453h106v-124h-343v124h106zM35.5 793q-23.5 24 -23.5 58t23.5 58t57.5 24t58 -24t24 -58t-24 -58t-58 -24t-57.5 24zM273.5 793q-23.5 24 -23.5 58t23.5 58t57.5 24t58 -24t24 -58t-24 -58t-58 -24t-57.5 24z" />
    <glyph glyph-name="Idotaccent" unicode="&#x130;" horiz-adv-x="423" 
d="M146 124v453h-106v123h343v-123h-106v-453h106v-124h-343v124h106zM153.5 776.5q-24.5 24.5 -24.5 59.5t24.5 59.5t58.5 24.5q35 0 60 -24.5t25 -59.5t-25 -59.5t-60 -24.5q-34 0 -58.5 24.5z" />
    <glyph glyph-name="Igrave" unicode="&#xcc;" horiz-adv-x="423" 
d="M146 124v453h-106v123h343v-123h-106v-453h106v-124h-343v124h106zM54 964l241 -113l-51 -104l-241 113z" />
    <glyph glyph-name="Imacron" unicode="&#x12a;" horiz-adv-x="423" 
d="M146 124v453h-106v123h343v-123h-106v-453h106v-124h-343v124h106zM369 894v-112h-315v112h315z" />
    <glyph glyph-name="Iogonek" unicode="&#x12e;" horiz-adv-x="423" 
d="M146 124v453h-106v123h343v-123h-106v-453h106v-124h-343v124h106zM264.5 -218.5q-35.5 31.5 -35.5 81.5q0 30 18 67l31 70h105l-39 -88q-11 -23 -11 -36q0 -28 35 -28h22v-98h-32q-58 0 -93.5 31.5z" />
    <glyph glyph-name="Itilde" unicode="&#x128;" horiz-adv-x="423" 
d="M146 124v453h-106v123h343v-123h-106v-453h106v-124h-343v124h106zM55 896q29 33 78 33q25 0 45 -8t41 -25l19 -14q3 -3 11.5 -9.5t14 -9.5t11.5 -3q19 0 19 23v46h103v-51q0 -60 -29 -93t-78 -33q-25 0 -45 8t-41 25l-18 15q-4 3 -12.5 10t-14 9.5t-10.5 2.5
q-10 0 -15 -6t-5 -17v-47h-103v51q0 60 29 93z" />
    <glyph glyph-name="J" unicode="J" horiz-adv-x="554" 
d="M144.5 24q-52.5 30 -82.5 82t-30 117h131q0 -46 27.5 -75.5t71.5 -29.5q48 0 73.5 30.5t25.5 84.5v467h131v-460q0 -72 -28 -127.5t-80.5 -87t-121.5 -31.5q-65 0 -117.5 30z" />
    <glyph glyph-name="Jcircumflex" unicode="&#x134;" horiz-adv-x="554" 
d="M144.5 24q-52.5 30 -82.5 82t-30 117h131q0 -46 27.5 -75.5t71.5 -29.5q48 0 73.5 30.5t25.5 84.5v467h131v-460q0 -72 -28 -127.5t-80.5 -87t-121.5 -31.5q-65 0 -117.5 30zM427 1005l194 -193l-77 -77l-117 117l-117 -117l-76 77z" />
    <glyph glyph-name="K" unicode="K" horiz-adv-x="595" 
d="M192 700v-233l162 233h151l-172 -241l244 -459h-151l-178 339l-56 -79v-260h-130v700h130z" />
    <glyph glyph-name="uni0136" unicode="&#x136;" horiz-adv-x="595" 
d="M192 700v-233l162 233h151l-172 -241l244 -459h-151l-178 339l-56 -79v-260h-130v700h130zM230 -42h138l-139 -237l-105 60z" />
    <glyph glyph-name="L" unicode="L" horiz-adv-x="557" 
d="M193 700v-576h324v-124h-455v700h131z" />
    <glyph glyph-name="Lacute" unicode="&#x139;" horiz-adv-x="557" 
d="M193 700v-576h324v-124h-455v700h131zM286 964l51 -104l-241 -113l-51 104z" />
    <glyph glyph-name="Lcaron" unicode="&#x13d;" horiz-adv-x="557" 
d="M193 700v-576h324v-124h-455v700h131zM409 700h137l-138 -236l-104 60z" />
    <glyph glyph-name="uni013B" unicode="&#x13b;" horiz-adv-x="557" 
d="M193 700v-576h324v-124h-455v700h131zM222 -42h138l-139 -237l-105 60z" />
    <glyph glyph-name="Ldot" unicode="&#x13f;" horiz-adv-x="557" 
d="M193 700v-576h324v-124h-455v700h131zM334.5 331q-23.5 24 -23.5 58t23.5 58t57.5 24t58 -24t24 -58t-24 -58t-58 -24t-57.5 24z" />
    <glyph glyph-name="Lslash" unicode="&#x141;" horiz-adv-x="619" 
d="M579 124v-124h-455v239l-85 -31l-37 105l122 44v343h131v-295l131 47l37 -105l-168 -61v-162h324z" />
    <glyph glyph-name="M" unicode="M" horiz-adv-x="828" 
d="M212 700l202 -505l202 505h150v-700h-126v424l-171 -424h-110l-170 424v-424h-127v700h150z" />
    <glyph glyph-name="N" unicode="N" horiz-adv-x="608" 
d="M201 700l217 -447v447h128v-700h-138l-217 447v-447h-129v700h139z" />
    <glyph glyph-name="Nacute" unicode="&#x143;" horiz-adv-x="608" 
d="M201 700l217 -447v447h128v-700h-138l-217 447v-447h-129v700h139zM463 964l51 -104l-241 -113l-51 104z" />
    <glyph glyph-name="Ncaron" unicode="&#x147;" horiz-adv-x="608" 
d="M201 700l217 -447v447h128v-700h-138l-217 447v-447h-129v700h139zM188 1005l117 -117l117 117l77 -77l-194 -193l-193 193z" />
    <glyph glyph-name="uni0145" unicode="&#x145;" horiz-adv-x="608" 
d="M201 700l217 -447v447h128v-700h-138l-217 447v-447h-129v700h139zM223 -42h138l-139 -237l-105 60z" />
    <glyph glyph-name="Eng" unicode="&#x14a;" horiz-adv-x="608" 
d="M263 -232.5q-43 23.5 -67.5 65t-24.5 93.5h130q1 -28 16.5 -44t40.5 -16q31 0 45 20t14 52v62l-226 440v-440h-129v700h130l226 -440v440h128v-758q0 -92 -48.5 -145t-135.5 -53q-56 0 -99 23.5z" />
    <glyph glyph-name="Ntilde" unicode="&#xd1;" horiz-adv-x="608" 
d="M201 700l217 -447v447h128v-700h-138l-217 447v-447h-129v700h139zM148 896q29 33 78 33q25 0 45 -8t41 -25l19 -14q3 -3 11.5 -9.5t14 -9.5t11.5 -3q19 0 19 23v46h103v-51q0 -60 -29 -93t-78 -33q-25 0 -45 8t-41 25l-18 15q-4 3 -12.5 10t-14 9.5t-10.5 2.5
q-10 0 -15 -6t-5 -17v-47h-103v51q0 60 29 93z" />
    <glyph glyph-name="O" unicode="O" horiz-adv-x="780" 
d="M213 41.5q-79 47.5 -124 129t-45 179.5t45 179.5t124 129t177 47.5t177 -47.5t124 -129t45 -179.5t-45 -179.5t-124 -129t-177 -47.5t-177 47.5zM501 150q49 30 76 82.5t27 117.5t-27 117.5t-76 82.5t-111 30t-110.5 -30t-76 -82.5t-27.5 -117.5t27.5 -117.5t76 -82.5
t110.5 -30t111 30z" />
    <glyph glyph-name="Oacute" unicode="&#xd3;" horiz-adv-x="780" 
d="M213 41.5q-79 47.5 -124 129t-45 179.5t45 179.5t124 129t177 47.5t177 -47.5t124 -129t45 -179.5t-45 -179.5t-124 -129t-177 -47.5t-177 47.5zM501 150q49 30 76 82.5t27 117.5t-27 117.5t-76 82.5t-111 30t-110.5 -30t-76 -82.5t-27.5 -117.5t27.5 -117.5t76 -82.5
t110.5 -30t111 30zM548 964l51 -104l-241 -113l-51 104z" />
    <glyph glyph-name="Obreve" unicode="&#x14e;" horiz-adv-x="780" 
d="M213 41.5q-79 47.5 -124 129t-45 179.5t45 179.5t124 129t177 47.5t177 -47.5t124 -129t45 -179.5t-45 -179.5t-124 -129t-177 -47.5t-177 47.5zM501 150q49 30 76 82.5t27 117.5t-27 117.5t-76 82.5t-111 30t-110.5 -30t-76 -82.5t-27.5 -117.5t27.5 -117.5t76 -82.5
t110.5 -30t111 30zM299 772.5q-42 22.5 -68.5 62.5t-29.5 90h117q4 -30 22.5 -49t49.5 -19t50 19t23 49h118q-4 -50 -30.5 -90t-69 -62.5t-91.5 -22.5t-91 22.5z" />
    <glyph glyph-name="Ocircumflex" unicode="&#xd4;" horiz-adv-x="780" 
d="M213 41.5q-79 47.5 -124 129t-45 179.5t45 179.5t124 129t177 47.5t177 -47.5t124 -129t45 -179.5t-45 -179.5t-124 -129t-177 -47.5t-177 47.5zM501 150q49 30 76 82.5t27 117.5t-27 117.5t-76 82.5t-111 30t-110.5 -30t-76 -82.5t-27.5 -117.5t27.5 -117.5t76 -82.5
t110.5 -30t111 30zM390 1005l194 -193l-77 -77l-117 117l-117 -117l-76 77z" />
    <glyph glyph-name="Odieresis" unicode="&#xd6;" horiz-adv-x="780" 
d="M213 41.5q-79 47.5 -124 129t-45 179.5t45 179.5t124 129t177 47.5t177 -47.5t124 -129t45 -179.5t-45 -179.5t-124 -129t-177 -47.5t-177 47.5zM501 150q49 30 76 82.5t27 117.5t-27 117.5t-76 82.5t-111 30t-110.5 -30t-76 -82.5t-27.5 -117.5t27.5 -117.5t76 -82.5
t110.5 -30t111 30zM214.5 793q-23.5 24 -23.5 58t23.5 58t57.5 24t58 -24t24 -58t-24 -58t-58 -24t-57.5 24zM452.5 793q-23.5 24 -23.5 58t23.5 58t57.5 24t58 -24t24 -58t-24 -58t-58 -24t-57.5 24z" />
    <glyph glyph-name="Ograve" unicode="&#xd2;" horiz-adv-x="780" 
d="M213 41.5q-79 47.5 -124 129t-45 179.5t45 179.5t124 129t177 47.5t177 -47.5t124 -129t45 -179.5t-45 -179.5t-124 -129t-177 -47.5t-177 47.5zM501 150q49 30 76 82.5t27 117.5t-27 117.5t-76 82.5t-111 30t-110.5 -30t-76 -82.5t-27.5 -117.5t27.5 -117.5t76 -82.5
t110.5 -30t111 30zM232 964l241 -113l-51 -104l-241 113z" />
    <glyph glyph-name="Ohungarumlaut" unicode="&#x150;" horiz-adv-x="780" 
d="M213 41.5q-79 47.5 -124 129t-45 179.5t45 179.5t124 129t177 47.5t177 -47.5t124 -129t45 -179.5t-45 -179.5t-124 -129t-177 -47.5t-177 47.5zM501 150q49 30 76 82.5t27 117.5t-27 117.5t-76 82.5t-111 30t-110.5 -30t-76 -82.5t-27.5 -117.5t27.5 -117.5t76 -82.5
t110.5 -30t111 30zM346 995l69 -88l-210 -162l-70 89zM590 995l69 -88l-210 -162l-70 89z" />
    <glyph glyph-name="Omacron" unicode="&#x14c;" horiz-adv-x="780" 
d="M213 41.5q-79 47.5 -124 129t-45 179.5t45 179.5t124 129t177 47.5t177 -47.5t124 -129t45 -179.5t-45 -179.5t-124 -129t-177 -47.5t-177 47.5zM501 150q49 30 76 82.5t27 117.5t-27 117.5t-76 82.5t-111 30t-110.5 -30t-76 -82.5t-27.5 -117.5t27.5 -117.5t76 -82.5
t110.5 -30t111 30zM547 894v-112h-315v112h315z" />
    <glyph glyph-name="Oslash" unicode="&#xd8;" horiz-adv-x="780" 
d="M200 50q-73 48 -114.5 127t-41.5 173q0 98 45 179.5t124 129t177 47.5q47 0 84 -10l23 52l105 -45l-22 -52q73 -49 114.5 -128t41.5 -173q0 -98 -45 -179.5t-124 -129t-177 -47.5q-48 0 -84 11l-23 -53l-105 45zM389 583q-62 0 -111 -30.5t-76.5 -84t-27.5 -118.5
q0 -56 20 -102.5t57 -78.5l174 410q-16 4 -36 4zM502 148.5q49 30.5 76.5 83.5t27.5 118q0 56 -20 103t-57 78l-174 -410q11 -3 36 -3q62 0 111 30.5z" />
    <glyph glyph-name="Otilde" unicode="&#xd5;" horiz-adv-x="780" 
d="M213 41.5q-79 47.5 -124 129t-45 179.5t45 179.5t124 129t177 47.5t177 -47.5t124 -129t45 -179.5t-45 -179.5t-124 -129t-177 -47.5t-177 47.5zM501 150q49 30 76 82.5t27 117.5t-27 117.5t-76 82.5t-111 30t-110.5 -30t-76 -82.5t-27.5 -117.5t27.5 -117.5t76 -82.5
t110.5 -30t111 30zM233 896q29 33 78 33q25 0 45 -8t41 -25l19 -14q3 -3 11.5 -9.5t14 -9.5t11.5 -3q19 0 19 23v46h103v-51q0 -60 -29 -93t-78 -33q-25 0 -45 8t-41 25l-18 15q-4 3 -12.5 10t-14 9.5t-10.5 2.5q-10 0 -15 -6t-5 -17v-47h-103v51q0 60 29 93z" />
    <glyph glyph-name="OE" unicode="&#x152;" horiz-adv-x="1105" 
d="M212 41.5q-79 47.5 -123.5 129t-44.5 179.5t44.5 179.5t123.5 129t176 47.5q63 0 119.5 -21t100.5 -60v75h447v-123h-316v-162h193v-123h-193v-168h322v-124h-453v75q-44 -39 -100.5 -60t-119.5 -21q-97 0 -176 47.5zM501 150q49 30 76 82.5t27 117.5t-27 117.5t-76 82.5
t-111 30t-110.5 -30t-76 -82.5t-27.5 -117.5t27.5 -117.5t76 -82.5t110.5 -30t111 30z" />
    <glyph glyph-name="P" unicode="P" horiz-adv-x="570" 
d="M304 700q67 0 118.5 -28t80.5 -79t29 -118t-29 -118t-80.5 -79t-118.5 -28h-111v-250h-131v700h242zM371 399.5q28 28.5 28 75.5q0 48 -28 76.5t-76 28.5h-102v-209h102q48 0 76 28.5z" />
    <glyph glyph-name="Thorn" unicode="&#xde;" horiz-adv-x="570" 
d="M193 700v-125h108q69 0 121 -27.5t81 -78t29 -119.5q0 -68 -29 -119t-81 -78.5t-121 -27.5h-108v-125h-131v700h131zM372.5 273.5q28.5 27.5 28.5 76.5q0 50 -28.5 77.5t-79.5 27.5h-100v-209h100q51 0 79.5 27.5z" />
    <glyph glyph-name="Q" unicode="Q" horiz-adv-x="780" 
d="M716.5 228q-19.5 -58 -56.5 -105l54 -54l-87 -87l-60 60q-79 -48 -177 -48t-177 47.5t-124 129t-45 179.5t45 179.5t124 129t177 47.5t177 -47.5t124 -129t45 -179.5q0 -64 -19.5 -122zM473 136l-99 99l86 87l107 -107q37 59 37 135q0 65 -27 117.5t-76 82.5t-111 30
t-110.5 -30t-76 -82.5t-27.5 -117.5t27.5 -117.5t76 -82.5t110.5 -30q43 0 83 16z" />
    <glyph glyph-name="R" unicode="R" horiz-adv-x="533" 
d="M289 700q56 0 102.5 -24t73.5 -69.5t27 -108.5q0 -77 -41.5 -127.5t-106.5 -66.5l151 -304h-144l-141 296h-17v-296h-131v700h227zM342.5 438q20.5 23 20.5 60t-21 60.5t-59 23.5h-90v-167h90q39 0 59.5 23z" />
    <glyph glyph-name="Racute" unicode="&#x154;" horiz-adv-x="533" 
d="M289 700q56 0 102.5 -24t73.5 -69.5t27 -108.5q0 -77 -41.5 -127.5t-106.5 -66.5l151 -304h-144l-141 296h-17v-296h-131v700h227zM342.5 438q20.5 23 20.5 60t-21 60.5t-59 23.5h-90v-167h90q39 0 59.5 23zM413 964l51 -104l-241 -113l-51 104z" />
    <glyph glyph-name="Rcaron" unicode="&#x158;" horiz-adv-x="533" 
d="M289 700q56 0 102.5 -24t73.5 -69.5t27 -108.5q0 -77 -41.5 -127.5t-106.5 -66.5l151 -304h-144l-141 296h-17v-296h-131v700h227zM342.5 438q20.5 23 20.5 60t-21 60.5t-59 23.5h-90v-167h90q39 0 59.5 23zM138 1005l117 -117l117 117l77 -77l-194 -193l-193 193z" />
    <glyph glyph-name="uni0156" unicode="&#x156;" horiz-adv-x="533" 
d="M289 700q56 0 102.5 -24t73.5 -69.5t27 -108.5q0 -77 -41.5 -127.5t-106.5 -66.5l151 -304h-144l-141 296h-17v-296h-131v700h227zM342.5 438q20.5 23 20.5 60t-21 60.5t-59 23.5h-90v-167h90q39 0 59.5 23zM197 -42h138l-139 -237l-105 60z" />
    <glyph glyph-name="S" unicode="S" horiz-adv-x="532" 
d="M149.5 24.5q-52.5 30.5 -83 82.5t-30.5 114h133q0 -43 26.5 -72.5t70.5 -29.5q45 0 71 28t26 74q0 34 -14.5 54t-36.5 30.5t-63 24.5l-41 14q-61 22 -98 64.5t-37 107.5q0 55 25 98.5t69 67.5t99 24q63 0 107.5 -27t71.5 -76l-102 -72q-11 25 -30 38.5t-45 13.5
q-29 0 -47 -17t-18 -44q0 -23 12 -37.5t31.5 -23t57.5 -21.5q6 -2 40 -14q72 -26 112 -73.5t40 -126.5q0 -66 -30.5 -119t-83 -83t-116.5 -30t-116.5 30.5z" />
    <glyph glyph-name="Sacute" unicode="&#x15a;" horiz-adv-x="532" 
d="M149.5 24.5q-52.5 30.5 -83 82.5t-30.5 114h133q0 -43 26.5 -72.5t70.5 -29.5q45 0 71 28t26 74q0 34 -14.5 54t-36.5 30.5t-63 24.5l-41 14q-61 22 -98 64.5t-37 107.5q0 55 25 98.5t69 67.5t99 24q63 0 107.5 -27t71.5 -76l-102 -72q-11 25 -30 38.5t-45 13.5
q-29 0 -47 -17t-18 -44q0 -23 12 -37.5t31.5 -23t57.5 -21.5q6 -2 40 -14q72 -26 112 -73.5t40 -126.5q0 -66 -30.5 -119t-83 -83t-116.5 -30t-116.5 30.5zM424 964l51 -104l-241 -113l-51 104z" />
    <glyph glyph-name="Scaron" unicode="&#x160;" horiz-adv-x="532" 
d="M149.5 24.5q-52.5 30.5 -83 82.5t-30.5 114h133q0 -43 26.5 -72.5t70.5 -29.5q45 0 71 28t26 74q0 34 -14.5 54t-36.5 30.5t-63 24.5l-41 14q-61 22 -98 64.5t-37 107.5q0 55 25 98.5t69 67.5t99 24q63 0 107.5 -27t71.5 -76l-102 -72q-11 25 -30 38.5t-45 13.5
q-29 0 -47 -17t-18 -44q0 -23 12 -37.5t31.5 -23t57.5 -21.5q6 -2 40 -14q72 -26 112 -73.5t40 -126.5q0 -66 -30.5 -119t-83 -83t-116.5 -30t-116.5 30.5zM149 1005l117 -117l117 117l77 -77l-194 -193l-193 193z" />
    <glyph glyph-name="Scedilla" unicode="&#x15e;" horiz-adv-x="532" 
d="M445.5 77.5q-50.5 -62.5 -130.5 -78.5l-21 -38q33 -8 53.5 -33.5t20.5 -67.5q0 -48 -34 -82t-82 -34q-47 0 -81 34t-35 81h88q0 -13 8 -20.5t20 -7.5t20 7.5t8 20.5q0 14 -8.5 23t-24.5 9h-81l62 106q-55 8 -98.5 40t-68.5 80t-25 104h133q0 -43 26.5 -72.5t70.5 -29.5
q45 0 71 28t26 74q0 34 -14.5 54t-36.5 30.5t-63 24.5l-41 14q-61 22 -98 64.5t-37 107.5q0 55 25 98.5t69 67.5t99 24q63 0 107.5 -27t71.5 -76l-102 -72q-11 25 -30 38.5t-45 13.5q-29 0 -47 -17t-18 -44q0 -23 12 -37.5t31.5 -23t57.5 -21.5q6 -2 40 -14
q72 -26 112 -73.5t40 -126.5q0 -86 -50.5 -148.5z" />
    <glyph glyph-name="Scircumflex" unicode="&#x15c;" horiz-adv-x="532" 
d="M149.5 24.5q-52.5 30.5 -83 82.5t-30.5 114h133q0 -43 26.5 -72.5t70.5 -29.5q45 0 71 28t26 74q0 34 -14.5 54t-36.5 30.5t-63 24.5l-41 14q-61 22 -98 64.5t-37 107.5q0 55 25 98.5t69 67.5t99 24q63 0 107.5 -27t71.5 -76l-102 -72q-11 25 -30 38.5t-45 13.5
q-29 0 -47 -17t-18 -44q0 -23 12 -37.5t31.5 -23t57.5 -21.5q6 -2 40 -14q72 -26 112 -73.5t40 -126.5q0 -66 -30.5 -119t-83 -83t-116.5 -30t-116.5 30.5zM266 1005l194 -193l-77 -77l-117 117l-117 -117l-76 77z" />
    <glyph glyph-name="uni0218" unicode="&#x218;" horiz-adv-x="532" 
d="M149.5 24.5q-52.5 30.5 -83 82.5t-30.5 114h133q0 -43 26.5 -72.5t70.5 -29.5q45 0 71 28t26 74q0 34 -14.5 54t-36.5 30.5t-63 24.5l-41 14q-61 22 -98 64.5t-37 107.5q0 55 25 98.5t69 67.5t99 24q63 0 107.5 -27t71.5 -76l-102 -72q-11 25 -30 38.5t-45 13.5
q-29 0 -47 -17t-18 -44q0 -23 12 -37.5t31.5 -23t57.5 -21.5q6 -2 40 -14q72 -26 112 -73.5t40 -126.5q0 -66 -30.5 -119t-83 -83t-116.5 -30t-116.5 30.5zM180 -42h138l-139 -237l-105 60z" />
    <glyph glyph-name="uni1E9E" unicode="&#x1e9e;" horiz-adv-x="662" 
d="M320 15q-42 21 -66 50.5t-31 57.5l113 56q10 -29 30.5 -45.5t51.5 -16.5q35 0 56 24.5t21 65.5q0 36 -22 57t-68 46q-68 36 -96.5 79.5t-28.5 97.5q0 26 7.5 51.5t19.5 38.5h-114v-577h-131v700h421v-123q-31 -1 -50.5 -21.5t-19.5 -49.5q0 -31 20.5 -56.5t67.5 -49.5
q61 -32 93 -77.5t32 -112.5q0 -64 -27.5 -113t-75.5 -76t-106 -27q-55 0 -97 21z" />
    <glyph glyph-name="T" unicode="T" horiz-adv-x="510" 
d="M37 577v123h436v-123h-153v-577h-131v577h-152z" />
    <glyph glyph-name="Tbar" unicode="&#x166;" horiz-adv-x="510" 
d="M91 387v105h98v85h-152v123h436v-123h-153v-85h99v-105h-99v-387h-131v387h-98z" />
    <glyph glyph-name="Tcaron" unicode="&#x164;" horiz-adv-x="510" 
d="M37 577v123h436v-123h-153v-577h-131v577h-152zM138 1005l117 -117l117 117l77 -77l-194 -193l-193 193z" />
    <glyph glyph-name="uni0162" unicode="&#x162;" horiz-adv-x="510" 
d="M169 -222q-34 34 -35 81h88q0 -13 8 -20.5t20 -7.5t20 7.5t8 20.5q0 14 -8.5 23t-24.5 9h-81l64 109h-39v577h-152v123h436v-123h-153v-577h-6l-22 -39q33 -8 53.5 -33.5t20.5 -67.5q0 -48 -34 -82t-82 -34q-47 0 -81 34z" />
    <glyph glyph-name="uni021A" unicode="&#x21a;" horiz-adv-x="510" 
d="M37 577v123h436v-123h-153v-577h-131v577h-152zM183 -42h138l-139 -237l-105 60z" />
    <glyph glyph-name="U" unicode="U" horiz-adv-x="592" 
d="M176.5 24q-53.5 30 -84 84t-30.5 123v469h131v-477q0 -47 28 -76t75 -29t75 29t28 76v477h131v-469q0 -69 -30.5 -123t-84 -84t-119.5 -30t-119.5 30z" />
    <glyph glyph-name="Uacute" unicode="&#xda;" horiz-adv-x="592" 
d="M176.5 24q-53.5 30 -84 84t-30.5 123v469h131v-477q0 -47 28 -76t75 -29t75 29t28 76v477h131v-469q0 -69 -30.5 -123t-84 -84t-119.5 -30t-119.5 30zM454 964l51 -104l-241 -113l-51 104z" />
    <glyph glyph-name="Ubreve" unicode="&#x16c;" horiz-adv-x="592" 
d="M176.5 24q-53.5 30 -84 84t-30.5 123v469h131v-477q0 -47 28 -76t75 -29t75 29t28 76v477h131v-469q0 -69 -30.5 -123t-84 -84t-119.5 -30t-119.5 30zM205 772.5q-42 22.5 -68.5 62.5t-29.5 90h117q4 -30 22.5 -49t49.5 -19t50 19t23 49h118q-4 -50 -30.5 -90t-69 -62.5
t-91.5 -22.5t-91 22.5z" />
    <glyph glyph-name="Ucircumflex" unicode="&#xdb;" horiz-adv-x="592" 
d="M176.5 24q-53.5 30 -84 84t-30.5 123v469h131v-477q0 -47 28 -76t75 -29t75 29t28 76v477h131v-469q0 -69 -30.5 -123t-84 -84t-119.5 -30t-119.5 30zM296 1005l194 -193l-77 -77l-117 117l-117 -117l-76 77z" />
    <glyph glyph-name="Udieresis" unicode="&#xdc;" horiz-adv-x="592" 
d="M176.5 24q-53.5 30 -84 84t-30.5 123v469h131v-477q0 -47 28 -76t75 -29t75 29t28 76v477h131v-469q0 -69 -30.5 -123t-84 -84t-119.5 -30t-119.5 30zM120.5 793q-23.5 24 -23.5 58t23.5 58t57.5 24t58 -24t24 -58t-24 -58t-58 -24t-57.5 24zM358.5 793
q-23.5 24 -23.5 58t23.5 58t57.5 24t58 -24t24 -58t-24 -58t-58 -24t-57.5 24z" />
    <glyph glyph-name="Ugrave" unicode="&#xd9;" horiz-adv-x="592" 
d="M176.5 24q-53.5 30 -84 84t-30.5 123v469h131v-477q0 -47 28 -76t75 -29t75 29t28 76v477h131v-469q0 -69 -30.5 -123t-84 -84t-119.5 -30t-119.5 30zM138 964l241 -113l-51 -104l-241 113z" />
    <glyph glyph-name="Uhungarumlaut" unicode="&#x170;" horiz-adv-x="592" 
d="M176.5 24q-53.5 30 -84 84t-30.5 123v469h131v-477q0 -47 28 -76t75 -29t75 29t28 76v477h131v-469q0 -69 -30.5 -123t-84 -84t-119.5 -30t-119.5 30zM252 995l69 -88l-210 -162l-70 89zM496 995l69 -88l-210 -162l-70 89z" />
    <glyph glyph-name="Umacron" unicode="&#x16a;" horiz-adv-x="592" 
d="M176.5 24q-53.5 30 -84 84t-30.5 123v469h131v-477q0 -47 28 -76t75 -29t75 29t28 76v477h131v-469q0 -69 -30.5 -123t-84 -84t-119.5 -30t-119.5 30zM453 894v-112h-315v112h315z" />
    <glyph glyph-name="Uogonek" unicode="&#x172;" horiz-adv-x="592" 
d="M530 700v-469q0 -88 -48.5 -150.5t-127.5 -80.5l-39 -88q-11 -23 -11 -36q0 -28 35 -28h22v-98h-32q-58 0 -93.5 31.5t-35.5 81.5q0 30 18 67l30 68q-83 16 -134.5 79t-51.5 154v469h131v-477q0 -47 28 -76t75 -29t75 29t28 76v477h131z" />
    <glyph glyph-name="Uring" unicode="&#x16e;" horiz-adv-x="592" 
d="M176.5 24q-53.5 30 -84 84t-30.5 123v469h131v-477q0 -47 28 -76t75 -29t75 29t28 76v477h131v-469q0 -69 -30.5 -123t-84 -84t-119.5 -30t-119.5 30zM221 781q-31 31 -31 76q0 44 31 75t76 31t76 -31t31 -75t-31 -75.5t-76 -31.5t-76 31zM317 836q8 8 8 21q0 12 -8 20
t-20 8q-13 0 -21 -8t-8 -20q0 -13 8 -21t21 -8q12 0 20 8z" />
    <glyph glyph-name="Utilde" unicode="&#x168;" horiz-adv-x="592" 
d="M176.5 24q-53.5 30 -84 84t-30.5 123v469h131v-477q0 -47 28 -76t75 -29t75 29t28 76v477h131v-469q0 -69 -30.5 -123t-84 -84t-119.5 -30t-119.5 30zM139 896q29 33 78 33q25 0 45 -8t41 -25l19 -14q3 -3 11.5 -9.5t14 -9.5t11.5 -3q19 0 19 23v46h103v-51
q0 -60 -29 -93t-78 -33q-25 0 -45 8t-41 25l-18 15q-4 3 -12.5 10t-14 9.5t-10.5 2.5q-10 0 -15 -6t-5 -17v-47h-103v51q0 60 29 93z" />
    <glyph glyph-name="V" unicode="V" horiz-adv-x="670" 
d="M149 700l186 -516l186 516h137l-260 -700h-126l-260 700h137z" />
    <glyph glyph-name="W" unicode="W" horiz-adv-x="927" 
d="M149 700l192 -521l58 164l-128 357h131l62 -180l61 180h132l-128 -357l58 -164l191 521h137l-265 -700h-127l-59 166l-60 -166h-126l-266 700h137z" />
    <glyph glyph-name="Wacute" unicode="&#x1e82;" horiz-adv-x="927" 
d="M149 700l192 -521l58 164l-128 357h131l62 -180l61 180h132l-128 -357l58 -164l191 521h137l-265 -700h-127l-59 166l-60 -166h-126l-266 700h137zM622 964l51 -104l-241 -113l-51 104z" />
    <glyph glyph-name="Wcircumflex" unicode="&#x174;" horiz-adv-x="927" 
d="M149 700l192 -521l58 164l-128 357h131l62 -180l61 180h132l-128 -357l58 -164l191 521h137l-265 -700h-127l-59 166l-60 -166h-126l-266 700h137zM464 1005l194 -193l-77 -77l-117 117l-117 -117l-76 77z" />
    <glyph glyph-name="Wdieresis" unicode="&#x1e84;" horiz-adv-x="927" 
d="M149 700l192 -521l58 164l-128 357h131l62 -180l61 180h132l-128 -357l58 -164l191 521h137l-265 -700h-127l-59 166l-60 -166h-126l-266 700h137zM287.5 793q-23.5 24 -23.5 58t23.5 58t57.5 24t58 -24t24 -58t-24 -58t-58 -24t-57.5 24zM525.5 793q-23.5 24 -23.5 58
t23.5 58t57.5 24t58 -24t24 -58t-24 -58t-58 -24t-57.5 24z" />
    <glyph glyph-name="Wgrave" unicode="&#x1e80;" horiz-adv-x="927" 
d="M149 700l192 -521l58 164l-128 357h131l62 -180l61 180h132l-128 -357l58 -164l191 521h137l-265 -700h-127l-59 166l-60 -166h-126l-266 700h137zM306 964l241 -113l-51 -104l-241 113z" />
    <glyph glyph-name="X" unicode="X" horiz-adv-x="618" 
d="M88 700h147l74 -146l74 146h146l-151 -280l228 -420h-147l-150 287l-151 -287h-146l228 420z" />
    <glyph glyph-name="Y" unicode="Y" horiz-adv-x="535" 
d="M12 700h138l118 -261l118 261h137l-190 -400v-300h-131v300z" />
    <glyph glyph-name="Yacute" unicode="&#xdd;" horiz-adv-x="535" 
d="M12 700h138l118 -261l118 261h137l-190 -400v-300h-131v300zM426 964l51 -104l-241 -113l-51 104z" />
    <glyph glyph-name="Ycircumflex" unicode="&#x176;" horiz-adv-x="535" 
d="M12 700h138l118 -261l118 261h137l-190 -400v-300h-131v300zM268 1005l194 -193l-77 -77l-117 117l-117 -117l-76 77z" />
    <glyph glyph-name="Ydieresis" unicode="&#x178;" horiz-adv-x="535" 
d="M12 700h138l118 -261l118 261h137l-190 -400v-300h-131v300zM91.5 793q-23.5 24 -23.5 58t23.5 58t57.5 24t58 -24t24 -58t-24 -58t-58 -24t-57.5 24zM329.5 793q-23.5 24 -23.5 58t23.5 58t57.5 24t58 -24t24 -58t-24 -58t-58 -24t-57.5 24z" />
    <glyph glyph-name="Ygrave" unicode="&#x1ef2;" horiz-adv-x="535" 
d="M12 700h138l118 -261l118 261h137l-190 -400v-300h-131v300zM110 964l241 -113l-51 -104l-241 113z" />
    <glyph glyph-name="Z" unicode="Z" horiz-adv-x="623" 
d="M380 577h-307v123h473v-109l-346 -467h389v-124h-555v109z" />
    <glyph glyph-name="Zacute" unicode="&#x179;" horiz-adv-x="623" 
d="M380 577h-307v123h473v-109l-346 -467h389v-124h-555v109zM475 964l51 -104l-241 -113l-51 104z" />
    <glyph glyph-name="Zcaron" unicode="&#x17d;" horiz-adv-x="623" 
d="M380 577h-307v123h473v-109l-346 -467h389v-124h-555v109zM200 1005l117 -117l117 117l77 -77l-194 -193l-193 193z" />
    <glyph glyph-name="Zdotaccent" unicode="&#x17b;" horiz-adv-x="623" 
d="M380 577h-307v123h473v-109l-346 -467h389v-124h-555v109zM258.5 776.5q-24.5 24.5 -24.5 59.5t24.5 59.5t58.5 24.5q35 0 60 -24.5t25 -59.5t-25 -59.5t-60 -24.5q-34 0 -58.5 24.5z" />
    <glyph glyph-name="uni01B5" unicode="&#x1b5;" horiz-adv-x="623" 
d="M173 298h-60v105h138l129 174h-307v123h473v-109l-140 -188h58v-105h-136l-128 -174h389v-124h-555v109z" />
    <glyph glyph-name="Adieresis.ss01" horiz-adv-x="686" 
d="M406 700l265 -700h-137l-39 108h-304l-39 -108h-137l265 700h126zM343 524l-107 -292h214zM310 903v-141h-141v141h141zM518 903v-141h-141v141h141z" />
    <glyph glyph-name="Cdotaccent.ss01" horiz-adv-x="774" 
d="M214 41.5q-79 47.5 -124.5 129t-45.5 179.5t45.5 179.5t124.5 129t177 47.5q84 0 152.5 -34t116.5 -95l-92 -93q-29 46 -74 71t-103 25q-62 0 -111 -30.5t-76.5 -83t-27.5 -116.5t27.5 -116.5t76.5 -83t111 -30.5t111 30t76.5 83t27.5 118h132q0 -98 -45.5 -180
t-124.5 -129.5t-177 -47.5t-177 47.5zM461 903v-141h-141v141h141z" />
    <glyph glyph-name="Edieresis.ss01" horiz-adv-x="560" 
d="M510 700v-123h-317v-162h202v-123h-202v-168h323v-124h-454v700h448zM259 903v-141h-141v141h141zM467 903v-141h-141v141h141z" />
    <glyph glyph-name="Edotaccent.ss01" horiz-adv-x="560" 
d="M510 700v-123h-317v-162h202v-123h-202v-168h323v-124h-454v700h448zM363 903v-141h-141v141h141z" />
    <glyph glyph-name="Gdotaccent.ss01" horiz-adv-x="783" 
d="M211.5 41.5q-78.5 47.5 -123 129t-44.5 179.5t45 179.5t124 129t178 47.5q82 0 150.5 -34t117.5 -95l-92 -91q-30 44 -74.5 69t-101.5 25q-62 0 -111 -30t-76.5 -83t-27.5 -117t27.5 -117t76.5 -83t111 -30q80 0 135 45.5t73 124.5h-212v117h334v-407h-120v85
q-39 -46 -94 -68.5t-119 -22.5q-98 0 -176.5 47.5zM462 903v-141h-141v141h141z" />
    <glyph glyph-name="Idieresis.ss01" horiz-adv-x="423" 
d="M146 124v453h-106v123h343v-123h-106v-453h106v-124h-343v124h106zM178 903v-141h-141v141h141zM386 903v-141h-141v141h141z" />
    <glyph glyph-name="Idotaccent.ss01" horiz-adv-x="423" 
d="M146 124v453h-106v123h343v-123h-106v-453h106v-124h-343v124h106zM282 903v-141h-141v141h141z" />
    <glyph glyph-name="Ldot.ss01" horiz-adv-x="557" 
d="M193 700v-576h324v-124h-455v700h131zM448 473v-141h-141v141h141z" />
    <glyph glyph-name="Odieresis.ss01" horiz-adv-x="780" 
d="M213 41.5q-79 47.5 -124 129t-45 179.5t45 179.5t124 129t177 47.5t177 -47.5t124 -129t45 -179.5t-45 -179.5t-124 -129t-177 -47.5t-177 47.5zM501 150q49 30 76 82.5t27 117.5t-27 117.5t-76 82.5t-111 30t-110.5 -30t-76 -82.5t-27.5 -117.5t27.5 -117.5t76 -82.5
t110.5 -30t111 30zM357 903v-141h-141v141h141zM565 903v-141h-141v141h141z" />
    <glyph glyph-name="Udieresis.ss01" horiz-adv-x="592" 
d="M176.5 24q-53.5 30 -84 84t-30.5 123v469h131v-477q0 -47 28 -76t75 -29t75 29t28 76v477h131v-469q0 -69 -30.5 -123t-84 -84t-119.5 -30t-119.5 30zM263 903v-141h-141v141h141zM471 903v-141h-141v141h141z" />
    <glyph glyph-name="Wdieresis.ss01" horiz-adv-x="927" 
d="M149 700l192 -521l58 164l-128 357h131l62 -180l61 180h132l-128 -357l58 -164l191 521h137l-265 -700h-127l-59 166l-60 -166h-126l-266 700h137zM430 903v-141h-141v141h141zM638 903v-141h-141v141h141z" />
    <glyph glyph-name="Ydieresis.ss01" horiz-adv-x="535" 
d="M12 700h138l118 -261l118 261h137l-190 -400v-300h-131v300zM234 903v-141h-141v141h141zM442 903v-141h-141v141h141z" />
    <glyph glyph-name="Zdotaccent.ss01" horiz-adv-x="623" 
d="M380 577h-307v123h473v-109l-346 -467h389v-124h-555v109zM387 903v-141h-141v141h141z" />
    <glyph glyph-name="Gdotaccent.ss02.ss01" horiz-adv-x="768" 
d="M212 41.5q-79 47.5 -123.5 129t-44.5 179.5q0 99 45 180.5t124 128.5t177 47q87 0 155.5 -33.5t116.5 -95.5l-91 -91q-63 94 -181 94q-61 0 -110 -30t-76.5 -82.5t-27.5 -117.5q0 -64 27.5 -117t77 -83t111.5 -30q91 0 140.5 47.5t55.5 122.5h-201v117h337v-55
q0 -121 -45 -201.5t-120.5 -118.5t-168.5 -38q-99 0 -178 47.5zM459 903v-141h-141v141h141z" />
    <glyph glyph-name="Idieresis.ss02.ss01" horiz-adv-x="255" 
d="M193 700v-700h-131v700h131zM94 903v-141h-141v141h141zM302 903v-141h-141v141h141z" />
    <glyph glyph-name="Idotaccent.ss02.ss01" horiz-adv-x="255" 
d="M193 700v-700h-131v700h131zM198 903v-141h-141v141h141z" />
    <glyph glyph-name="Wdieresis.ss02.ss01" horiz-adv-x="961" 
d="M146 700l129 -503l134 503h143l134 -503l129 503h134l-195 -700h-133l-141 499l-140 -499h-133l-195 700h134zM447 903v-141h-141v141h141zM655 903v-141h-141v141h141z" />
    <glyph glyph-name="Cdotaccent.ss03.ss01" horiz-adv-x="748" 
d="M214 41q-80 47 -125 128.5t-45 180.5t45 180.5t125 128.5t179 47q107 0 188.5 -53.5t122.5 -148.5l-114 -62q-24 66 -75.5 102t-121.5 36q-63 0 -112.5 -30t-77 -82.5t-27.5 -117.5t27.5 -117.5t77 -82.5t112.5 -30q70 0 121.5 36t75.5 102l114 -62
q-41 -95 -122.5 -148.5t-188.5 -53.5q-99 0 -179 47zM462 903v-141h-141v141h141z" />
    <glyph glyph-name="Udieresis.ss04.ss01" horiz-adv-x="595" 
d="M109.5 56q-53.5 62 -53.5 164v480h131v-466q0 -51 28 -82.5t79 -31.5t79.5 31.5t28.5 82.5v466h131v-700h-131v67q-19 -33 -55.5 -53t-90.5 -20q-93 0 -146.5 62zM261 903v-141h-141v141h141zM469 903v-141h-141v141h141z" />
    <glyph glyph-name="G.ss02" horiz-adv-x="768" 
d="M212 41.5q-79 47.5 -123.5 129t-44.5 179.5q0 99 45 180.5t124 128.5t177 47q87 0 155.5 -33.5t116.5 -95.5l-91 -91q-63 94 -181 94q-61 0 -110 -30t-76.5 -82.5t-27.5 -117.5q0 -64 27.5 -117t77 -83t111.5 -30q91 0 140.5 47.5t55.5 122.5h-201v117h337v-55
q0 -121 -45 -201.5t-120.5 -118.5t-168.5 -38q-99 0 -178 47.5z" />
    <glyph glyph-name="Gbreve.ss02" horiz-adv-x="768" 
d="M212 41.5q-79 47.5 -123.5 129t-44.5 179.5q0 99 45 180.5t124 128.5t177 47q87 0 155.5 -33.5t116.5 -95.5l-91 -91q-63 94 -181 94q-61 0 -110 -30t-76.5 -82.5t-27.5 -117.5q0 -64 27.5 -117t77 -83t111.5 -30q91 0 140.5 47.5t55.5 122.5h-201v117h337v-55
q0 -121 -45 -201.5t-120.5 -118.5t-168.5 -38q-99 0 -178 47.5zM298 772.5q-42 22.5 -68.5 62.5t-29.5 90h117q4 -30 22.5 -49t49.5 -19t50 19t23 49h118q-4 -50 -30.5 -90t-69 -62.5t-91.5 -22.5t-91 22.5z" />
    <glyph glyph-name="Gcircumflex.ss02" horiz-adv-x="768" 
d="M212 41.5q-79 47.5 -123.5 129t-44.5 179.5q0 99 45 180.5t124 128.5t177 47q87 0 155.5 -33.5t116.5 -95.5l-91 -91q-63 94 -181 94q-61 0 -110 -30t-76.5 -82.5t-27.5 -117.5q0 -64 27.5 -117t77 -83t111.5 -30q91 0 140.5 47.5t55.5 122.5h-201v117h337v-55
q0 -121 -45 -201.5t-120.5 -118.5t-168.5 -38q-99 0 -178 47.5zM389 1005l194 -193l-77 -77l-117 117l-117 -117l-76 77z" />
    <glyph glyph-name="uni0122.ss02" horiz-adv-x="768" 
d="M212 41.5q-79 47.5 -123.5 129t-44.5 179.5q0 99 45 180.5t124 128.5t177 47q87 0 155.5 -33.5t116.5 -95.5l-91 -91q-63 94 -181 94q-61 0 -110 -30t-76.5 -82.5t-27.5 -117.5q0 -64 27.5 -117t77 -83t111.5 -30q91 0 140.5 47.5t55.5 122.5h-201v117h337v-55
q0 -121 -45 -201.5t-120.5 -118.5t-168.5 -38q-99 0 -178 47.5zM298 -42h138l-139 -237l-105 60z" />
    <glyph glyph-name="Gdotaccent.ss02" horiz-adv-x="768" 
d="M212 41.5q-79 47.5 -123.5 129t-44.5 179.5q0 99 45 180.5t124 128.5t177 47q87 0 155.5 -33.5t116.5 -95.5l-91 -91q-63 94 -181 94q-61 0 -110 -30t-76.5 -82.5t-27.5 -117.5q0 -64 27.5 -117t77 -83t111.5 -30q91 0 140.5 47.5t55.5 122.5h-201v117h337v-55
q0 -121 -45 -201.5t-120.5 -118.5t-168.5 -38q-99 0 -178 47.5zM330.5 776.5q-24.5 24.5 -24.5 59.5t24.5 59.5t58.5 24.5q35 0 60 -24.5t25 -59.5t-25 -59.5t-60 -24.5q-34 0 -58.5 24.5z" />
    <glyph glyph-name="I.ss02" horiz-adv-x="255" 
d="M193 700v-700h-131v700h131z" />
    <glyph glyph-name="IJ.ss02" horiz-adv-x="584" 
d="M174.5 24q-52.5 30 -82.5 82t-30 117h131q0 -46 27.5 -75.5t71.5 -29.5q48 0 73.5 30.5t25.5 84.5v344h-73v123h204v-460q0 -72 -28 -127.5t-80.5 -87t-121.5 -31.5q-65 0 -117.5 30zM193 700v-374h-131v374h131z" />
    <glyph glyph-name="Iacute.ss02" horiz-adv-x="255" 
d="M193 700v-700h-131v700h131zM286 964l51 -104l-241 -113l-51 104z" />
    <glyph glyph-name="Ibreve.ss02" horiz-adv-x="255" 
d="M193 700v-700h-131v700h131zM36 772.5q-42 22.5 -68.5 62.5t-29.5 90h117q4 -30 22.5 -49t49.5 -19t50 19t23 49h118q-4 -50 -30.5 -90t-69 -62.5t-91.5 -22.5t-91 22.5z" />
    <glyph glyph-name="Icircumflex.ss02" horiz-adv-x="255" 
d="M193 700v-700h-131v700h131zM127 1005l194 -193l-77 -77l-117 117l-117 -117l-76 77z" />
    <glyph glyph-name="Idieresis.ss02" horiz-adv-x="255" 
d="M193 700v-700h-131v700h131zM-48.5 793q-23.5 24 -23.5 58t23.5 58t57.5 24t58 -24t24 -58t-24 -58t-58 -24t-57.5 24zM189.5 793q-23.5 24 -23.5 58t23.5 58t57.5 24t58 -24t24 -58t-24 -58t-58 -24t-57.5 24z" />
    <glyph glyph-name="Idotaccent.ss02" horiz-adv-x="255" 
d="M193 700v-700h-131v700h131zM69.5 776.5q-24.5 24.5 -24.5 59.5t24.5 59.5t58.5 24.5q35 0 60 -24.5t25 -59.5t-25 -59.5t-60 -24.5q-34 0 -58.5 24.5z" />
    <glyph glyph-name="Igrave.ss02" horiz-adv-x="255" 
d="M193 700v-700h-131v700h131zM-31 964l241 -113l-51 -104l-241 113z" />
    <glyph glyph-name="Imacron.ss02" horiz-adv-x="255" 
d="M193 700v-700h-131v700h131zM284 894v-112h-315v112h315z" />
    <glyph glyph-name="Iogonek.ss02" horiz-adv-x="255" 
d="M193 700v-700h-131v700h131zM74.5 -218.5q-35.5 31.5 -35.5 81.5q0 30 18 67l31 70h105l-39 -88q-11 -23 -11 -36q0 -28 35 -28h22v-98h-32q-58 0 -93.5 31.5z" />
    <glyph glyph-name="Itilde.ss02" horiz-adv-x="255" 
d="M193 700v-700h-131v700h131zM-30 896q29 33 78 33q25 0 45 -8t41 -25l19 -14q3 -3 11.5 -9.5t14 -9.5t11.5 -3q19 0 19 23v46h103v-51q0 -60 -29 -93t-78 -33q-25 0 -45 8t-41 25l-18 15q-4 3 -12.5 10t-14 9.5t-10.5 2.5q-10 0 -15 -6t-5 -17v-47h-103v51q0 60 29 93z
" />
    <glyph glyph-name="J.ss02" horiz-adv-x="558" 
d="M145.5 24q-53.5 30 -83.5 82.5t-30 116.5h131q0 -45 28 -75t73 -30q49 0 75 30t26 85v344h-81v123h212v-460q0 -72 -28.5 -127.5t-81 -87t-122.5 -31.5q-65 0 -118.5 30z" />
    <glyph glyph-name="Jcircumflex.ss02" horiz-adv-x="558" 
d="M145.5 24q-53.5 30 -83.5 82.5t-30 116.5h131q0 -45 28 -75t73 -30q49 0 75 30t26 85v344h-81v123h212v-460q0 -72 -28.5 -127.5t-81 -87t-122.5 -31.5q-65 0 -118.5 30zM424 1005l194 -193l-77 -77l-117 117l-117 -117l-76 77z" />
    <glyph glyph-name="M.ss02" horiz-adv-x="906" 
d="M314 700l138 -503l140 503h131l168 -700h-136l-103 466l-128 -466h-142l-128 466l-104 -466h-135l168 700h131z" />
    <glyph glyph-name="W.ss02" horiz-adv-x="961" 
d="M146 700l129 -503l134 503h143l134 -503l129 503h134l-195 -700h-133l-141 499l-140 -499h-133l-195 700h134z" />
    <glyph glyph-name="Wacute.ss02" horiz-adv-x="961" 
d="M146 700l129 -503l134 503h143l134 -503l129 503h134l-195 -700h-133l-141 499l-140 -499h-133l-195 700h134zM639 964l51 -104l-241 -113l-51 104z" />
    <glyph glyph-name="Wcircumflex.ss02" horiz-adv-x="961" 
d="M146 700l129 -503l134 503h143l134 -503l129 503h134l-195 -700h-133l-141 499l-140 -499h-133l-195 700h134zM481 1005l194 -193l-77 -77l-117 117l-117 -117l-76 77z" />
    <glyph glyph-name="Wdieresis.ss02" horiz-adv-x="961" 
d="M146 700l129 -503l134 503h143l134 -503l129 503h134l-195 -700h-133l-141 499l-140 -499h-133l-195 700h134zM304.5 793q-23.5 24 -23.5 58t23.5 58t57.5 24t58 -24t24 -58t-24 -58t-58 -24t-57.5 24zM542.5 793q-23.5 24 -23.5 58t23.5 58t57.5 24t58 -24t24 -58
t-24 -58t-58 -24t-57.5 24z" />
    <glyph glyph-name="Wgrave.ss02" horiz-adv-x="961" 
d="M146 700l129 -503l134 503h143l134 -503l129 503h134l-195 -700h-133l-141 499l-140 -499h-133l-195 700h134zM323 964l241 -113l-51 -104l-241 113z" />
    <glyph glyph-name="C.ss03" horiz-adv-x="748" 
d="M214 41q-80 47 -125 128.5t-45 180.5t45 180.5t125 128.5t179 47q107 0 188.5 -53.5t122.5 -148.5l-114 -62q-24 66 -75.5 102t-121.5 36q-63 0 -112.5 -30t-77 -82.5t-27.5 -117.5t27.5 -117.5t77 -82.5t112.5 -30q70 0 121.5 36t75.5 102l114 -62
q-41 -95 -122.5 -148.5t-188.5 -53.5q-99 0 -179 47z" />
    <glyph glyph-name="Cacute.ss03" horiz-adv-x="748" 
d="M214 41q-80 47 -125 128.5t-45 180.5t45 180.5t125 128.5t179 47q107 0 188.5 -53.5t122.5 -148.5l-114 -62q-24 66 -75.5 102t-121.5 36q-63 0 -112.5 -30t-77 -82.5t-27.5 -117.5t27.5 -117.5t77 -82.5t112.5 -30q70 0 121.5 36t75.5 102l114 -62
q-41 -95 -122.5 -148.5t-188.5 -53.5q-99 0 -179 47zM550 964l51 -104l-241 -113l-51 104z" />
    <glyph glyph-name="Ccaron.ss03" horiz-adv-x="748" 
d="M214 41q-80 47 -125 128.5t-45 180.5t45 180.5t125 128.5t179 47q107 0 188.5 -53.5t122.5 -148.5l-114 -62q-24 66 -75.5 102t-121.5 36q-63 0 -112.5 -30t-77 -82.5t-27.5 -117.5t27.5 -117.5t77 -82.5t112.5 -30q70 0 121.5 36t75.5 102l114 -62
q-41 -95 -122.5 -148.5t-188.5 -53.5q-99 0 -179 47zM275 1005l117 -117l117 117l77 -77l-194 -193l-193 193z" />
    <glyph glyph-name="Ccedilla.ss03" horiz-adv-x="748" 
d="M514.5 156q51.5 36 75.5 102l114 -62q-37 -85 -107.5 -137.5t-162.5 -62.5l-20 -35q33 -8 53.5 -33.5t20.5 -67.5q0 -48 -34 -82t-82 -34q-47 0 -81 34t-35 81h88q0 -13 8 -20.5t20 -7.5t20 7.5t8 20.5q0 14 -8.5 23t-24.5 9h-81l62 106q-88 10 -157 59t-108 126t-39 168
q0 99 45 180.5t125 128.5t179 47q107 0 188.5 -53.5t122.5 -148.5l-114 -62q-24 66 -75.5 102t-121.5 36q-63 0 -112.5 -30t-77 -82.5t-27.5 -117.5t27.5 -117.5t77 -82.5t112.5 -30q70 0 121.5 36z" />
    <glyph glyph-name="Ccircumflex.ss03" horiz-adv-x="748" 
d="M214 41q-80 47 -125 128.5t-45 180.5t45 180.5t125 128.5t179 47q107 0 188.5 -53.5t122.5 -148.5l-114 -62q-24 66 -75.5 102t-121.5 36q-63 0 -112.5 -30t-77 -82.5t-27.5 -117.5t27.5 -117.5t77 -82.5t112.5 -30q70 0 121.5 36t75.5 102l114 -62
q-41 -95 -122.5 -148.5t-188.5 -53.5q-99 0 -179 47zM392 1005l194 -193l-77 -77l-117 117l-117 -117l-76 77z" />
    <glyph glyph-name="Cdotaccent.ss03" horiz-adv-x="748" 
d="M214 41q-80 47 -125 128.5t-45 180.5t45 180.5t125 128.5t179 47q107 0 188.5 -53.5t122.5 -148.5l-114 -62q-24 66 -75.5 102t-121.5 36q-63 0 -112.5 -30t-77 -82.5t-27.5 -117.5t27.5 -117.5t77 -82.5t112.5 -30q70 0 121.5 36t75.5 102l114 -62
q-41 -95 -122.5 -148.5t-188.5 -53.5q-99 0 -179 47zM333.5 776.5q-24.5 24.5 -24.5 59.5t24.5 59.5t58.5 24.5q35 0 60 -24.5t25 -59.5t-25 -59.5t-60 -24.5q-34 0 -58.5 24.5z" />
    <glyph glyph-name="J.ss03" horiz-adv-x="550" 
d="M152 18q-48 24 -79.5 66.5t-40.5 96.5l121 43q7 -47 36 -76.5t72 -29.5q46 0 71 30.5t25 84.5v467h131v-460q0 -72 -28 -127.5t-80.5 -87t-121.5 -31.5q-58 0 -106 24z" />
    <glyph glyph-name="Jcircumflex.ss03" horiz-adv-x="550" 
d="M152 18q-48 24 -79.5 66.5t-40.5 96.5l121 43q7 -47 36 -76.5t72 -29.5q46 0 71 30.5t25 84.5v467h131v-460q0 -72 -28 -127.5t-80.5 -87t-121.5 -31.5q-58 0 -106 24zM423 1005l194 -193l-77 -77l-117 117l-117 -117l-76 77z" />
    <glyph glyph-name="S.ss03" horiz-adv-x="528" 
d="M151 20.5q-50 26.5 -79 69.5t-36 90l127 29q6 -41 32.5 -65.5t69.5 -24.5q44 0 69.5 28t25.5 74q0 34 -14.5 54t-36.5 30.5t-63 24.5q-14 4 -42 14q-61 22 -98 64.5t-37 107.5q0 55 25 98.5t69 67.5t99 24q63 0 108 -27.5t71 -75.5l-102 -72q-11 25 -30 38.5t-45 13.5
q-29 0 -47 -17t-18 -44q0 -33 23.5 -48.5t79.5 -33.5q1 0 39 -14q71 -27 111 -74t40 -126q0 -66 -29.5 -119t-81 -83t-115.5 -30q-65 0 -115 26.5z" />
    <glyph glyph-name="Sacute.ss03" horiz-adv-x="528" 
d="M151 20.5q-50 26.5 -79 69.5t-36 90l127 29q6 -41 32.5 -65.5t69.5 -24.5q44 0 69.5 28t25.5 74q0 34 -14.5 54t-36.5 30.5t-63 24.5q-14 4 -42 14q-61 22 -98 64.5t-37 107.5q0 55 25 98.5t69 67.5t99 24q63 0 108 -27.5t71 -75.5l-102 -72q-11 25 -30 38.5t-45 13.5
q-29 0 -47 -17t-18 -44q0 -33 23.5 -48.5t79.5 -33.5q1 0 39 -14q71 -27 111 -74t40 -126q0 -66 -29.5 -119t-81 -83t-115.5 -30q-65 0 -115 26.5zM423 964l51 -104l-241 -113l-51 104z" />
    <glyph glyph-name="Scaron.ss03" horiz-adv-x="528" 
d="M151 20.5q-50 26.5 -79 69.5t-36 90l127 29q6 -41 32.5 -65.5t69.5 -24.5q44 0 69.5 28t25.5 74q0 34 -14.5 54t-36.5 30.5t-63 24.5q-14 4 -42 14q-61 22 -98 64.5t-37 107.5q0 55 25 98.5t69 67.5t99 24q63 0 108 -27.5t71 -75.5l-102 -72q-11 25 -30 38.5t-45 13.5
q-29 0 -47 -17t-18 -44q0 -33 23.5 -48.5t79.5 -33.5q1 0 39 -14q71 -27 111 -74t40 -126q0 -66 -29.5 -119t-81 -83t-115.5 -30q-65 0 -115 26.5zM148 1005l117 -117l117 117l77 -77l-194 -193l-193 193z" />
    <glyph glyph-name="Scedilla.ss03" horiz-adv-x="528" 
d="M442 76.5q-50 -62.5 -129 -77.5l-21 -38q33 -8 53.5 -33.5t20.5 -67.5q0 -48 -34 -82t-82 -34q-47 0 -81 34t-35 81h88q0 -13 8 -20.5t20 -7.5t20 7.5t8 20.5q0 14 -8.5 23t-24.5 9h-81l62 106q-80 11 -130 64t-60 119l127 29q6 -41 32.5 -65.5t69.5 -24.5q44 0 69.5 28
t25.5 74q0 34 -14.5 54t-36.5 30.5t-63 24.5q-14 4 -42 14q-61 22 -98 64.5t-37 107.5q0 55 25 98.5t69 67.5t99 24q63 0 108 -27.5t71 -75.5l-102 -72q-11 25 -30 38.5t-45 13.5q-29 0 -47 -17t-18 -44q0 -33 23.5 -48.5t79.5 -33.5q1 0 39 -14q71 -27 111 -74t40 -126
q0 -87 -50 -149.5z" />
    <glyph glyph-name="Scircumflex.ss03" horiz-adv-x="528" 
d="M151 20.5q-50 26.5 -79 69.5t-36 90l127 29q6 -41 32.5 -65.5t69.5 -24.5q44 0 69.5 28t25.5 74q0 34 -14.5 54t-36.5 30.5t-63 24.5q-14 4 -42 14q-61 22 -98 64.5t-37 107.5q0 55 25 98.5t69 67.5t99 24q63 0 108 -27.5t71 -75.5l-102 -72q-11 25 -30 38.5t-45 13.5
q-29 0 -47 -17t-18 -44q0 -33 23.5 -48.5t79.5 -33.5q1 0 39 -14q71 -27 111 -74t40 -126q0 -66 -29.5 -119t-81 -83t-115.5 -30q-65 0 -115 26.5zM265 1005l194 -193l-77 -77l-117 117l-117 -117l-76 77z" />
    <glyph glyph-name="uni0218.ss03" horiz-adv-x="528" 
d="M151 20.5q-50 26.5 -79 69.5t-36 90l127 29q6 -41 32.5 -65.5t69.5 -24.5q44 0 69.5 28t25.5 74q0 34 -14.5 54t-36.5 30.5t-63 24.5q-14 4 -42 14q-61 22 -98 64.5t-37 107.5q0 55 25 98.5t69 67.5t99 24q63 0 108 -27.5t71 -75.5l-102 -72q-11 25 -30 38.5t-45 13.5
q-29 0 -47 -17t-18 -44q0 -33 23.5 -48.5t79.5 -33.5q1 0 39 -14q71 -27 111 -74t40 -126q0 -66 -29.5 -119t-81 -83t-115.5 -30q-65 0 -115 26.5zM213 -42h138l-139 -237l-105 60z" />
    <glyph glyph-name="U.ss04" horiz-adv-x="595" 
d="M109.5 56q-53.5 62 -53.5 164v480h131v-466q0 -51 28 -82.5t79 -31.5t79.5 31.5t28.5 82.5v466h131v-700h-131v67q-19 -33 -55.5 -53t-90.5 -20q-93 0 -146.5 62z" />
    <glyph glyph-name="Uacute.ss04" horiz-adv-x="595" 
d="M109.5 56q-53.5 62 -53.5 164v480h131v-466q0 -51 28 -82.5t79 -31.5t79.5 31.5t28.5 82.5v466h131v-700h-131v67q-19 -33 -55.5 -53t-90.5 -20q-93 0 -146.5 62zM452 964l51 -104l-241 -113l-51 104z" />
    <glyph glyph-name="Ubreve.ss04" horiz-adv-x="595" 
d="M109.5 56q-53.5 62 -53.5 164v480h131v-466q0 -51 28 -82.5t79 -31.5t79.5 31.5t28.5 82.5v466h131v-700h-131v67q-19 -33 -55.5 -53t-90.5 -20q-93 0 -146.5 62zM203 772.5q-42 22.5 -68.5 62.5t-29.5 90h117q4 -30 22.5 -49t49.5 -19t50 19t23 49h118q-4 -50 -30.5 -90
t-69 -62.5t-91.5 -22.5t-91 22.5z" />
    <glyph glyph-name="Ucircumflex.ss04" horiz-adv-x="595" 
d="M109.5 56q-53.5 62 -53.5 164v480h131v-466q0 -51 28 -82.5t79 -31.5t79.5 31.5t28.5 82.5v466h131v-700h-131v67q-19 -33 -55.5 -53t-90.5 -20q-93 0 -146.5 62zM294 1005l194 -193l-77 -77l-117 117l-117 -117l-76 77z" />
    <glyph glyph-name="Udieresis.ss04" horiz-adv-x="595" 
d="M109.5 56q-53.5 62 -53.5 164v480h131v-466q0 -51 28 -82.5t79 -31.5t79.5 31.5t28.5 82.5v466h131v-700h-131v67q-19 -33 -55.5 -53t-90.5 -20q-93 0 -146.5 62zM118.5 793q-23.5 24 -23.5 58t23.5 58t57.5 24t58 -24t24 -58t-24 -58t-58 -24t-57.5 24zM356.5 793
q-23.5 24 -23.5 58t23.5 58t57.5 24t58 -24t24 -58t-24 -58t-58 -24t-57.5 24z" />
    <glyph glyph-name="Ugrave.ss04" horiz-adv-x="595" 
d="M109.5 56q-53.5 62 -53.5 164v480h131v-466q0 -51 28 -82.5t79 -31.5t79.5 31.5t28.5 82.5v466h131v-700h-131v67q-19 -33 -55.5 -53t-90.5 -20q-93 0 -146.5 62zM136 964l241 -113l-51 -104l-241 113z" />
    <glyph glyph-name="Uhungarumlaut.ss04" horiz-adv-x="595" 
d="M109.5 56q-53.5 62 -53.5 164v480h131v-466q0 -51 28 -82.5t79 -31.5t79.5 31.5t28.5 82.5v466h131v-700h-131v67q-19 -33 -55.5 -53t-90.5 -20q-93 0 -146.5 62zM250 995l69 -88l-210 -162l-70 89zM494 995l69 -88l-210 -162l-70 89z" />
    <glyph glyph-name="Umacron.ss04" horiz-adv-x="595" 
d="M109.5 56q-53.5 62 -53.5 164v480h131v-466q0 -51 28 -82.5t79 -31.5t79.5 31.5t28.5 82.5v466h131v-700h-131v67q-19 -33 -55.5 -53t-90.5 -20q-93 0 -146.5 62zM451 894v-112h-315v112h315z" />
    <glyph glyph-name="Uogonek.ss04" horiz-adv-x="595" 
d="M540 -152v-98h-32q-58 0 -93.5 31.5t-35.5 81.5q0 30 18 67l31 70h-26v67q-19 -33 -55.5 -53t-90.5 -20q-93 0 -146.5 62t-53.5 164v480h131v-466q0 -51 28 -82.5t79 -31.5t79.5 31.5t28.5 82.5v466h131v-700l-39 -88q-11 -23 -11 -36q0 -28 35 -28h22z" />
    <glyph glyph-name="Uring.ss04" horiz-adv-x="595" 
d="M109.5 56q-53.5 62 -53.5 164v480h131v-466q0 -51 28 -82.5t79 -31.5t79.5 31.5t28.5 82.5v466h131v-700h-131v67q-19 -33 -55.5 -53t-90.5 -20q-93 0 -146.5 62zM219 781q-31 31 -31 76q0 44 31 75t76 31t76 -31t31 -75t-31 -75.5t-76 -31.5t-76 31zM315 836q8 8 8 21
q0 12 -8 20t-20 8q-13 0 -21 -8t-8 -20q0 -13 8 -21t21 -8q12 0 20 8z" />
    <glyph glyph-name="Utilde.ss04" horiz-adv-x="595" 
d="M109.5 56q-53.5 62 -53.5 164v480h131v-466q0 -51 28 -82.5t79 -31.5t79.5 31.5t28.5 82.5v466h131v-700h-131v67q-19 -33 -55.5 -53t-90.5 -20q-93 0 -146.5 62zM137 896q29 33 78 33q25 0 45 -8t41 -25l19 -14q3 -3 11.5 -9.5t14 -9.5t11.5 -3q19 0 19 23v46h103v-51
q0 -60 -29 -93t-78 -33q-25 0 -45 8t-41 25l-18 15q-4 3 -12.5 10t-14 9.5t-10.5 2.5q-10 0 -15 -6t-5 -17v-47h-103v51q0 60 29 93z" />
    <glyph glyph-name="a" unicode="a" horiz-adv-x="616" 
d="M160.5 27q-57.5 33 -90.5 91t-33 132t33 132t90.5 91t128.5 33q45 0 82.5 -15.5t57.5 -37.5v47h129v-500h-129v48q-19 -22 -56.5 -38t-83.5 -16q-71 0 -128.5 33zM391 151.5q37 37.5 37 98.5q0 62 -36.5 99t-93.5 37q-58 0 -96 -37t-38 -99q0 -61 38.5 -98.5t95.5 -37.5
q56 0 93 37.5z" />
    <glyph glyph-name="aacute" unicode="&#xe1;" horiz-adv-x="616" 
d="M160.5 27q-57.5 33 -90.5 91t-33 132t33 132t90.5 91t128.5 33q45 0 82.5 -15.5t57.5 -37.5v47h129v-500h-129v48q-19 -22 -56.5 -38t-83.5 -16q-71 0 -128.5 33zM391 151.5q37 37.5 37 98.5q0 62 -36.5 99t-93.5 37q-58 0 -96 -37t-38 -99q0 -61 38.5 -98.5t95.5 -37.5
q56 0 93 37.5zM459 764l51 -104l-241 -113l-51 104z" />
    <glyph glyph-name="abreve" unicode="&#x103;" horiz-adv-x="616" 
d="M160.5 27q-57.5 33 -90.5 91t-33 132t33 132t90.5 91t128.5 33q45 0 82.5 -15.5t57.5 -37.5v47h129v-500h-129v48q-19 -22 -56.5 -38t-83.5 -16q-71 0 -128.5 33zM391 151.5q37 37.5 37 98.5q0 62 -36.5 99t-93.5 37q-58 0 -96 -37t-38 -99q0 -61 38.5 -98.5t95.5 -37.5
q56 0 93 37.5zM210 572.5q-42 22.5 -68.5 62.5t-29.5 90h117q4 -30 22.5 -49t49.5 -19t50 19t23 49h118q-4 -50 -30.5 -90t-69 -62.5t-91.5 -22.5t-91 22.5z" />
    <glyph glyph-name="acircumflex" unicode="&#xe2;" horiz-adv-x="616" 
d="M160.5 27q-57.5 33 -90.5 91t-33 132t33 132t90.5 91t128.5 33q45 0 82.5 -15.5t57.5 -37.5v47h129v-500h-129v48q-19 -22 -56.5 -38t-83.5 -16q-71 0 -128.5 33zM391 151.5q37 37.5 37 98.5q0 62 -36.5 99t-93.5 37q-58 0 -96 -37t-38 -99q0 -61 38.5 -98.5t95.5 -37.5
q56 0 93 37.5zM301 805l194 -193l-77 -77l-117 117l-117 -117l-76 77z" />
    <glyph glyph-name="adieresis" unicode="&#xe4;" horiz-adv-x="616" 
d="M160.5 27q-57.5 33 -90.5 91t-33 132t33 132t90.5 91t128.5 33q45 0 82.5 -15.5t57.5 -37.5v47h129v-500h-129v48q-19 -22 -56.5 -38t-83.5 -16q-71 0 -128.5 33zM391 151.5q37 37.5 37 98.5q0 62 -36.5 99t-93.5 37q-58 0 -96 -37t-38 -99q0 -61 38.5 -98.5t95.5 -37.5
q56 0 93 37.5zM122.5 579q-23.5 24 -23.5 58t23.5 58t57.5 24t58 -24t24 -58t-24 -58t-58 -24t-57.5 24zM362.5 579q-23.5 24 -23.5 58t23.5 58t57.5 24t58 -24t24 -58t-24 -58t-58 -24t-57.5 24z" />
    <glyph glyph-name="agrave" unicode="&#xe0;" horiz-adv-x="616" 
d="M160.5 27q-57.5 33 -90.5 91t-33 132t33 132t90.5 91t128.5 33q45 0 82.5 -15.5t57.5 -37.5v47h129v-500h-129v48q-19 -22 -56.5 -38t-83.5 -16q-71 0 -128.5 33zM391 151.5q37 37.5 37 98.5q0 62 -36.5 99t-93.5 37q-58 0 -96 -37t-38 -99q0 -61 38.5 -98.5t95.5 -37.5
q56 0 93 37.5zM143 764l241 -113l-51 -104l-241 113z" />
    <glyph glyph-name="amacron" unicode="&#x101;" horiz-adv-x="616" 
d="M160.5 27q-57.5 33 -90.5 91t-33 132t33 132t90.5 91t128.5 33q45 0 82.5 -15.5t57.5 -37.5v47h129v-500h-129v48q-19 -22 -56.5 -38t-83.5 -16q-71 0 -128.5 33zM391 151.5q37 37.5 37 98.5q0 62 -36.5 99t-93.5 37q-58 0 -96 -37t-38 -99q0 -61 38.5 -98.5t95.5 -37.5
q56 0 93 37.5zM458 694v-112h-315v112h315z" />
    <glyph glyph-name="aogonek" unicode="&#x105;" horiz-adv-x="616" 
d="M568 -152v-98h-32q-58 0 -93.5 31.5t-35.5 81.5q0 27 16 63l30 74h-24v48q-19 -22 -56.5 -38t-83.5 -16q-71 0 -128.5 33t-90.5 91t-33 132t33 132t90.5 91t128.5 33q45 0 82.5 -15.5t57.5 -37.5v47h129v-500l-36 -88q-1 -3 -6 -14.5t-5 -21.5q0 -28 35 -28h22z
M391 151.5q37 37.5 37 98.5q0 62 -36.5 99t-93.5 37q-58 0 -96 -37t-38 -99q0 -61 38.5 -98.5t95.5 -37.5q56 0 93 37.5z" />
    <glyph glyph-name="aring" unicode="&#xe5;" horiz-adv-x="616" 
d="M160.5 27q-57.5 33 -90.5 91t-33 132t33 132t90.5 91t128.5 33q45 0 82.5 -15.5t57.5 -37.5v47h129v-500h-129v48q-19 -22 -56.5 -38t-83.5 -16q-71 0 -128.5 33zM391 151.5q37 37.5 37 98.5q0 62 -36.5 99t-93.5 37q-58 0 -96 -37t-38 -99q0 -61 38.5 -98.5t95.5 -37.5
q56 0 93 37.5zM226 581q-31 31 -31 76q0 44 31 75t76 31t76 -31t31 -75t-31 -75.5t-76 -31.5t-76 31zM322 636q8 8 8 21q0 12 -8 20t-20 8q-13 0 -21 -8t-8 -20q0 -13 8 -21t21 -8q12 0 20 8z" />
    <glyph glyph-name="atilde" unicode="&#xe3;" horiz-adv-x="616" 
d="M160.5 27q-57.5 33 -90.5 91t-33 132t33 132t90.5 91t128.5 33q45 0 82.5 -15.5t57.5 -37.5v47h129v-500h-129v48q-19 -22 -56.5 -38t-83.5 -16q-71 0 -128.5 33zM391 151.5q37 37.5 37 98.5q0 62 -36.5 99t-93.5 37q-58 0 -96 -37t-38 -99q0 -61 38.5 -98.5t95.5 -37.5
q56 0 93 37.5zM144 696q29 33 78 33q26 0 46 -8t40 -25l19 -14q3 -3 11.5 -9.5t14 -9.5t11.5 -3q19 0 19 23v46h103v-51q0 -60 -29 -93t-78 -33q-26 0 -46 8t-40 25l-18 15q-4 3 -12.5 10t-14 9.5t-10.5 2.5q-10 0 -15 -6t-5 -17v-47h-103v51q0 60 29 93z" />
    <glyph glyph-name="ae" unicode="&#xe6;" horiz-adv-x="969" 
d="M158 27q-56 33 -88.5 91t-32.5 132t32.5 132.5t90 91t127.5 32.5q46 0 83.5 -15.5t55.5 -37.5v47h121v-39q61 45 139 45q69 0 125.5 -33t88.5 -91t32 -129q0 -21 -3 -39h-373q7 -44 41.5 -74.5t83.5 -30.5q35 0 61 11.5t38 34.5h145q-23 -73 -87.5 -117t-148.5 -44
q-40 0 -77 12.5t-65 34.5v-41h-121v48q-22 -24 -59 -39t-84 -15q-69 0 -125 33zM751.5 371q-31.5 24 -73.5 24q-43 0 -75.5 -23.5t-42.5 -62.5h234q-11 38 -42.5 62zM389 151.5q36 37.5 36 98.5q0 62 -36 99t-91 37q-57 0 -94 -37t-37 -99q0 -61 37 -98.5t94 -37.5
q55 0 91 37.5z" />
    <glyph glyph-name="aeacute" unicode="&#x1fd;" horiz-adv-x="969" 
d="M158 27q-56 33 -88.5 91t-32.5 132t32.5 132.5t90 91t127.5 32.5q46 0 83.5 -15.5t55.5 -37.5v47h121v-39q61 45 139 45q69 0 125.5 -33t88.5 -91t32 -129q0 -21 -3 -39h-373q7 -44 41.5 -74.5t83.5 -30.5q35 0 61 11.5t38 34.5h145q-23 -73 -87.5 -117t-148.5 -44
q-40 0 -77 12.5t-65 34.5v-41h-121v48q-22 -24 -59 -39t-84 -15q-69 0 -125 33zM751.5 371q-31.5 24 -73.5 24q-43 0 -75.5 -23.5t-42.5 -62.5h234q-11 38 -42.5 62zM389 151.5q36 37.5 36 98.5q0 62 -36 99t-91 37q-57 0 -94 -37t-37 -99q0 -61 37 -98.5t94 -37.5
q55 0 91 37.5zM647 764l51 -104l-241 -113l-51 104z" />
    <glyph glyph-name="b" unicode="b" horiz-adv-x="612" 
d="M243 10q-37 16 -60 42v-52h-125v699l128 14v-259q24 24 60.5 38t80.5 14q73 0 129 -31.5t87.5 -90t31.5 -134.5t-31.5 -134t-88 -90t-128.5 -32q-47 0 -84 16zM411.5 152q36.5 38 36.5 98t-36.5 98t-94.5 38t-95 -38t-37 -98q0 -59 37 -97.5t95 -38.5t94.5 38z" />
    <glyph glyph-name="c" unicode="c" horiz-adv-x="587" 
d="M163 27.5q-59 33.5 -92.5 92t-33.5 130.5q0 73 33.5 131t92.5 91.5t132 33.5q113 0 187 -79l-94 -84q-39 42 -93 42q-57 0 -93 -37.5t-36 -97.5t36 -97t93 -37t92.5 37t35.5 97h127q0 -72 -33.5 -130.5t-91.5 -92t-130 -33.5q-73 0 -132 33.5z" />
    <glyph glyph-name="cacute" unicode="&#x107;" horiz-adv-x="587" 
d="M163 27.5q-59 33.5 -92.5 92t-33.5 130.5q0 73 33.5 131t92.5 91.5t132 33.5q113 0 187 -79l-94 -84q-39 42 -93 42q-57 0 -93 -37.5t-36 -97.5t36 -97t93 -37t92.5 37t35.5 97h127q0 -72 -33.5 -130.5t-91.5 -92t-130 -33.5q-73 0 -132 33.5zM453 764l51 -104l-241 -113
l-51 104z" />
    <glyph glyph-name="ccaron" unicode="&#x10d;" horiz-adv-x="587" 
d="M163 27.5q-59 33.5 -92.5 92t-33.5 130.5q0 73 33.5 131t92.5 91.5t132 33.5q113 0 187 -79l-94 -84q-39 42 -93 42q-57 0 -93 -37.5t-36 -97.5t36 -97t93 -37t92.5 37t35.5 97h127q0 -72 -33.5 -130.5t-91.5 -92t-130 -33.5q-73 0 -132 33.5zM178 805l117 -117l117 117
l77 -77l-194 -193l-193 193z" />
    <glyph glyph-name="ccedilla" unicode="&#xe7;" horiz-adv-x="587" 
d="M523.5 132.5q-26.5 -53.5 -73.5 -89t-107 -45.5l-21 -37q33 -8 53.5 -33.5t20.5 -67.5q0 -48 -34 -82t-82 -34q-47 0 -81 34t-35 81h88q0 -13 8 -20.5t20 -7.5t20 7.5t8 20.5q0 14 -8.5 23t-24.5 9h-81l62 106q-64 8 -113.5 43t-77.5 89.5t-28 120.5q0 73 33.5 131
t92.5 91.5t132 33.5q113 0 187 -79l-94 -84q-39 42 -93 42q-57 0 -93 -37.5t-36 -97.5t36 -97t93 -37t92.5 37t35.5 97h127q0 -64 -26.5 -117.5z" />
    <glyph glyph-name="ccircumflex" unicode="&#x109;" horiz-adv-x="587" 
d="M163 27.5q-59 33.5 -92.5 92t-33.5 130.5q0 73 33.5 131t92.5 91.5t132 33.5q113 0 187 -79l-94 -84q-39 42 -93 42q-57 0 -93 -37.5t-36 -97.5t36 -97t93 -37t92.5 37t35.5 97h127q0 -72 -33.5 -130.5t-91.5 -92t-130 -33.5q-73 0 -132 33.5zM295 805l194 -193l-77 -77
l-117 117l-117 -117l-76 77z" />
    <glyph glyph-name="cdotaccent" unicode="&#x10b;" horiz-adv-x="587" 
d="M163 27.5q-59 33.5 -92.5 92t-33.5 130.5q0 73 33.5 131t92.5 91.5t132 33.5q113 0 187 -79l-94 -84q-39 42 -93 42q-57 0 -93 -37.5t-36 -97.5t36 -97t93 -37t92.5 37t35.5 97h127q0 -72 -33.5 -130.5t-91.5 -92t-130 -33.5q-73 0 -132 33.5zM235.5 576.5
q-24.5 24.5 -24.5 59.5t24.5 59.5t58.5 24.5q35 0 60 -24.5t25 -59.5t-25 -59.5t-60 -24.5q-34 0 -58.5 24.5z" />
    <glyph glyph-name="d" unicode="d" horiz-adv-x="616" 
d="M158.5 26q-57.5 32 -89.5 90.5t-32 133.5t32 133.5t89.5 90.5t129.5 32q44 0 81.5 -14.5t60.5 -38.5v246l128 14v-713h-128v48q-24 -24 -60.5 -39t-81.5 -15q-72 0 -129.5 32zM391 152q36 38 36 98q0 61 -36 98.5t-94 37.5t-95.5 -38t-37.5 -98t37.5 -98t95.5 -38t94 38z
" />
    <glyph glyph-name="eth" unicode="&#xf0;" horiz-adv-x="590" 
d="M513.5 480.5q39.5 -94.5 39.5 -201.5q0 -85 -32.5 -149.5t-90.5 -100t-133 -35.5t-134 33.5t-92.5 92t-33.5 130.5t33.5 130.5t92.5 92t134 33.5q22 0 45.5 -5t41.5 -16q-28 57 -74 101l-82 -58l-61 81l56 40q-30 17 -70 34l36 100q67 -26 129 -67l85 60l60 -82l-63 -45
q74 -74 113.5 -168.5zM387 159.5q34 35.5 34 90.5t-34 91t-90 36q-58 0 -92.5 -35.5t-34.5 -91.5t34.5 -91t92.5 -35q56 0 90 35.5z" />
    <glyph glyph-name="dcaron" unicode="&#x10f;" horiz-adv-x="846" 
d="M158.5 26q-57.5 32 -89.5 90.5t-32 133.5t32 133.5t89.5 90.5t129.5 32q44 0 81.5 -14.5t60.5 -38.5v246l128 14v-713h-128v48q-24 -24 -60.5 -39t-81.5 -15q-72 0 -129.5 32zM391 152q36 38 36 98q0 61 -36 98.5t-94 37.5t-95.5 -38t-37.5 -98t37.5 -98t95.5 -38t94 38z
M710 700h137l-138 -236l-104 60z" />
    <glyph glyph-name="dcroat" unicode="&#x111;" horiz-adv-x="621" 
d="M611 542h-53v-542h-128v48q-24 -24 -60.5 -39t-81.5 -15q-72 0 -129.5 32t-89.5 90.5t-32 133.5t32 133.5t89.5 90.5t129.5 32q44 0 81.5 -14.5t60.5 -38.5v89h-131v104h131v53l128 14v-67h53v-104zM391 152q36 38 36 98q0 61 -36 98.5t-94 37.5t-95.5 -38t-37.5 -98
t37.5 -98t95.5 -38t94 38z" />
    <glyph glyph-name="e" unicode="e" horiz-adv-x="583" 
d="M164 28q-59 34 -93 92.5t-34 129.5t33.5 129.5t92 92.5t129.5 34q72 0 130.5 -35t91 -93t32.5 -125q0 -21 -3 -39h-373q7 -44 41.5 -74.5t83.5 -30.5q34 0 60.5 11.5t39.5 34.5h144q-23 -73 -89.5 -117t-153.5 -44q-73 0 -132 34zM366.5 371q-31.5 24 -74.5 24
q-42 0 -74.5 -23.5t-42.5 -62.5h233q-10 38 -41.5 62z" />
    <glyph glyph-name="eacute" unicode="&#xe9;" horiz-adv-x="583" 
d="M164 28q-59 34 -93 92.5t-34 129.5t33.5 129.5t92 92.5t129.5 34q72 0 130.5 -35t91 -93t32.5 -125q0 -21 -3 -39h-373q7 -44 41.5 -74.5t83.5 -30.5q34 0 60.5 11.5t39.5 34.5h144q-23 -73 -89.5 -117t-153.5 -44q-73 0 -132 34zM366.5 371q-31.5 24 -74.5 24
q-42 0 -74.5 -23.5t-42.5 -62.5h233q-10 38 -41.5 62zM450 764l51 -104l-241 -113l-51 104z" />
    <glyph glyph-name="ebreve" unicode="&#x115;" horiz-adv-x="583" 
d="M164 28q-59 34 -93 92.5t-34 129.5t33.5 129.5t92 92.5t129.5 34q72 0 130.5 -35t91 -93t32.5 -125q0 -21 -3 -39h-373q7 -44 41.5 -74.5t83.5 -30.5q34 0 60.5 11.5t39.5 34.5h144q-23 -73 -89.5 -117t-153.5 -44q-73 0 -132 34zM366.5 371q-31.5 24 -74.5 24
q-42 0 -74.5 -23.5t-42.5 -62.5h233q-10 38 -41.5 62zM201 572.5q-42 22.5 -68.5 62.5t-29.5 90h117q4 -30 22.5 -49t49.5 -19t50 19t23 49h118q-4 -50 -30.5 -90t-69 -62.5t-91.5 -22.5t-91 22.5z" />
    <glyph glyph-name="ecaron" unicode="&#x11b;" horiz-adv-x="583" 
d="M164 28q-59 34 -93 92.5t-34 129.5t33.5 129.5t92 92.5t129.5 34q72 0 130.5 -35t91 -93t32.5 -125q0 -21 -3 -39h-373q7 -44 41.5 -74.5t83.5 -30.5q34 0 60.5 11.5t39.5 34.5h144q-23 -73 -89.5 -117t-153.5 -44q-73 0 -132 34zM366.5 371q-31.5 24 -74.5 24
q-42 0 -74.5 -23.5t-42.5 -62.5h233q-10 38 -41.5 62zM175 805l117 -117l117 117l77 -77l-194 -193l-193 193z" />
    <glyph glyph-name="ecircumflex" unicode="&#xea;" horiz-adv-x="583" 
d="M164 28q-59 34 -93 92.5t-34 129.5t33.5 129.5t92 92.5t129.5 34q72 0 130.5 -35t91 -93t32.5 -125q0 -21 -3 -39h-373q7 -44 41.5 -74.5t83.5 -30.5q34 0 60.5 11.5t39.5 34.5h144q-23 -73 -89.5 -117t-153.5 -44q-73 0 -132 34zM366.5 371q-31.5 24 -74.5 24
q-42 0 -74.5 -23.5t-42.5 -62.5h233q-10 38 -41.5 62zM292 805l194 -193l-77 -77l-117 117l-117 -117l-76 77z" />
    <glyph glyph-name="edieresis" unicode="&#xeb;" horiz-adv-x="583" 
d="M164 28q-59 34 -93 92.5t-34 129.5t33.5 129.5t92 92.5t129.5 34q72 0 130.5 -35t91 -93t32.5 -125q0 -21 -3 -39h-373q7 -44 41.5 -74.5t83.5 -30.5q34 0 60.5 11.5t39.5 34.5h144q-23 -73 -89.5 -117t-153.5 -44q-73 0 -132 34zM366.5 371q-31.5 24 -74.5 24
q-42 0 -74.5 -23.5t-42.5 -62.5h233q-10 38 -41.5 62zM113.5 579q-23.5 24 -23.5 58t23.5 58t57.5 24t58 -24t24 -58t-24 -58t-58 -24t-57.5 24zM353.5 579q-23.5 24 -23.5 58t23.5 58t57.5 24t58 -24t24 -58t-24 -58t-58 -24t-57.5 24z" />
    <glyph glyph-name="edotaccent" unicode="&#x117;" horiz-adv-x="583" 
d="M164 28q-59 34 -93 92.5t-34 129.5t33.5 129.5t92 92.5t129.5 34q72 0 130.5 -35t91 -93t32.5 -125q0 -21 -3 -39h-373q7 -44 41.5 -74.5t83.5 -30.5q34 0 60.5 11.5t39.5 34.5h144q-23 -73 -89.5 -117t-153.5 -44q-73 0 -132 34zM366.5 371q-31.5 24 -74.5 24
q-42 0 -74.5 -23.5t-42.5 -62.5h233q-10 38 -41.5 62zM232.5 576.5q-24.5 24.5 -24.5 59.5t24.5 59.5t58.5 24.5q35 0 60 -24.5t25 -59.5t-25 -59.5t-60 -24.5q-34 0 -58.5 24.5z" />
    <glyph glyph-name="egrave" unicode="&#xe8;" horiz-adv-x="583" 
d="M164 28q-59 34 -93 92.5t-34 129.5t33.5 129.5t92 92.5t129.5 34q72 0 130.5 -35t91 -93t32.5 -125q0 -21 -3 -39h-373q7 -44 41.5 -74.5t83.5 -30.5q34 0 60.5 11.5t39.5 34.5h144q-23 -73 -89.5 -117t-153.5 -44q-73 0 -132 34zM366.5 371q-31.5 24 -74.5 24
q-42 0 -74.5 -23.5t-42.5 -62.5h233q-10 38 -41.5 62zM134 764l241 -113l-51 -104l-241 113z" />
    <glyph glyph-name="emacron" unicode="&#x113;" horiz-adv-x="583" 
d="M164 28q-59 34 -93 92.5t-34 129.5t33.5 129.5t92 92.5t129.5 34q72 0 130.5 -35t91 -93t32.5 -125q0 -21 -3 -39h-373q7 -44 41.5 -74.5t83.5 -30.5q34 0 60.5 11.5t39.5 34.5h144q-23 -73 -89.5 -117t-153.5 -44q-73 0 -132 34zM366.5 371q-31.5 24 -74.5 24
q-42 0 -74.5 -23.5t-42.5 -62.5h233q-10 38 -41.5 62zM448 694v-112h-315v112h315z" />
    <glyph glyph-name="eogonek" unicode="&#x119;" horiz-adv-x="583" 
d="M543 214h-373q7 -44 41.5 -74.5t83.5 -30.5q34 0 60.5 11.5t39.5 34.5h144q-19 -61 -70.5 -103t-121.5 -54l-35 -86q-1 -3 -6 -14.5t-5 -21.5q0 -28 35 -28h22v-98h-32q-58 0 -93.5 31.5t-35.5 81.5q0 25 15 63l30 73q-59 12 -106 47.5t-73 88.5t-26 115q0 71 33.5 129.5
t92 92.5t129.5 34q72 0 130.5 -35t91 -93t32.5 -125q0 -21 -3 -39zM408 309q-10 38 -41.5 62t-74.5 24q-42 0 -74.5 -23.5t-42.5 -62.5h233z" />
    <glyph glyph-name="f" unicode="f" horiz-adv-x="414" 
d="M14 381v119h90v60q0 69 45 107.5t112 38.5q92 0 131 -58l-81 -79q-7 11 -16 17t-25 6q-18 0 -28 -11.5t-10 -27.5v-53h139v-119h-139v-381h-128v381h-90z" />
    <glyph glyph-name="g" unicode="g" horiz-adv-x="548" 
d="M154 -230.5q-51 25.5 -83 70.5t-40 103h132q10 -35 36 -56.5t68 -21.5q48 0 78 31t30 80t-29 80t-76 31q-35 0 -62.5 -17.5t-39.5 -44.5l-96 87q21 27 47 45q-66 62 -66 149q0 56 26 101.5t72 72t103 26.5q33 0 62 -10t45 -28v32h119l-1 -185q0 -49 -14 -87t-48 -70
q41 -31 64 -79t23 -103q0 -68 -31 -121t-85.5 -82t-120.5 -29q-62 0 -113 25.5zM328.5 238q25.5 25 25.5 65q0 41 -25.5 66t-63.5 25q-39 0 -64 -25t-25 -66q0 -40 25 -65t64 -25q38 0 63.5 25z" />
    <glyph glyph-name="gbreve" unicode="&#x11f;" horiz-adv-x="548" 
d="M154 -230.5q-51 25.5 -83 70.5t-40 103h132q10 -35 36 -56.5t68 -21.5q48 0 78 31t30 80t-29 80t-76 31q-35 0 -62.5 -17.5t-39.5 -44.5l-96 87q21 27 47 45q-66 62 -66 149q0 56 26 101.5t72 72t103 26.5q33 0 62 -10t45 -28v32h119l-1 -185q0 -49 -14 -87t-48 -70
q41 -31 64 -79t23 -103q0 -68 -31 -121t-85.5 -82t-120.5 -29q-62 0 -113 25.5zM328.5 238q25.5 25 25.5 65q0 41 -25.5 66t-63.5 25q-39 0 -64 -25t-25 -66q0 -40 25 -65t64 -25q38 0 63.5 25zM180 572.5q-42 22.5 -68.5 62.5t-29.5 90h117q4 -30 22.5 -49t49.5 -19t50 19
t23 49h118q-4 -50 -30.5 -90t-69 -62.5t-91.5 -22.5t-91 22.5z" />
    <glyph glyph-name="gcircumflex" unicode="&#x11d;" horiz-adv-x="548" 
d="M154 -230.5q-51 25.5 -83 70.5t-40 103h132q10 -35 36 -56.5t68 -21.5q48 0 78 31t30 80t-29 80t-76 31q-35 0 -62.5 -17.5t-39.5 -44.5l-96 87q21 27 47 45q-66 62 -66 149q0 56 26 101.5t72 72t103 26.5q33 0 62 -10t45 -28v32h119l-1 -185q0 -49 -14 -87t-48 -70
q41 -31 64 -79t23 -103q0 -68 -31 -121t-85.5 -82t-120.5 -29q-62 0 -113 25.5zM328.5 238q25.5 25 25.5 65q0 41 -25.5 66t-63.5 25q-39 0 -64 -25t-25 -66q0 -40 25 -65t64 -25q38 0 63.5 25zM271 805l194 -193l-77 -77l-117 117l-117 -117l-76 77z" />
    <glyph glyph-name="uni0123" unicode="&#x123;" horiz-adv-x="548" 
d="M154 -230.5q-51 25.5 -83 70.5t-40 103h132q10 -35 36 -56.5t68 -21.5q48 0 78 31t30 80t-29 80t-76 31q-35 0 -62.5 -17.5t-39.5 -44.5l-96 87q21 27 47 45q-66 62 -66 149q0 56 26 101.5t72 72t103 26.5q33 0 62 -10t45 -28v32h119l-1 -185q0 -49 -14 -87t-48 -70
q41 -31 64 -79t23 -103q0 -68 -31 -121t-85.5 -82t-120.5 -29q-62 0 -113 25.5zM328.5 238q25.5 25 25.5 65q0 41 -25.5 66t-63.5 25q-39 0 -64 -25t-25 -66q0 -40 25 -65t64 -25q38 0 63.5 25zM397 671l-78 -129h-141l111 192z" />
    <glyph glyph-name="gdotaccent" unicode="&#x121;" horiz-adv-x="548" 
d="M154 -230.5q-51 25.5 -83 70.5t-40 103h132q10 -35 36 -56.5t68 -21.5q48 0 78 31t30 80t-29 80t-76 31q-35 0 -62.5 -17.5t-39.5 -44.5l-96 87q21 27 47 45q-66 62 -66 149q0 56 26 101.5t72 72t103 26.5q33 0 62 -10t45 -28v32h119l-1 -185q0 -49 -14 -87t-48 -70
q41 -31 64 -79t23 -103q0 -68 -31 -121t-85.5 -82t-120.5 -29q-62 0 -113 25.5zM328.5 238q25.5 25 25.5 65q0 41 -25.5 66t-63.5 25q-39 0 -64 -25t-25 -66q0 -40 25 -65t64 -25q38 0 63.5 25zM211.5 576.5q-24.5 24.5 -24.5 59.5t24.5 59.5t58.5 24.5q35 0 60 -24.5
t25 -59.5t-25 -59.5t-60 -24.5q-34 0 -58.5 24.5z" />
    <glyph glyph-name="h" unicode="h" horiz-adv-x="570" 
d="M186 713v-264q24 26 58.5 41.5t77.5 15.5q89 0 142 -54t53 -152v-300h-128v270q0 115 -98 115q-48 0 -76.5 -32t-28.5 -83v-270h-128v699z" />
    <glyph glyph-name="hbar" unicode="&#x127;" horiz-adv-x="580" 
d="M10 546v99h58v54l128 14v-68h141v-99h-141v-93q50 53 133 53q90 0 144 -54t54 -152v-300h-128v270q0 55 -24 85t-74 30q-49 0 -77 -32t-28 -83v-270h-128v546h-58z" />
    <glyph glyph-name="hcircumflex" unicode="&#x125;" horiz-adv-x="570" 
d="M186 713v-264q24 26 58.5 41.5t77.5 15.5q89 0 142 -54t53 -152v-300h-128v270q0 115 -98 115q-48 0 -76.5 -32t-28.5 -83v-270h-128v699zM117 1017l194 -193l-77 -77l-117 117l-117 -117l-76 77z" />
    <glyph glyph-name="i" unicode="i" horiz-adv-x="245" 
d="M63.5 576.5q-24.5 24.5 -24.5 59.5t24.5 59.5t58.5 24.5q35 0 59.5 -24.5t24.5 -59.5t-24.5 -59.5t-59.5 -24.5q-34 0 -58.5 24.5zM187 500v-500h-128v500h128z" />
    <glyph glyph-name="dotlessi" unicode="&#x131;" horiz-adv-x="244" 
d="M186 500v-500h-128v500h128z" />
    <glyph glyph-name="iacute" unicode="&#xed;" horiz-adv-x="244" 
d="M186 500v-500h-128v500h128zM281 764l51 -104l-241 -113l-51 104z" />
    <glyph glyph-name="ibreve" unicode="&#x12d;" horiz-adv-x="244" 
d="M186 500v-500h-128v500h128zM31 572.5q-42 22.5 -68.5 62.5t-29.5 90h117q4 -30 22.5 -49t49.5 -19t50 19t23 49h118q-4 -50 -30.5 -90t-69 -62.5t-91.5 -22.5t-91 22.5z" />
    <glyph glyph-name="icircumflex" unicode="&#xee;" horiz-adv-x="244" 
d="M186 500v-500h-128v500h128zM122 805l194 -193l-77 -77l-117 117l-117 -117l-76 77z" />
    <glyph glyph-name="idieresis" unicode="&#xef;" horiz-adv-x="244" 
d="M186 500v-500h-128v500h128zM-56.5 579q-23.5 24 -23.5 58t23.5 58t57.5 24t58 -24t24 -58t-24 -58t-58 -24t-57.5 24zM183.5 579q-23.5 24 -23.5 58t23.5 58t57.5 24t58 -24t24 -58t-24 -58t-58 -24t-57.5 24z" />
    <glyph glyph-name="i.loclTRK" horiz-adv-x="244" 
d="M186 500v-500h-128v500h128zM63.5 576.5q-24.5 24.5 -24.5 59.5t24.5 59.5t58.5 24.5q35 0 60 -24.5t25 -59.5t-25 -59.5t-60 -24.5q-34 0 -58.5 24.5z" />
    <glyph glyph-name="igrave" unicode="&#xec;" horiz-adv-x="244" 
d="M186 500v-500h-128v500h128zM-36 764l241 -113l-51 -104l-241 113z" />
    <glyph glyph-name="ij" unicode="&#x133;" horiz-adv-x="574" 
d="M63.5 576.5q-24.5 24.5 -24.5 59.5t24.5 59.5t58.5 24.5q35 0 59.5 -24.5t24.5 -59.5t-24.5 -59.5t-59.5 -24.5q-34 0 -58.5 24.5zM393 576.5q-24 24.5 -24 59.5t24 59.5t59 24.5t59 -24.5t24 -59.5t-24 -59.5t-59 -24.5t-59 24.5zM287 -6q-70 0 -121.5 30t-79 83.5
t-27.5 123.5v269h128v-266q0 -56 26 -86.5t74 -30.5q45 0 73 30t28 76v277h128v-750l-128 -12v285q-39 -29 -101 -29z" />
    <glyph glyph-name="imacron" unicode="&#x12b;" horiz-adv-x="244" 
d="M186 500v-500h-128v500h128zM279 694v-112h-315v112h315z" />
    <glyph glyph-name="iogonek" unicode="&#x12f;" horiz-adv-x="244" 
d="M186 500v-500h-128v500h128zM63.5 576.5q-24.5 24.5 -24.5 59.5t24.5 59.5t58.5 24.5q35 0 60 -24.5t25 -59.5t-25 -59.5t-60 -24.5q-34 0 -58.5 24.5zM70.5 -218.5q-35.5 31.5 -35.5 81.5q0 27 16 63l30 74h105l-36 -88q-1 -3 -6 -14.5t-5 -21.5q0 -28 35 -28h22v-98
h-32q-58 0 -93.5 31.5z" />
    <glyph glyph-name="itilde" unicode="&#x129;" horiz-adv-x="244" 
d="M186 500v-500h-128v500h128zM-35 696q29 33 78 33q26 0 46 -8t40 -25l19 -14q3 -3 11.5 -9.5t14 -9.5t11.5 -3q19 0 19 23v46h103v-51q0 -60 -29 -93t-78 -33q-26 0 -46 8t-40 25l-18 15q-4 3 -12.5 10t-14 9.5t-10.5 2.5q-10 0 -15 -6t-5 -17v-47h-103v51q0 60 29 93z
" />
    <glyph glyph-name="j" unicode="j" horiz-adv-x="245" 
d="M63.5 576.5q-24.5 24.5 -24.5 59.5t24.5 59.5t58.5 24.5q35 0 59.5 -24.5t24.5 -59.5t-24.5 -59.5t-59.5 -24.5q-34 0 -58.5 24.5zM187 500v-750l-128 -12v762h128z" />
    <glyph glyph-name="uni0237" unicode="&#x237;" horiz-adv-x="244" 
d="M186 500v-750l-128 -12v762h128z" />
    <glyph glyph-name="jcircumflex" unicode="&#x135;" horiz-adv-x="244" 
d="M186 500v-750l-128 -12v762h128zM122 805l194 -193l-77 -77l-117 117l-117 -117l-76 77z" />
    <glyph glyph-name="k" unicode="k" horiz-adv-x="536" 
d="M186 713v-373l108 160h144l-111 -158l203 -342h-145l-137 231l-62 -89v-142h-128v699z" />
    <glyph glyph-name="uni0137" unicode="&#x137;" horiz-adv-x="536" 
d="M186 713v-373l108 160h144l-111 -158l203 -342h-145l-137 231l-62 -89v-142h-128v699zM208 -42h138l-139 -237l-105 60z" />
    <glyph glyph-name="kgreenlandic" unicode="&#x138;" horiz-adv-x="533" 
d="M184 500v-162l109 162h143l-111 -159l202 -341h-144l-136 230l-63 -88v-142h-126v500h126z" />
    <glyph glyph-name="l" unicode="l" horiz-adv-x="244" 
d="M186 713v-713h-128v699z" />
    <glyph glyph-name="lacute" unicode="&#x13a;" horiz-adv-x="244" 
d="M186 713v-713h-128v699zM281 976l51 -104l-241 -113l-51 104z" />
    <glyph glyph-name="lcaron" unicode="&#x13e;" horiz-adv-x="478" 
d="M186 713v-713h-128v699zM342 700h137l-138 -236l-104 60z" />
    <glyph glyph-name="uni013C" unicode="&#x13c;" horiz-adv-x="244" 
d="M186 713v-713h-128v699zM51 -42h138l-139 -237l-105 60z" />
    <glyph glyph-name="ldot" unicode="&#x140;" horiz-adv-x="459" 
d="M186 0h-128v699l128 14v-713zM279.5 298q-23.5 24 -23.5 58t23.5 58t57.5 24t57.5 -24t23.5 -58t-23.5 -58t-57.5 -24t-57.5 24z" />
    <glyph glyph-name="lslash" unicode="&#x142;" horiz-adv-x="396" 
d="M259 316v-316h-128v270l-77 -28l-38 108l115 42v307l128 14v-275l83 30l38 -108z" />
    <glyph glyph-name="m" unicode="m" horiz-adv-x="817" 
d="M187 500v-50q22 26 55 41t72 15q83 0 126 -64q60 64 151 64q81 0 127 -47t46 -139v-320h-128v292q0 45 -20.5 69t-59.5 24q-36 0 -58.5 -25t-22.5 -68v-292h-128v292q0 45 -20.5 69t-59.5 24q-35 0 -58 -25t-23 -68v-292h-128v500h129z" />
    <glyph glyph-name="n" unicode="n" horiz-adv-x="566" 
d="M186 500v-47q21 23 54 38t77 15q91 0 143.5 -53.5t52.5 -152.5v-300h-128v270q0 115 -95 115q-50 0 -77 -31.5t-27 -83.5v-270h-128v500h128z" />
    <glyph glyph-name="nacute" unicode="&#x144;" horiz-adv-x="566" 
d="M186 500v-47q21 23 54 38t77 15q91 0 143.5 -53.5t52.5 -152.5v-300h-128v270q0 115 -95 115q-50 0 -77 -31.5t-27 -83.5v-270h-128v500h128zM449 764l51 -104l-241 -113l-51 104z" />
    <glyph glyph-name="ncaron" unicode="&#x148;" horiz-adv-x="566" 
d="M186 500v-47q21 23 54 38t77 15q91 0 143.5 -53.5t52.5 -152.5v-300h-128v270q0 115 -95 115q-50 0 -77 -31.5t-27 -83.5v-270h-128v500h128zM174 805l117 -117l117 117l77 -77l-194 -193l-193 193z" />
    <glyph glyph-name="uni0146" unicode="&#x146;" horiz-adv-x="566" 
d="M186 500v-47q21 23 54 38t77 15q91 0 143.5 -53.5t52.5 -152.5v-300h-128v270q0 115 -95 115q-50 0 -77 -31.5t-27 -83.5v-270h-128v500h128zM221 -42h138l-139 -237l-105 60z" />
    <glyph glyph-name="eng" unicode="&#x14b;" horiz-adv-x="566" 
d="M239.5 -233.5q-41.5 22.5 -64.5 62.5t-23 90h128q1 -26 15 -40t37 -14q24 0 38.5 16t14.5 46v343q0 58 -24 86.5t-74 28.5q-48 0 -74.5 -31.5t-26.5 -83.5v-270h-128v500h128v-51q21 25 54.5 41t77.5 16q91 0 143 -53.5t52 -152.5v-375q0 -52 -23 -93.5t-64 -64.5
t-93 -23t-93.5 22.5z" />
    <glyph glyph-name="ntilde" unicode="&#xf1;" horiz-adv-x="566" 
d="M186 500v-47q21 23 54 38t77 15q91 0 143.5 -53.5t52.5 -152.5v-300h-128v270q0 115 -95 115q-50 0 -77 -31.5t-27 -83.5v-270h-128v500h128zM134 696q29 33 78 33q26 0 46 -8t40 -25l19 -14q3 -3 11.5 -9.5t14 -9.5t11.5 -3q19 0 19 23v46h103v-51q0 -60 -29 -93
t-78 -33q-26 0 -46 8t-40 25l-18 15q-4 3 -12.5 10t-14 9.5t-10.5 2.5q-10 0 -15 -6t-5 -17v-47h-103v51q0 60 29 93z" />
    <glyph glyph-name="o" unicode="o" horiz-adv-x="588" 
d="M162 27.5q-59 33.5 -92 92t-33 130.5t33 130.5t92 92t132 33.5t132 -33.5t92 -92t33 -130.5t-33 -130.5t-92 -92t-132 -33.5t-132 33.5zM386.5 154q35.5 37 35.5 96t-35.5 96.5t-92.5 37.5t-92.5 -37.5t-35.5 -96.5t35.5 -96t92.5 -37t92.5 37z" />
    <glyph glyph-name="oacute" unicode="&#xf3;" horiz-adv-x="588" 
d="M162 27.5q-59 33.5 -92 92t-33 130.5t33 130.5t92 92t132 33.5t132 -33.5t92 -92t33 -130.5t-33 -130.5t-92 -92t-132 -33.5t-132 33.5zM386.5 154q35.5 37 35.5 96t-35.5 96.5t-92.5 37.5t-92.5 -37.5t-35.5 -96.5t35.5 -96t92.5 -37t92.5 37zM453 764l51 -104
l-241 -113l-51 104z" />
    <glyph glyph-name="obreve" unicode="&#x14f;" horiz-adv-x="588" 
d="M162 27.5q-59 33.5 -92 92t-33 130.5t33 130.5t92 92t132 33.5t132 -33.5t92 -92t33 -130.5t-33 -130.5t-92 -92t-132 -33.5t-132 33.5zM386.5 154q35.5 37 35.5 96t-35.5 96.5t-92.5 37.5t-92.5 -37.5t-35.5 -96.5t35.5 -96t92.5 -37t92.5 37zM204 572.5
q-42 22.5 -68.5 62.5t-29.5 90h117q4 -30 22.5 -49t49.5 -19t50 19t23 49h118q-4 -50 -30.5 -90t-69 -62.5t-91.5 -22.5t-91 22.5z" />
    <glyph glyph-name="ocircumflex" unicode="&#xf4;" horiz-adv-x="588" 
d="M162 27.5q-59 33.5 -92 92t-33 130.5t33 130.5t92 92t132 33.5t132 -33.5t92 -92t33 -130.5t-33 -130.5t-92 -92t-132 -33.5t-132 33.5zM386.5 154q35.5 37 35.5 96t-35.5 96.5t-92.5 37.5t-92.5 -37.5t-35.5 -96.5t35.5 -96t92.5 -37t92.5 37zM295 805l194 -193l-77 -77
l-117 117l-117 -117l-76 77z" />
    <glyph glyph-name="odieresis" unicode="&#xf6;" horiz-adv-x="588" 
d="M162 27.5q-59 33.5 -92 92t-33 130.5t33 130.5t92 92t132 33.5t132 -33.5t92 -92t33 -130.5t-33 -130.5t-92 -92t-132 -33.5t-132 33.5zM386.5 154q35.5 37 35.5 96t-35.5 96.5t-92.5 37.5t-92.5 -37.5t-35.5 -96.5t35.5 -96t92.5 -37t92.5 37zM116.5 579
q-23.5 24 -23.5 58t23.5 58t57.5 24t58 -24t24 -58t-24 -58t-58 -24t-57.5 24zM356.5 579q-23.5 24 -23.5 58t23.5 58t57.5 24t58 -24t24 -58t-24 -58t-58 -24t-57.5 24z" />
    <glyph glyph-name="ograve" unicode="&#xf2;" horiz-adv-x="588" 
d="M162 27.5q-59 33.5 -92 92t-33 130.5t33 130.5t92 92t132 33.5t132 -33.5t92 -92t33 -130.5t-33 -130.5t-92 -92t-132 -33.5t-132 33.5zM386.5 154q35.5 37 35.5 96t-35.5 96.5t-92.5 37.5t-92.5 -37.5t-35.5 -96.5t35.5 -96t92.5 -37t92.5 37zM137 764l241 -113
l-51 -104l-241 113z" />
    <glyph glyph-name="ohungarumlaut" unicode="&#x151;" horiz-adv-x="588" 
d="M162 27.5q-59 33.5 -92 92t-33 130.5t33 130.5t92 92t132 33.5t132 -33.5t92 -92t33 -130.5t-33 -130.5t-92 -92t-132 -33.5t-132 33.5zM386.5 154q35.5 37 35.5 96t-35.5 96.5t-92.5 37.5t-92.5 -37.5t-35.5 -96.5t35.5 -96t92.5 -37t92.5 37zM250 795l69 -88l-210 -162
l-70 89zM494 795l69 -88l-210 -162l-70 89z" />
    <glyph glyph-name="omacron" unicode="&#x14d;" horiz-adv-x="588" 
d="M162 27.5q-59 33.5 -92 92t-33 130.5t33 130.5t92 92t132 33.5t132 -33.5t92 -92t33 -130.5t-33 -130.5t-92 -92t-132 -33.5t-132 33.5zM386.5 154q35.5 37 35.5 96t-35.5 96.5t-92.5 37.5t-92.5 -37.5t-35.5 -96.5t35.5 -96t92.5 -37t92.5 37zM451 694v-112h-315v112
h315z" />
    <glyph glyph-name="oslash" unicode="&#xf8;" horiz-adv-x="589" 
d="M523 373q29 -56 29 -123q0 -72 -33 -130.5t-92 -92t-132 -33.5q-29 0 -50 4l-20 -47l-97 41l19 45q-52 34 -81 90t-29 123q0 72 33 130.5t92 92t133 33.5q28 0 49 -4l20 47l97 -41l-19 -45q52 -34 81 -90zM195 149l102 243h-2q-61 0 -99 -39.5t-38 -102.5q0 -62 37 -101z
M393 147.5q38 39.5 38 102.5q0 62 -37 101l-102 -243h3q60 0 98 39.5z" />
    <glyph glyph-name="otilde" unicode="&#xf5;" horiz-adv-x="588" 
d="M162 27.5q-59 33.5 -92 92t-33 130.5t33 130.5t92 92t132 33.5t132 -33.5t92 -92t33 -130.5t-33 -130.5t-92 -92t-132 -33.5t-132 33.5zM386.5 154q35.5 37 35.5 96t-35.5 96.5t-92.5 37.5t-92.5 -37.5t-35.5 -96.5t35.5 -96t92.5 -37t92.5 37zM138 696q29 33 78 33
q26 0 46 -8t40 -25l19 -14q3 -3 11.5 -9.5t14 -9.5t11.5 -3q19 0 19 23v46h103v-51q0 -60 -29 -93t-78 -33q-26 0 -46 8t-40 25l-18 15q-4 3 -12.5 10t-14 9.5t-10.5 2.5q-10 0 -15 -6t-5 -17v-47h-103v51q0 60 29 93z" />
    <glyph glyph-name="oe" unicode="&#x153;" horiz-adv-x="963" 
d="M161 27.5q-58 33.5 -91 92t-33 130.5t33 130.5t91 92t131 33.5q59 0 109 -22.5t84 -64.5q35 42 83.5 64.5t105.5 22.5q72 0 129.5 -35t90 -93t32.5 -125q0 -15 -2 -39h-371q7 -44 41.5 -74.5t82.5 -30.5q34 0 60 11.5t38 34.5h145q-24 -73 -90 -117t-152 -44
q-58 0 -107.5 22.5t-85.5 64.5q-34 -42 -84 -64.5t-109 -22.5q-73 0 -131 33.5zM747 370.5q-32 24.5 -73 24.5q-42 0 -74 -24t-43 -62h232q-10 37 -42 61.5zM385 154q35 37 35 96t-35 96.5t-92 37.5q-56 0 -91 -37.5t-35 -96.5t35 -96t91 -37q57 0 92 37z" />
    <glyph glyph-name="p" unicode="p" horiz-adv-x="616" 
d="M186 500v-47q25 23 61.5 38t80.5 15q72 0 129.5 -32t89.5 -90.5t32 -133.5t-32 -133.5t-89.5 -90.5t-129.5 -32q-44 0 -81.5 15t-60.5 39v-298l-128 -14v764h128zM414.5 152q37.5 38 37.5 98t-37.5 98t-95.5 38t-94 -37.5t-36 -98.5q0 -60 36 -98t94 -38t95.5 38z" />
    <glyph glyph-name="thorn" unicode="&#xfe;" horiz-adv-x="616" 
d="M186 713v-260q25 23 61.5 38t80.5 15q72 0 129.5 -32t89.5 -90.5t32 -133.5t-32 -133.5t-89.5 -90.5t-129.5 -32q-44 0 -81.5 15t-60.5 39v-298l-128 -14v963zM414.5 152q37.5 38 37.5 98t-37.5 98t-95.5 38t-94 -37.5t-36 -98.5q0 -60 36 -98t94 -38t95.5 38z" />
    <glyph glyph-name="q" unicode="q" horiz-adv-x="616" 
d="M369.5 9q-37.5 -15 -81.5 -15q-72 0 -129.5 32t-89.5 90.5t-32 133.5t32 133.5t89.5 90.5t129.5 32q44 0 80.5 -15t61.5 -38v47h128v-750l-128 -14v312q-23 -24 -60.5 -39zM391 152q36 38 36 98q0 61 -36 98.5t-94 37.5t-95.5 -38t-37.5 -98t37.5 -98t95.5 -38t94 38z
" />
    <glyph glyph-name="r" unicode="r" horiz-adv-x="369" 
d="M186 500v-66q14 32 44 52t73 20q28 0 44 -6v-127q-18 8 -46 8q-51 0 -83 -33t-32 -91v-257h-128v500h128z" />
    <glyph glyph-name="racute" unicode="&#x155;" horiz-adv-x="369" 
d="M186 500v-66q14 32 44 52t73 20q28 0 44 -6v-127q-18 8 -46 8q-51 0 -83 -33t-32 -91v-257h-128v500h128zM348 764l51 -104l-241 -113l-51 104z" />
    <glyph glyph-name="rcaron" unicode="&#x159;" horiz-adv-x="369" 
d="M186 500v-66q14 32 44 52t73 20q28 0 44 -6v-127q-18 8 -46 8q-51 0 -83 -33t-32 -91v-257h-128v500h128zM73 805l117 -117l117 117l77 -77l-194 -193l-193 193z" />
    <glyph glyph-name="uni0157" unicode="&#x157;" horiz-adv-x="369" 
d="M186 500v-66q14 32 44 52t73 20q28 0 44 -6v-127q-18 8 -46 8q-51 0 -83 -33t-32 -91v-257h-128v500h128zM48 -42h138l-139 -237l-105 60z" />
    <glyph glyph-name="s" unicode="s" horiz-adv-x="423" 
d="M119 17q-41 23 -63.5 63t-22.5 89h122q-1 -27 16 -43.5t41 -16.5q25 0 40 14t15 38q0 21 -11 32.5t-23.5 16t-49.5 13.5q-53 12 -86.5 47t-33.5 93q0 62 42.5 102.5t106.5 40.5q40 0 72.5 -16.5t55.5 -47.5l-78 -75q-7 14 -18.5 22.5t-24.5 8.5q-16 0 -25.5 -9t-9.5 -22
q0 -20 15 -28.5t49 -16.5q27 -7 35 -10q107 -35 107 -147q0 -76 -50 -123.5t-128 -47.5q-52 0 -93 23z" />
    <glyph glyph-name="sacute" unicode="&#x15b;" horiz-adv-x="423" 
d="M119 17q-41 23 -63.5 63t-22.5 89h122q-1 -27 16 -43.5t41 -16.5q25 0 40 14t15 38q0 21 -11 32.5t-23.5 16t-49.5 13.5q-53 12 -86.5 47t-33.5 93q0 62 42.5 102.5t106.5 40.5q40 0 72.5 -16.5t55.5 -47.5l-78 -75q-7 14 -18.5 22.5t-24.5 8.5q-16 0 -25.5 -9t-9.5 -22
q0 -20 15 -28.5t49 -16.5q27 -7 35 -10q107 -35 107 -147q0 -76 -50 -123.5t-128 -47.5q-52 0 -93 23zM372 764l51 -104l-241 -113l-51 104z" />
    <glyph glyph-name="scaron" unicode="&#x161;" horiz-adv-x="423" 
d="M119 17q-41 23 -63.5 63t-22.5 89h122q-1 -27 16 -43.5t41 -16.5q25 0 40 14t15 38q0 21 -11 32.5t-23.5 16t-49.5 13.5q-53 12 -86.5 47t-33.5 93q0 62 42.5 102.5t106.5 40.5q40 0 72.5 -16.5t55.5 -47.5l-78 -75q-7 14 -18.5 22.5t-24.5 8.5q-16 0 -25.5 -9t-9.5 -22
q0 -20 15 -28.5t49 -16.5q27 -7 35 -10q107 -35 107 -147q0 -76 -50 -123.5t-128 -47.5q-52 0 -93 23zM97 805l117 -117l117 117l77 -77l-194 -193l-193 193z" />
    <glyph glyph-name="scedilla" unicode="&#x15f;" horiz-adv-x="423" 
d="M352.5 54.5q-37.5 -45.5 -99.5 -56.5l-21 -37q33 -8 53.5 -33.5t20.5 -67.5q0 -48 -34 -82t-82 -34q-47 0 -81 34t-35 81h88q0 -13 8 -20.5t20 -7.5t20 7.5t8 20.5q0 14 -8.5 23t-24.5 9h-81l63 108q-61 13 -98 60t-36 110h122q-1 -27 16 -43.5t41 -16.5q25 0 40 14
t15 38q0 21 -11 32.5t-23.5 16t-49.5 13.5q-53 12 -86.5 47t-33.5 93q0 62 42.5 102.5t106.5 40.5q40 0 72.5 -16.5t55.5 -47.5l-78 -75q-7 14 -18.5 22.5t-24.5 8.5q-16 0 -25.5 -9t-9.5 -22q0 -20 15 -28.5t49 -16.5q27 -7 35 -10q107 -35 107 -147q0 -65 -37.5 -110.5z
" />
    <glyph glyph-name="scircumflex" unicode="&#x15d;" horiz-adv-x="423" 
d="M119 17q-41 23 -63.5 63t-22.5 89h122q-1 -27 16 -43.5t41 -16.5q25 0 40 14t15 38q0 21 -11 32.5t-23.5 16t-49.5 13.5q-53 12 -86.5 47t-33.5 93q0 62 42.5 102.5t106.5 40.5q40 0 72.5 -16.5t55.5 -47.5l-78 -75q-7 14 -18.5 22.5t-24.5 8.5q-16 0 -25.5 -9t-9.5 -22
q0 -20 15 -28.5t49 -16.5q27 -7 35 -10q107 -35 107 -147q0 -76 -50 -123.5t-128 -47.5q-52 0 -93 23zM214 805l194 -193l-77 -77l-117 117l-117 -117l-76 77z" />
    <glyph glyph-name="uni0219" unicode="&#x219;" horiz-adv-x="423" 
d="M119 17q-41 23 -63.5 63t-22.5 89h122q-1 -27 16 -43.5t41 -16.5q25 0 40 14t15 38q0 21 -11 32.5t-23.5 16t-49.5 13.5q-53 12 -86.5 47t-33.5 93q0 62 42.5 102.5t106.5 40.5q40 0 72.5 -16.5t55.5 -47.5l-78 -75q-7 14 -18.5 22.5t-24.5 8.5q-16 0 -25.5 -9t-9.5 -22
q0 -20 15 -28.5t49 -16.5q27 -7 35 -10q107 -35 107 -147q0 -76 -50 -123.5t-128 -47.5q-52 0 -93 23zM145 -42h138l-139 -237l-105 60z" />
    <glyph glyph-name="germandbls" unicode="&#xdf;" horiz-adv-x="541" 
d="M84 609.5q26 44.5 72.5 70.5t106.5 26q62 0 107.5 -24t69.5 -66.5t24 -97.5q0 -78 -58 -125q44 -26 71 -71t27 -105q0 -104 -62.5 -160.5t-168.5 -56.5h-37v119h31q50 0 80 27.5t30 73.5q0 45 -30 72.5t-80 27.5h-31v118h30q32 0 52 19.5t20 53.5q0 35 -21.5 54.5
t-53.5 19.5q-33 0 -55 -21t-22 -56v-758l-128 -14v775q0 54 26 98.5z" />
    <glyph glyph-name="longs" unicode="&#x17f;" horiz-adv-x="419" 
d="M14 381v119h95v60q0 69 45 107.5t112 38.5q92 0 131 -58l-81 -79q-7 11 -16 17t-24 6q-19 0 -29 -11.5t-10 -27.5v-553h-128v381h-95z" />
    <glyph glyph-name="t" unicode="t" horiz-adv-x="423" 
d="M26 381v119h101v199l128 14v-213h148v-119h-148v-381h-128v381h-101z" />
    <glyph glyph-name="tbar" unicode="&#x167;" horiz-adv-x="423" 
d="M255 381v-53h129v-99h-129v-229h-128v229h-101v99h101v53h-101v119h101v199l128 14v-213h148v-119h-148z" />
    <glyph glyph-name="tcaron" unicode="&#x165;" horiz-adv-x="555" 
d="M26 381v119h101v199l128 14v-213h148v-119h-148v-381h-128v381h-101zM419 777h137l-138 -236l-104 60z" />
    <glyph glyph-name="uni0163" unicode="&#x163;" horiz-adv-x="423" 
d="M26 381v119h101v199l128 14v-213h148v-119h-148v-381h-128v381h-101zM104 -222q-34 34 -35 81h88q0 -13 8 -20.5t20 -7.5t20 7.5t8 20.5q0 14 -9 23t-24 9h-81l64 109h86l-22 -39q33 -8 54 -33.5t21 -67.5q0 -48 -34.5 -82t-82.5 -34q-47 0 -81 34z" />
    <glyph glyph-name="uni021B" unicode="&#x21b;" horiz-adv-x="423" 
d="M26 381v119h101v199l128 14v-213h148v-119h-148v-381h-128v381h-101zM120 -42h138l-139 -237l-105 60z" />
    <glyph glyph-name="u" unicode="u" horiz-adv-x="566" 
d="M105.5 48q-52.5 54 -52.5 152v300h128v-269q0 -115 97 -115q49 0 75.5 31.5t26.5 83.5v269h128v-500h-128v47q-20 -23 -53.5 -38t-77.5 -15q-91 0 -143.5 54z" />
    <glyph glyph-name="uacute" unicode="&#xfa;" horiz-adv-x="566" 
d="M105.5 48q-52.5 54 -52.5 152v300h128v-269q0 -115 97 -115q49 0 75.5 31.5t26.5 83.5v269h128v-500h-128v47q-20 -23 -53.5 -38t-77.5 -15q-91 0 -143.5 54zM441 764l51 -104l-241 -113l-51 104z" />
    <glyph glyph-name="ubreve" unicode="&#x16d;" horiz-adv-x="566" 
d="M105.5 48q-52.5 54 -52.5 152v300h128v-269q0 -115 97 -115q49 0 75.5 31.5t26.5 83.5v269h128v-500h-128v47q-20 -23 -53.5 -38t-77.5 -15q-91 0 -143.5 54zM192 572.5q-42 22.5 -68.5 62.5t-29.5 90h117q4 -30 22.5 -49t49.5 -19t50 19t23 49h118q-4 -50 -30.5 -90
t-69 -62.5t-91.5 -22.5t-91 22.5z" />
    <glyph glyph-name="ucircumflex" unicode="&#xfb;" horiz-adv-x="566" 
d="M105.5 48q-52.5 54 -52.5 152v300h128v-269q0 -115 97 -115q49 0 75.5 31.5t26.5 83.5v269h128v-500h-128v47q-20 -23 -53.5 -38t-77.5 -15q-91 0 -143.5 54zM283 805l194 -193l-77 -77l-117 117l-117 -117l-76 77z" />
    <glyph glyph-name="udieresis" unicode="&#xfc;" horiz-adv-x="566" 
d="M105.5 48q-52.5 54 -52.5 152v300h128v-269q0 -115 97 -115q49 0 75.5 31.5t26.5 83.5v269h128v-500h-128v47q-20 -23 -53.5 -38t-77.5 -15q-91 0 -143.5 54zM104.5 579q-23.5 24 -23.5 58t23.5 58t57.5 24t58 -24t24 -58t-24 -58t-58 -24t-57.5 24zM344.5 579
q-23.5 24 -23.5 58t23.5 58t57.5 24t58 -24t24 -58t-24 -58t-58 -24t-57.5 24z" />
    <glyph glyph-name="ugrave" unicode="&#xf9;" horiz-adv-x="566" 
d="M105.5 48q-52.5 54 -52.5 152v300h128v-269q0 -115 97 -115q49 0 75.5 31.5t26.5 83.5v269h128v-500h-128v47q-20 -23 -53.5 -38t-77.5 -15q-91 0 -143.5 54zM125 764l241 -113l-51 -104l-241 113z" />
    <glyph glyph-name="uhungarumlaut" unicode="&#x171;" horiz-adv-x="566" 
d="M105.5 48q-52.5 54 -52.5 152v300h128v-269q0 -115 97 -115q49 0 75.5 31.5t26.5 83.5v269h128v-500h-128v47q-20 -23 -53.5 -38t-77.5 -15q-91 0 -143.5 54zM239 795l69 -88l-210 -162l-70 89zM483 795l69 -88l-210 -162l-70 89z" />
    <glyph glyph-name="umacron" unicode="&#x16b;" horiz-adv-x="566" 
d="M105.5 48q-52.5 54 -52.5 152v300h128v-269q0 -115 97 -115q49 0 75.5 31.5t26.5 83.5v269h128v-500h-128v47q-20 -23 -53.5 -38t-77.5 -15q-91 0 -143.5 54zM440 694v-112h-315v112h315z" />
    <glyph glyph-name="uogonek" unicode="&#x173;" horiz-adv-x="566" 
d="M519 -152v-98h-32q-58 0 -93.5 31.5t-35.5 81.5q0 27 16 63l30 74h-24v47q-20 -23 -53.5 -38t-77.5 -15q-91 0 -143.5 54t-52.5 152v300h128v-269q0 -115 97 -115q49 0 75.5 31.5t26.5 83.5v269h128v-500h1l-36 -88q-1 -3 -6 -14.5t-5 -21.5q0 -28 35 -28h22z" />
    <glyph glyph-name="uring" unicode="&#x16f;" horiz-adv-x="566" 
d="M105.5 48q-52.5 54 -52.5 152v300h128v-269q0 -115 97 -115q49 0 75.5 31.5t26.5 83.5v269h128v-500h-128v47q-20 -23 -53.5 -38t-77.5 -15q-91 0 -143.5 54zM208 581q-31 31 -31 76q0 44 31 75t76 31t76 -31t31 -75t-31 -75.5t-76 -31.5t-76 31zM304 636q8 8 8 21
q0 12 -8 20t-20 8q-13 0 -21 -8t-8 -20q0 -13 8 -21t21 -8q12 0 20 8z" />
    <glyph glyph-name="utilde" unicode="&#x169;" horiz-adv-x="566" 
d="M105.5 48q-52.5 54 -52.5 152v300h128v-269q0 -115 97 -115q49 0 75.5 31.5t26.5 83.5v269h128v-500h-128v47q-20 -23 -53.5 -38t-77.5 -15q-91 0 -143.5 54zM126 696q29 33 78 33q26 0 46 -8t40 -25l19 -14q3 -3 11.5 -9.5t14 -9.5t11.5 -3q19 0 19 23v46h103v-51
q0 -60 -29 -93t-78 -33q-26 0 -46 8t-40 25l-18 15q-4 3 -12.5 10t-14 9.5t-10.5 2.5q-10 0 -15 -6t-5 -17v-47h-103v51q0 60 29 93z" />
    <glyph glyph-name="v" unicode="v" horiz-adv-x="538" 
d="M157 500l112 -323l113 323h135l-184 -500h-128l-184 500h136z" />
    <glyph glyph-name="w" unicode="w" horiz-adv-x="754" 
d="M151 500l129 -349l36 106l-91 243h119l33 -101l32 101h120l-91 -243l36 -106l128 349h131l-198 -500h-118l-40 115l-40 -115h-118l-198 500h130z" />
    <glyph glyph-name="wacute" unicode="&#x1e83;" horiz-adv-x="754" 
d="M151 500l129 -349l36 106l-91 243h119l33 -101l32 101h120l-91 -243l36 -106l128 349h131l-198 -500h-118l-40 115l-40 -115h-118l-198 500h130zM535 764l51 -104l-241 -113l-51 104z" />
    <glyph glyph-name="wcircumflex" unicode="&#x175;" horiz-adv-x="754" 
d="M151 500l129 -349l36 106l-91 243h119l33 -101l32 101h120l-91 -243l36 -106l128 349h131l-198 -500h-118l-40 115l-40 -115h-118l-198 500h130zM377 805l194 -193l-77 -77l-117 117l-117 -117l-76 77z" />
    <glyph glyph-name="wdieresis" unicode="&#x1e85;" horiz-adv-x="754" 
d="M151 500l129 -349l36 106l-91 243h119l33 -101l32 101h120l-91 -243l36 -106l128 349h131l-198 -500h-118l-40 115l-40 -115h-118l-198 500h130zM198.5 579q-23.5 24 -23.5 58t23.5 58t57.5 24t58 -24t24 -58t-24 -58t-58 -24t-57.5 24zM438.5 579q-23.5 24 -23.5 58
t23.5 58t57.5 24t58 -24t24 -58t-24 -58t-58 -24t-57.5 24z" />
    <glyph glyph-name="wgrave" unicode="&#x1e81;" horiz-adv-x="754" 
d="M151 500l129 -349l36 106l-91 243h119l33 -101l32 101h120l-91 -243l36 -106l128 349h131l-198 -500h-118l-40 115l-40 -115h-118l-198 500h130zM219 764l241 -113l-51 -104l-241 113z" />
    <glyph glyph-name="x" unicode="x" horiz-adv-x="530" 
d="M64 500h142l59 -98l60 98h141l-134 -209l184 -291h-141l-110 179l-110 -179h-141l184 291z" />
    <glyph glyph-name="y" unicode="y" horiz-adv-x="536" 
d="M21 500h132l115 -269l115 269h132l-183 -411v-338l-128 -14v352z" />
    <glyph glyph-name="yacute" unicode="&#xfd;" horiz-adv-x="536" 
d="M21 500h132l115 -269l115 269h132l-183 -411v-338l-128 -14v352zM427 764l51 -104l-241 -113l-51 104z" />
    <glyph glyph-name="ycircumflex" unicode="&#x177;" horiz-adv-x="536" 
d="M21 500h132l115 -269l115 269h132l-183 -411v-338l-128 -14v352zM269 805l194 -193l-77 -77l-117 117l-117 -117l-76 77z" />
    <glyph glyph-name="ydieresis" unicode="&#xff;" horiz-adv-x="536" 
d="M21 500h132l115 -269l115 269h132l-183 -411v-338l-128 -14v352zM90.5 579q-23.5 24 -23.5 58t23.5 58t57.5 24t58 -24t24 -58t-24 -58t-58 -24t-57.5 24zM330.5 579q-23.5 24 -23.5 58t23.5 58t57.5 24t58 -24t24 -58t-24 -58t-58 -24t-57.5 24z" />
    <glyph glyph-name="ygrave" unicode="&#x1ef3;" horiz-adv-x="536" 
d="M21 500h132l115 -269l115 269h132l-183 -411v-338l-128 -14v352zM111 764l241 -113l-51 -104l-241 113z" />
    <glyph glyph-name="z" unicode="z" horiz-adv-x="542" 
d="M310 383h-251v117h422v-100l-268 -283h286v-117h-458v100z" />
    <glyph glyph-name="zacute" unicode="&#x17a;" horiz-adv-x="542" 
d="M310 383h-251v117h422v-100l-268 -283h286v-117h-458v100zM429 764l51 -104l-241 -113l-51 104z" />
    <glyph glyph-name="zcaron" unicode="&#x17e;" horiz-adv-x="542" 
d="M310 383h-251v117h422v-100l-268 -283h286v-117h-458v100zM154 805l117 -117l117 117l77 -77l-194 -193l-193 193z" />
    <glyph glyph-name="zdotaccent" unicode="&#x17c;" horiz-adv-x="542" 
d="M310 383h-251v117h422v-100l-268 -283h286v-117h-458v100zM211.5 576.5q-24.5 24.5 -24.5 59.5t24.5 59.5t58.5 24.5q35 0 60 -24.5t25 -59.5t-25 -59.5t-60 -24.5q-34 0 -58.5 24.5z" />
    <glyph glyph-name="uni01B6" unicode="&#x1b6;" horiz-adv-x="542" 
d="M499 117v-117h-458v100l93 98h-45v104h144l77 81h-251v117h422v-100l-93 -98h72v-104h-170l-77 -81h286z" />
    <glyph glyph-name="adieresis.ss01" horiz-adv-x="616" 
d="M160.5 27q-57.5 33 -90.5 91t-33 132t33 132t90.5 91t128.5 33q45 0 82.5 -15.5t57.5 -37.5v47h129v-500h-129v48q-19 -22 -56.5 -38t-83.5 -16q-71 0 -128.5 33zM391 151.5q37 37.5 37 98.5q0 62 -36.5 99t-93.5 37q-58 0 -96 -37t-38 -99q0 -61 38.5 -98.5t95.5 -37.5
q56 0 93 37.5zM267 713v-141h-141v141h141zM475 713v-141h-141v141h141z" />
    <glyph glyph-name="cdotaccent.ss01" horiz-adv-x="587" 
d="M163 27.5q-59 33.5 -92.5 92t-33.5 130.5q0 73 33.5 131t92.5 91.5t132 33.5q113 0 187 -79l-94 -84q-39 42 -93 42q-57 0 -93 -37.5t-36 -97.5t36 -97t93 -37t92.5 37t35.5 97h127q0 -72 -33.5 -130.5t-91.5 -92t-130 -33.5q-73 0 -132 33.5zM365 713v-141h-141v141h141
z" />
    <glyph glyph-name="edieresis.ss01" horiz-adv-x="583" 
d="M164 28q-59 34 -93 92.5t-34 129.5t33.5 129.5t92 92.5t129.5 34q72 0 130.5 -35t91 -93t32.5 -125q0 -21 -3 -39h-373q7 -44 41.5 -74.5t83.5 -30.5q34 0 60.5 11.5t39.5 34.5h144q-23 -73 -89.5 -117t-153.5 -44q-73 0 -132 34zM366.5 371q-31.5 24 -74.5 24
q-42 0 -74.5 -23.5t-42.5 -62.5h233q-10 38 -41.5 62zM258 713v-141h-141v141h141zM466 713v-141h-141v141h141z" />
    <glyph glyph-name="edotaccent.ss01" horiz-adv-x="583" 
d="M164 28q-59 34 -93 92.5t-34 129.5t33.5 129.5t92 92.5t129.5 34q72 0 130.5 -35t91 -93t32.5 -125q0 -21 -3 -39h-373q7 -44 41.5 -74.5t83.5 -30.5q34 0 60.5 11.5t39.5 34.5h144q-23 -73 -89.5 -117t-153.5 -44q-73 0 -132 34zM366.5 371q-31.5 24 -74.5 24
q-42 0 -74.5 -23.5t-42.5 -62.5h233q-10 38 -41.5 62zM362 713v-141h-141v141h141z" />
    <glyph glyph-name="gdotaccent.ss01" horiz-adv-x="548" 
d="M154 -230.5q-51 25.5 -83 70.5t-40 103h132q10 -35 36 -56.5t68 -21.5q48 0 78 31t30 80t-29 80t-76 31q-35 0 -62.5 -17.5t-39.5 -44.5l-96 87q21 27 47 45q-66 62 -66 149q0 56 26 101.5t72 72t103 26.5q33 0 62 -10t45 -28v32h119l-1 -185q0 -49 -14 -87t-48 -70
q41 -31 64 -79t23 -103q0 -68 -31 -121t-85.5 -82t-120.5 -29q-62 0 -113 25.5zM328.5 238q25.5 25 25.5 65q0 41 -25.5 66t-63.5 25q-39 0 -64 -25t-25 -66q0 -40 25 -65t64 -25q38 0 63.5 25zM341 713v-141h-141v141h141z" />
    <glyph glyph-name="i.ss01" horiz-adv-x="219" 
d="M180 712v-140h-141v140h141zM174 500v-500h-128v500h128z" />
    <glyph glyph-name="idieresis.ss01" horiz-adv-x="244" 
d="M186 500v-500h-128v500h128zM88 713v-141h-141v141h141zM296 713v-141h-141v141h141z" />
    <glyph glyph-name="i.loclTRK.ss01" horiz-adv-x="244" 
d="M186 500v-500h-128v500h128zM193 713v-141h-141v141h141z" />
    <glyph glyph-name="ij.ss01" horiz-adv-x="549" 
d="M180 712v-140h-141v140h141zM510 712v-140h-141v140h141zM274 -6q-70 0 -121.5 30t-79 83.5t-27.5 123.5v269h128v-266q0 -56 26 -86.5t74 -30.5q45 0 73 30t28 76v277h128v-750l-128 -12v285q-41 -29 -101 -29z" />
    <glyph glyph-name="iogonek.ss01" horiz-adv-x="244" 
d="M186 500v-500h-128v500h128zM193 713v-141h-141v141h141zM70.5 -218.5q-35.5 31.5 -35.5 81.5q0 27 16 63l30 74h105l-36 -88q-1 -3 -6 -14.5t-5 -21.5q0 -28 35 -28h22v-98h-32q-58 0 -93.5 31.5z" />
    <glyph glyph-name="j.ss01" horiz-adv-x="244" 
d="M186 500v-750l-128 -12v762h128zM193 713v-141h-141v141h141z" />
    <glyph glyph-name="ldot.ss01" horiz-adv-x="431" 
d="M186 713v-713h-128v699zM390 428v-141h-141v141h141z" />
    <glyph glyph-name="odieresis.ss01" horiz-adv-x="588" 
d="M162 27.5q-59 33.5 -92 92t-33 130.5t33 130.5t92 92t132 33.5t132 -33.5t92 -92t33 -130.5t-33 -130.5t-92 -92t-132 -33.5t-132 33.5zM386.5 154q35.5 37 35.5 96t-35.5 96.5t-92.5 37.5t-92.5 -37.5t-35.5 -96.5t35.5 -96t92.5 -37t92.5 37zM261 713v-141h-141v141
h141zM469 713v-141h-141v141h141z" />
    <glyph glyph-name="cdotaccent.ss03.ss01" horiz-adv-x="560" 
d="M163 27.5q-59 33.5 -92.5 92t-33.5 130.5t33.5 130.5t92.5 92t133 33.5q79 0 138 -37t89 -104l-113 -58q-14 38 -44.5 58t-70.5 20q-56 0 -92.5 -37.5t-36.5 -97.5q0 -59 36.5 -96.5t92.5 -37.5q41 0 71 19.5t44 57.5l113 -58q-30 -67 -89 -104t-138 -37q-74 0 -133 33.5
zM365 713v-141h-141v141h141z" />
    <glyph glyph-name="edieresis.ss03.ss01" horiz-adv-x="583" 
d="M165.5 28q-60.5 34 -94.5 92.5t-34 129.5t33.5 129.5t92 92.5t129.5 34q72 0 130.5 -35t91 -93t32.5 -125q0 -21 -3 -39h-373q7 -45 42.5 -75t87.5 -30q42 0 72.5 17.5t48.5 46.5l95 -76q-35 -48 -88.5 -75.5t-126.5 -27.5q-75 0 -135.5 34zM366.5 371q-31.5 24 -74.5 24
q-42 0 -74.5 -23.5t-42.5 -62.5h233q-10 38 -41.5 62zM258 713v-141h-141v141h141zM466 713v-141h-141v141h141z" />
    <glyph glyph-name="edotaccent.ss03.ss01" horiz-adv-x="583" 
d="M165.5 28q-60.5 34 -94.5 92.5t-34 129.5t33.5 129.5t92 92.5t129.5 34q72 0 130.5 -35t91 -93t32.5 -125q0 -21 -3 -39h-373q7 -45 42.5 -75t87.5 -30q42 0 72.5 17.5t48.5 46.5l95 -76q-35 -48 -88.5 -75.5t-126.5 -27.5q-75 0 -135.5 34zM366.5 371q-31.5 24 -74.5 24
q-42 0 -74.5 -23.5t-42.5 -62.5h233q-10 38 -41.5 62zM362 713v-141h-141v141h141z" />
    <glyph glyph-name="ij.ss05.ss01" horiz-adv-x="567" 
d="M199 712v-140h-141v140h141zM528 712v-140h-141v140h141zM244 -232.5q-42 23.5 -65.5 65.5t-23.5 94h128q0 -29 16 -45.5t40 -16.5t39.5 17t15.5 48v87q-41 -29 -101 -29q-70 0 -121.5 30t-79 84t-27.5 124v274h128v-272q0 -55 26 -86t74 -31q45 0 73 30.5t28 76.5v282
h128v-575q0 -52 -23.5 -93t-65 -64.5t-94.5 -23.5t-95 23.5z" />
    <glyph glyph-name="j.ss05.ss01" horiz-adv-x="279" 
d="M-60.5 -232.5q-42.5 23.5 -66 65.5t-23.5 94h128q0 -29 16.5 -45.5t40.5 -16.5t40 17t16 48v570h128v-575q0 -51 -23.5 -92.5t-65.5 -65t-95 -23.5t-95.5 23.5zM226 713v-141h-141v141h141z" />
    <glyph glyph-name="adieresis.ss06.ss01" horiz-adv-x="484" 
d="M123.5 15q-38.5 21 -61.5 59.5t-23 88.5t23.5 89.5t63.5 61t88 21.5q52 0 89 -26v17q0 29 -18 45.5t-48 16.5q-41 0 -75 -36l-70 85q26 32 67 50.5t89 18.5q86 0 134.5 -48.5t48.5 -134.5v-323h-128v28q-15 -16 -40 -25t-55 -9q-46 0 -84.5 21zM285 117q20 18 20 48
q0 31 -20 49t-49 18q-30 0 -50 -18t-20 -49q0 -30 20.5 -48t49.5 -18t49 18zM210 713v-141h-141v141h141zM418 713v-141h-141v141h141z" />
    <glyph glyph-name="edieresis.ss07.ss01" horiz-adv-x="588" 
d="M163 28q-59 34 -92.5 92.5t-33.5 129.5t33.5 129.5t92 92.5t130.5 34q89 0 153.5 -49.5t90.5 -127.5l-326 -187q36 -33 84 -33q51 0 83.5 28.5t42.5 81.5h130q-20 -106 -88 -165.5t-168 -59.5q-73 0 -132 34zM340 385q-22 9 -47 9q-56 0 -90.5 -39t-34.5 -97q0 -14 1 -20
l208 121q-15 17 -37 26zM260 713v-141h-141v141h141zM468 713v-141h-141v141h141z" />
    <glyph glyph-name="gdotaccent.ss08.ss01" horiz-adv-x="613" 
d="M175.5 -231.5q-58.5 24.5 -95 73t-37.5 117.5h130q2 -49 38.5 -73.5t86.5 -24.5q56 0 92 34.5t36 110.5v42q-21 -23 -57.5 -38.5t-83.5 -15.5q-69 0 -125.5 33t-89.5 91.5t-33 131.5t33 131.5t89.5 91.5t125.5 33q47 0 83.5 -15t57.5 -38v47h129v-503q0 -81 -34.5 -138.5
t-92 -86t-127.5 -28.5q-67 0 -125.5 24.5zM390.5 153.5q37.5 39.5 37.5 96.5q0 58 -37.5 97t-93.5 39q-37 0 -67.5 -18t-48 -49t-17.5 -69t18 -69t48.5 -49t66.5 -18q56 0 93.5 39.5zM376 713v-141h-141v141h141z" />
    <glyph glyph-name="gdotaccent.ss09.ss01" horiz-adv-x="554" 
d="M154.5 -227q-53.5 29 -85.5 82t-32 121q1 58 23.5 104.5t63.5 77.5q-32 30 -48.5 68t-16.5 80q0 56 26.5 101.5t73 72t103.5 26.5q32 0 59.5 -8.5t45.5 -23.5v26h119l-1 -185q0 -49 -14 -87t-48 -70q41 -31 64 -78.5t23 -103.5q0 -68 -31 -121t-85.5 -82t-120.5 -29
q-65 0 -118.5 29zM334.5 238q25.5 25 25.5 65q0 41 -25.5 66t-63.5 25q-39 0 -64 -25t-25 -66q0 -40 25 -65t64 -25q38 0 63.5 25zM351 -104q30 31 30 80q0 50 -29.5 80.5t-77.5 30.5q-46 0 -76 -30.5t-30 -80.5q0 -48 30 -79.5t75 -31.5q48 0 78 31zM344 713v-141h-141v141
h141z" />
    <glyph glyph-name="udieresis.ss11.ss01" horiz-adv-x="543" 
d="M109 51.5q-63 57.5 -63 164.5v284h128v-273q0 -54 26 -82.5t72 -28.5t72 28.5t26 82.5v273h128v-284q0 -107 -63 -164.5t-163 -57.5t-163 57.5zM240 713v-141h-141v141h141zM448 713v-141h-141v141h141z" />
    <glyph glyph-name="wdieresis.ss12.ss01" horiz-adv-x="768" 
d="M145 500l88 -333l98 333h106l97 -333l89 333h124l-150 -500h-125l-88 298l-88 -298h-125l-150 500h124zM350 713v-141h-141v141h141zM558 713v-141h-141v141h141z" />
    <glyph glyph-name="ydieresis.ss13.ss01" horiz-adv-x="536" 
d="M21 500h134l113 -266l113 266h134l-333 -750h-133l154 341zM234 713v-141h-141v141h141zM442 713v-141h-141v141h141z" />
    <glyph glyph-name="udieresis.ss01" horiz-adv-x="566" 
d="M105.5 48q-52.5 54 -52.5 152v300h128v-269q0 -115 97 -115q49 0 75.5 31.5t26.5 83.5v269h128v-500h-128v47q-20 -23 -53.5 -38t-77.5 -15q-91 0 -143.5 54zM249 713v-141h-141v141h141zM457 713v-141h-141v141h141z" />
    <glyph glyph-name="wdieresis.ss01" horiz-adv-x="754" 
d="M151 500l129 -349l36 106l-91 243h119l33 -101l32 101h120l-91 -243l36 -106l128 349h131l-198 -500h-118l-40 115l-40 -115h-118l-198 500h130zM343 713v-141h-141v141h141zM551 713v-141h-141v141h141z" />
    <glyph glyph-name="ydieresis.ss01" horiz-adv-x="536" 
d="M21 500h132l115 -269l115 269h132l-183 -411v-338l-128 -14v352zM235 713v-141h-141v141h141zM443 713v-141h-141v141h141z" />
    <glyph glyph-name="zdotaccent.ss01" horiz-adv-x="542" 
d="M310 383h-251v117h422v-100l-268 -283h286v-117h-458v100zM341 713v-141h-141v141h141z" />
    <glyph glyph-name="ae.ss03" horiz-adv-x="969" 
d="M158 27q-56 33 -88.5 91t-32.5 132t32.5 132.5t90 91t127.5 32.5q46 0 83.5 -15.5t55.5 -37.5v47h121v-39q61 45 139 45q69 0 125.5 -33t88.5 -91t32 -129q0 -21 -3 -39h-373q7 -45 42.5 -75t87.5 -30q41 0 71.5 17.5t49.5 46.5l94 -76q-35 -48 -87.5 -75.5t-121.5 -27.5
q-42 0 -79.5 12t-65.5 35v-41h-121v48q-22 -24 -59 -39t-84 -15q-69 0 -125 33zM751.5 371q-31.5 24 -73.5 24q-43 0 -75.5 -23.5t-42.5 -62.5h234q-11 38 -42.5 62zM389 151.5q36 37.5 36 98.5q0 62 -36 99t-91 37q-57 0 -94 -37t-37 -99q0 -61 37 -98.5t94 -37.5
q55 0 91 37.5z" />
    <glyph glyph-name="aeacute.ss03" horiz-adv-x="969" 
d="M158 27q-56 33 -88.5 91t-32.5 132t32.5 132.5t90 91t127.5 32.5q46 0 83.5 -15.5t55.5 -37.5v47h121v-39q61 45 139 45q69 0 125.5 -33t88.5 -91t32 -129q0 -21 -3 -39h-373q7 -45 42.5 -75t87.5 -30q41 0 71.5 17.5t49.5 46.5l94 -76q-35 -48 -87.5 -75.5t-121.5 -27.5
q-42 0 -79.5 12t-65.5 35v-41h-121v48q-22 -24 -59 -39t-84 -15q-69 0 -125 33zM751.5 371q-31.5 24 -73.5 24q-43 0 -75.5 -23.5t-42.5 -62.5h234q-11 38 -42.5 62zM389 151.5q36 37.5 36 98.5q0 62 -36 99t-91 37q-57 0 -94 -37t-37 -99q0 -61 37 -98.5t94 -37.5
q55 0 91 37.5zM647 764l51 -104l-241 -113l-51 104z" />
    <glyph glyph-name="c.ss03" horiz-adv-x="560" 
d="M163 27.5q-59 33.5 -92.5 92t-33.5 130.5t33.5 130.5t92.5 92t133 33.5q79 0 138 -37t89 -104l-113 -58q-14 38 -44.5 58t-70.5 20q-56 0 -92.5 -37.5t-36.5 -97.5q0 -59 36.5 -96.5t92.5 -37.5q41 0 71 19.5t44 57.5l113 -58q-30 -67 -89 -104t-138 -37q-74 0 -133 33.5
z" />
    <glyph glyph-name="cacute.ss03" horiz-adv-x="560" 
d="M163 27.5q-59 33.5 -92.5 92t-33.5 130.5t33.5 130.5t92.5 92t133 33.5q79 0 138 -37t89 -104l-113 -58q-14 38 -44.5 58t-70.5 20q-56 0 -92.5 -37.5t-36.5 -97.5q0 -59 36.5 -96.5t92.5 -37.5q41 0 71 19.5t44 57.5l113 -58q-30 -67 -89 -104t-138 -37q-74 0 -133 33.5
zM453 764l51 -104l-241 -113l-51 104z" />
    <glyph glyph-name="ccaron.ss03" horiz-adv-x="560" 
d="M163 27.5q-59 33.5 -92.5 92t-33.5 130.5t33.5 130.5t92.5 92t133 33.5q79 0 138 -37t89 -104l-113 -58q-14 38 -44.5 58t-70.5 20q-56 0 -92.5 -37.5t-36.5 -97.5q0 -59 36.5 -96.5t92.5 -37.5q41 0 71 19.5t44 57.5l113 -58q-30 -67 -89 -104t-138 -37q-74 0 -133 33.5
zM178 805l117 -117l117 117l77 -77l-194 -193l-193 193z" />
    <glyph glyph-name="ccedilla.ss03" horiz-adv-x="560" 
d="M366 135.5q30 19.5 44 57.5l113 -58q-26 -58 -75 -94t-114 -45l-20 -35q33 -8 53.5 -33.5t20.5 -67.5q0 -48 -34 -82t-82 -34q-47 0 -81 34t-35 81h88q0 -13 8 -20.5t20 -7.5t20 7.5t8 20.5q0 14 -8.5 23t-24.5 9h-81l63 107q-62 10 -110 45t-75 89t-27 118
q0 72 33.5 130.5t92.5 92t133 33.5q79 0 138 -37t89 -104l-113 -58q-14 38 -44.5 58t-70.5 20q-56 0 -92.5 -37.5t-36.5 -97.5q0 -59 36.5 -96.5t92.5 -37.5q41 0 71 19.5z" />
    <glyph glyph-name="ccircumflex.ss03" horiz-adv-x="560" 
d="M163 27.5q-59 33.5 -92.5 92t-33.5 130.5t33.5 130.5t92.5 92t133 33.5q79 0 138 -37t89 -104l-113 -58q-14 38 -44.5 58t-70.5 20q-56 0 -92.5 -37.5t-36.5 -97.5q0 -59 36.5 -96.5t92.5 -37.5q41 0 71 19.5t44 57.5l113 -58q-30 -67 -89 -104t-138 -37q-74 0 -133 33.5
zM295 805l194 -193l-77 -77l-117 117l-117 -117l-76 77z" />
    <glyph glyph-name="cdotaccent.ss03" horiz-adv-x="560" 
d="M163 27.5q-59 33.5 -92.5 92t-33.5 130.5t33.5 130.5t92.5 92t133 33.5q79 0 138 -37t89 -104l-113 -58q-14 38 -44.5 58t-70.5 20q-56 0 -92.5 -37.5t-36.5 -97.5q0 -59 36.5 -96.5t92.5 -37.5q41 0 71 19.5t44 57.5l113 -58q-30 -67 -89 -104t-138 -37q-74 0 -133 33.5
zM235.5 576.5q-24.5 24.5 -24.5 59.5t24.5 59.5t58.5 24.5q35 0 60 -24.5t25 -59.5t-25 -59.5t-60 -24.5q-34 0 -58.5 24.5z" />
    <glyph glyph-name="e.ss03" horiz-adv-x="583" 
d="M165.5 28q-60.5 34 -94.5 92.5t-34 129.5t33.5 129.5t92 92.5t129.5 34q72 0 130.5 -35t91 -93t32.5 -125q0 -21 -3 -39h-373q7 -45 42.5 -75t87.5 -30q42 0 72.5 17.5t48.5 46.5l95 -76q-35 -48 -88.5 -75.5t-126.5 -27.5q-75 0 -135.5 34zM366.5 371q-31.5 24 -74.5 24
q-42 0 -74.5 -23.5t-42.5 -62.5h233q-10 38 -41.5 62z" />
    <glyph glyph-name="eacute.ss03" horiz-adv-x="583" 
d="M165.5 28q-60.5 34 -94.5 92.5t-34 129.5t33.5 129.5t92 92.5t129.5 34q72 0 130.5 -35t91 -93t32.5 -125q0 -21 -3 -39h-373q7 -45 42.5 -75t87.5 -30q42 0 72.5 17.5t48.5 46.5l95 -76q-35 -48 -88.5 -75.5t-126.5 -27.5q-75 0 -135.5 34zM366.5 371q-31.5 24 -74.5 24
q-42 0 -74.5 -23.5t-42.5 -62.5h233q-10 38 -41.5 62zM450 764l51 -104l-241 -113l-51 104z" />
    <glyph glyph-name="ebreve.ss03" horiz-adv-x="583" 
d="M165.5 28q-60.5 34 -94.5 92.5t-34 129.5t33.5 129.5t92 92.5t129.5 34q72 0 130.5 -35t91 -93t32.5 -125q0 -21 -3 -39h-373q7 -45 42.5 -75t87.5 -30q42 0 72.5 17.5t48.5 46.5l95 -76q-35 -48 -88.5 -75.5t-126.5 -27.5q-75 0 -135.5 34zM366.5 371q-31.5 24 -74.5 24
q-42 0 -74.5 -23.5t-42.5 -62.5h233q-10 38 -41.5 62zM201 572.5q-42 22.5 -68.5 62.5t-29.5 90h117q4 -30 22.5 -49t49.5 -19t50 19t23 49h118q-4 -50 -30.5 -90t-69 -62.5t-91.5 -22.5t-91 22.5z" />
    <glyph glyph-name="ecaron.ss03" horiz-adv-x="583" 
d="M165.5 28q-60.5 34 -94.5 92.5t-34 129.5t33.5 129.5t92 92.5t129.5 34q72 0 130.5 -35t91 -93t32.5 -125q0 -21 -3 -39h-373q7 -45 42.5 -75t87.5 -30q42 0 72.5 17.5t48.5 46.5l95 -76q-35 -48 -88.5 -75.5t-126.5 -27.5q-75 0 -135.5 34zM366.5 371q-31.5 24 -74.5 24
q-42 0 -74.5 -23.5t-42.5 -62.5h233q-10 38 -41.5 62zM175 805l117 -117l117 117l77 -77l-194 -193l-193 193z" />
    <glyph glyph-name="ecircumflex.ss03" horiz-adv-x="583" 
d="M165.5 28q-60.5 34 -94.5 92.5t-34 129.5t33.5 129.5t92 92.5t129.5 34q72 0 130.5 -35t91 -93t32.5 -125q0 -21 -3 -39h-373q7 -45 42.5 -75t87.5 -30q42 0 72.5 17.5t48.5 46.5l95 -76q-35 -48 -88.5 -75.5t-126.5 -27.5q-75 0 -135.5 34zM366.5 371q-31.5 24 -74.5 24
q-42 0 -74.5 -23.5t-42.5 -62.5h233q-10 38 -41.5 62zM292 805l194 -193l-77 -77l-117 117l-117 -117l-76 77z" />
    <glyph glyph-name="edieresis.ss03" horiz-adv-x="583" 
d="M165.5 28q-60.5 34 -94.5 92.5t-34 129.5t33.5 129.5t92 92.5t129.5 34q72 0 130.5 -35t91 -93t32.5 -125q0 -21 -3 -39h-373q7 -45 42.5 -75t87.5 -30q42 0 72.5 17.5t48.5 46.5l95 -76q-35 -48 -88.5 -75.5t-126.5 -27.5q-75 0 -135.5 34zM366.5 371q-31.5 24 -74.5 24
q-42 0 -74.5 -23.5t-42.5 -62.5h233q-10 38 -41.5 62zM113.5 579q-23.5 24 -23.5 58t23.5 58t57.5 24t58 -24t24 -58t-24 -58t-58 -24t-57.5 24zM353.5 579q-23.5 24 -23.5 58t23.5 58t57.5 24t58 -24t24 -58t-24 -58t-58 -24t-57.5 24z" />
    <glyph glyph-name="edotaccent.ss03" horiz-adv-x="583" 
d="M165.5 28q-60.5 34 -94.5 92.5t-34 129.5t33.5 129.5t92 92.5t129.5 34q72 0 130.5 -35t91 -93t32.5 -125q0 -21 -3 -39h-373q7 -45 42.5 -75t87.5 -30q42 0 72.5 17.5t48.5 46.5l95 -76q-35 -48 -88.5 -75.5t-126.5 -27.5q-75 0 -135.5 34zM366.5 371q-31.5 24 -74.5 24
q-42 0 -74.5 -23.5t-42.5 -62.5h233q-10 38 -41.5 62zM233.5 576.5q-24.5 24.5 -24.5 59.5t24.5 59.5t58.5 24.5q35 0 60 -24.5t25 -59.5t-25 -59.5t-60 -24.5q-34 0 -58.5 24.5z" />
    <glyph glyph-name="egrave.ss03" horiz-adv-x="583" 
d="M165.5 28q-60.5 34 -94.5 92.5t-34 129.5t33.5 129.5t92 92.5t129.5 34q72 0 130.5 -35t91 -93t32.5 -125q0 -21 -3 -39h-373q7 -45 42.5 -75t87.5 -30q42 0 72.5 17.5t48.5 46.5l95 -76q-35 -48 -88.5 -75.5t-126.5 -27.5q-75 0 -135.5 34zM366.5 371q-31.5 24 -74.5 24
q-42 0 -74.5 -23.5t-42.5 -62.5h233q-10 38 -41.5 62zM134 764l241 -113l-51 -104l-241 113z" />
    <glyph glyph-name="emacron.ss03" horiz-adv-x="583" 
d="M165.5 28q-60.5 34 -94.5 92.5t-34 129.5t33.5 129.5t92 92.5t129.5 34q72 0 130.5 -35t91 -93t32.5 -125q0 -21 -3 -39h-373q7 -45 42.5 -75t87.5 -30q42 0 72.5 17.5t48.5 46.5l95 -76q-35 -48 -88.5 -75.5t-126.5 -27.5q-75 0 -135.5 34zM366.5 371q-31.5 24 -74.5 24
q-42 0 -74.5 -23.5t-42.5 -62.5h233q-10 38 -41.5 62zM449 694v-112h-315v112h315z" />
    <glyph glyph-name="eogonek.ss03" horiz-adv-x="583" 
d="M543 214h-373q7 -45 42.5 -75t87.5 -30q42 0 72.5 17.5t48.5 46.5l95 -76q-29 -41 -72 -67t-100 -33l-35 -85q-1 -3 -6 -14.5t-5 -21.5q0 -28 35 -28h22v-98h-32q-58 0 -93.5 31.5t-35.5 81.5q0 27 16 63l30 74q-91 19 -147 88.5t-56 161.5q0 71 33.5 129.5t92 92.5
t129.5 34q72 0 130.5 -35t91 -93t32.5 -125q0 -21 -3 -39zM408 309q-10 38 -41.5 62t-74.5 24q-42 0 -74.5 -23.5t-42.5 -62.5h233z" />
    <glyph glyph-name="oe.ss03" horiz-adv-x="963" 
d="M161 27.5q-58 33.5 -91 92t-33 130.5t33 130.5t91 92t131 33.5q59 0 109 -22.5t84 -64.5q35 42 83.5 64.5t105.5 22.5q72 0 129.5 -35t90 -93t32.5 -125q0 -15 -2 -39h-371q7 -44 41.5 -74.5t82.5 -30.5q42 0 72.5 17.5t48.5 46.5l95 -76q-35 -48 -88.5 -75.5
t-126.5 -27.5q-58 0 -107.5 22.5t-85.5 64.5q-34 -42 -84 -64.5t-109 -22.5q-73 0 -131 33.5zM747 370.5q-32 24.5 -73 24.5q-42 0 -74 -24t-43 -62h232q-10 37 -42 61.5zM385 154q35 37 35 96t-35 96.5t-92 37.5q-56 0 -91 -37.5t-35 -96.5t35 -96t91 -37q57 0 92 37z" />
    <glyph glyph-name="s.ss03" horiz-adv-x="422" 
d="M91 34.5q-48 40.5 -58 98.5l113 37q5 -30 22.5 -45.5t44.5 -15.5q24 0 38.5 14t14.5 38q0 28 -17 39t-38.5 16t-28.5 7q-54 13 -87 47.5t-33 91.5q0 41 19.5 74t53.5 51.5t76 18.5q48 0 84 -22t54 -58l-89 -59q-11 31 -42 31q-16 0 -25.5 -9t-9.5 -23q0 -19 15 -27.5
t48 -17.5q18 -3 35 -9q108 -35 108 -146q0 -76 -48.5 -124t-125.5 -48q-76 0 -124 40.5z" />
    <glyph glyph-name="sacute.ss03" horiz-adv-x="422" 
d="M91 34.5q-48 40.5 -58 98.5l113 37q5 -30 22.5 -45.5t44.5 -15.5q24 0 38.5 14t14.5 38q0 28 -17 39t-38.5 16t-28.5 7q-54 13 -87 47.5t-33 91.5q0 41 19.5 74t53.5 51.5t76 18.5q48 0 84 -22t54 -58l-89 -59q-11 31 -42 31q-16 0 -25.5 -9t-9.5 -23q0 -19 15 -27.5
t48 -17.5q18 -3 35 -9q108 -35 108 -146q0 -76 -48.5 -124t-125.5 -48q-76 0 -124 40.5zM372 764l51 -104l-241 -113l-51 104z" />
    <glyph glyph-name="scaron.ss03" horiz-adv-x="422" 
d="M91 34.5q-48 40.5 -58 98.5l113 37q5 -30 22.5 -45.5t44.5 -15.5q24 0 38.5 14t14.5 38q0 28 -17 39t-38.5 16t-28.5 7q-54 13 -87 47.5t-33 91.5q0 41 19.5 74t53.5 51.5t76 18.5q48 0 84 -22t54 -58l-89 -59q-11 31 -42 31q-16 0 -25.5 -9t-9.5 -23q0 -19 15 -27.5
t48 -17.5q18 -3 35 -9q108 -35 108 -146q0 -76 -48.5 -124t-125.5 -48q-76 0 -124 40.5zM97 805l117 -117l117 117l77 -77l-194 -193l-193 193z" />
    <glyph glyph-name="scedilla.ss03" horiz-adv-x="422" 
d="M350.5 52.5q-38.5 -45.5 -102.5 -55.5l-20 -36q33 -8 53.5 -33.5t20.5 -67.5q0 -48 -34 -82t-82 -34q-47 0 -81 34t-35 81h88q0 -13 8 -20.5t20 -7.5t20 7.5t8 20.5q0 14 -8.5 23t-24.5 9h-81l64 109q-55 12 -89 49t-42 84l113 37q5 -30 22.5 -45.5t44.5 -15.5
q24 0 38.5 14t14.5 38q0 28 -17 39t-38.5 16t-28.5 7q-54 13 -87 47.5t-33 91.5q0 41 19.5 74t53.5 51.5t76 18.5q48 0 84 -22t54 -58l-89 -59q-11 31 -42 31q-16 0 -25.5 -9t-9.5 -23q0 -19 15 -27.5t48 -17.5q18 -3 35 -9q108 -35 108 -146q0 -68 -38.5 -113.5z" />
    <glyph glyph-name="scircumflex.ss03" horiz-adv-x="422" 
d="M91 34.5q-48 40.5 -58 98.5l113 37q5 -30 22.5 -45.5t44.5 -15.5q24 0 38.5 14t14.5 38q0 28 -17 39t-38.5 16t-28.5 7q-54 13 -87 47.5t-33 91.5q0 41 19.5 74t53.5 51.5t76 18.5q48 0 84 -22t54 -58l-89 -59q-11 31 -42 31q-16 0 -25.5 -9t-9.5 -23q0 -19 15 -27.5
t48 -17.5q18 -3 35 -9q108 -35 108 -146q0 -76 -48.5 -124t-125.5 -48q-76 0 -124 40.5zM214 805l194 -193l-77 -77l-117 117l-117 -117l-76 77z" />
    <glyph glyph-name="uni0219.ss03" horiz-adv-x="422" 
d="M91 34.5q-48 40.5 -58 98.5l113 37q5 -30 22.5 -45.5t44.5 -15.5q24 0 38.5 14t14.5 38q0 28 -17 39t-38.5 16t-28.5 7q-54 13 -87 47.5t-33 91.5q0 41 19.5 74t53.5 51.5t76 18.5q48 0 84 -22t54 -58l-89 -59q-11 31 -42 31q-16 0 -25.5 -9t-9.5 -23q0 -19 15 -27.5
t48 -17.5q18 -3 35 -9q108 -35 108 -146q0 -76 -48.5 -124t-125.5 -48q-76 0 -124 40.5zM146 -42h138l-139 -237l-105 60z" />
    <glyph glyph-name="aeacute.ss06.ss03" horiz-adv-x="846" 
d="M126 15q-40 21 -63.5 59t-23.5 88q0 49 23 87.5t62.5 60t89.5 21.5q56 0 89 -28v21q0 31 -18.5 47.5t-51.5 16.5q-21 0 -38.5 -10t-30.5 -27l-69 88q26 31 65 49t84 18q98 0 145 -62q33 30 76 46t90 16q72 0 130.5 -35t91 -93t32.5 -125q0 -21 -3 -39h-373
q8 -44 42 -74.5t83 -30.5q34 0 60.5 11.5t39.5 34.5h144q-23 -73 -89.5 -117t-153.5 -44q-47 0 -95 19t-90 61q-33 -40 -71.5 -60t-88.5 -20q-48 0 -88 21zM629.5 371q-31.5 24 -74.5 24q-42 0 -74.5 -23.5t-42.5 -62.5h233q-10 38 -41.5 62zM285 119.5q20 17.5 20 46.5
q0 30 -19.5 47.5t-49.5 17.5t-50 -17.5t-20 -47.5q0 -29 20 -46.5t50 -17.5q29 0 49 17.5zM547 764l51 -104l-241 -113l-51 104z" />
    <glyph glyph-name="ij.ss05" horiz-adv-x="574" 
d="M63.5 576.5q-24.5 24.5 -24.5 59.5t24.5 59.5t58.5 24.5q35 0 59.5 -24.5t24.5 -59.5t-24.5 -59.5t-59.5 -24.5q-34 0 -58.5 24.5zM393 576.5q-24 24.5 -24 59.5t24 59.5t59 24.5t59 -24.5t24 -59.5t-24 -59.5t-59 -24.5t-59 24.5zM237 -232.5q-42 23.5 -65.5 65.5
t-23.5 94h128q0 -29 16 -45.5t40 -16.5t40 17t16 48v85q-39 -29 -101 -29q-70 0 -122 30t-79.5 83.5t-27.5 123.5v277h128v-274q0 -56 26 -86.5t75 -30.5q45 0 73 30t28 76v285h128v-575q0 -51 -23.5 -92.5t-65.5 -65t-95 -23.5t-95 23.5z" />
    <glyph glyph-name="j.ss05" horiz-adv-x="278" 
d="M97 576.5q-24 24.5 -24 59.5t24 59.5t59 24.5t59 -24.5t24 -59.5t-24 -59.5t-59 -24.5t-59 24.5zM-60.5 -232.5q-42.5 23.5 -66 65.5t-23.5 94h128q0 -29 16.5 -45.5t40.5 -16.5t40 17t16 48v570h128v-575q0 -51 -23.5 -92.5t-65.5 -65t-95 -23.5t-95.5 23.5z" />
    <glyph glyph-name="uni0237.ss05" horiz-adv-x="279" 
d="M-60.5 -232.5q-42.5 23.5 -66 65.5t-23.5 94h128q0 -29 16.5 -45.5t40.5 -16.5t40 17t16 48v570h128v-575q0 -51 -23.5 -92.5t-65.5 -65t-95 -23.5t-95.5 23.5z" />
    <glyph glyph-name="jcircumflex.ss05" horiz-adv-x="279" 
d="M-60.5 -232.5q-42.5 23.5 -66 65.5t-23.5 94h128q0 -29 16.5 -45.5t40.5 -16.5t40 17t16 48v570h128v-575q0 -51 -23.5 -92.5t-65.5 -65t-95 -23.5t-95.5 23.5zM156 805l194 -193l-77 -77l-117 117l-117 -117l-76 77z" />
    <glyph glyph-name="t.ss05" horiz-adv-x="472" 
d="M174.5 38q-47.5 44 -47.5 123v220h-101v119h101v134h128v-134h148v-119h-148v-208q0 -24 12.5 -39.5t36.5 -15.5q18 0 30 10t19 26l94 -75q-21 -39 -61 -62t-93 -23q-71 0 -118.5 44z" />
    <glyph glyph-name="tbar.ss05" horiz-adv-x="472" 
d="M174.5 38q-47.5 44 -47.5 123v89h-101v98h101v44h-101v108h101v134h128v-134h148v-108h-148v-44h133v-98h-133v-77q0 -24 12.5 -39.5t36.5 -15.5q18 0 30 10t19 26l94 -75q-21 -39 -61 -62t-93 -23q-71 0 -118.5 44z" />
    <glyph glyph-name="tcaron.ss05" horiz-adv-x="472" 
d="M174.5 38q-47.5 44 -47.5 123v220h-101v119h101v134h128v-134h148v-119h-148v-208q0 -24 12.5 -39.5t36.5 -15.5q18 0 30 10t19 26l94 -75q-21 -39 -61 -62t-93 -23q-71 0 -118.5 44zM425 784h137l-138 -236l-104 60z" />
    <glyph glyph-name="uni0163.ss05" horiz-adv-x="472" 
d="M402.5 27.5q-28.5 -21.5 -66.5 -29.5l-21 -37q33 -8 53.5 -33.5t20.5 -67.5q0 -48 -34 -82t-82 -34q-47 0 -81 34t-35 81h88q0 -13 8 -20.5t20 -7.5t20 7.5t8 20.5q0 14 -8.5 23t-24.5 9h-81l63 108q-55 12 -89 54t-34 108v220h-101v119h101v134h128v-134h148v-119h-148
v-208q0 -24 12.5 -39.5t36.5 -15.5q18 0 30 10t19 26l94 -75q-16 -30 -44.5 -51.5z" />
    <glyph glyph-name="uni021B.ss05" horiz-adv-x="472" 
d="M174.5 38q-47.5 44 -47.5 123v220h-101v119h101v134h128v-134h148v-119h-148v-208q0 -24 12.5 -39.5t36.5 -15.5q18 0 30 10t19 26l94 -75q-21 -39 -61 -62t-93 -23q-71 0 -118.5 44zM236 -42h138l-139 -237l-105 60z" />
    <glyph glyph-name="a.ss06" horiz-adv-x="484" 
d="M123.5 15q-38.5 21 -61.5 59.5t-23 88.5t23.5 89.5t63.5 61t88 21.5q52 0 89 -26v17q0 29 -18 45.5t-48 16.5q-41 0 -75 -36l-70 85q26 32 67 50.5t89 18.5q86 0 134.5 -48.5t48.5 -134.5v-323h-128v28q-15 -16 -40 -25t-55 -9q-46 0 -84.5 21zM285 117q20 18 20 48
q0 31 -20 49t-49 18q-30 0 -50 -18t-20 -49q0 -30 20.5 -48t49.5 -18t49 18z" />
    <glyph glyph-name="aacute.ss06" horiz-adv-x="484" 
d="M123.5 15q-38.5 21 -61.5 59.5t-23 88.5t23.5 89.5t63.5 61t88 21.5q52 0 89 -26v17q0 29 -18 45.5t-48 16.5q-41 0 -75 -36l-70 85q26 32 67 50.5t89 18.5q86 0 134.5 -48.5t48.5 -134.5v-323h-128v28q-15 -16 -40 -25t-55 -9q-46 0 -84.5 21zM285 117q20 18 20 48
q0 31 -20 49t-49 18q-30 0 -50 -18t-20 -49q0 -30 20.5 -48t49.5 -18t49 18zM402 764l51 -104l-241 -113l-51 104z" />
    <glyph glyph-name="abreve.ss06" horiz-adv-x="484" 
d="M123.5 15q-38.5 21 -61.5 59.5t-23 88.5t23.5 89.5t63.5 61t88 21.5q52 0 89 -26v17q0 29 -18 45.5t-48 16.5q-41 0 -75 -36l-70 85q26 32 67 50.5t89 18.5q86 0 134.5 -48.5t48.5 -134.5v-323h-128v28q-15 -16 -40 -25t-55 -9q-46 0 -84.5 21zM285 117q20 18 20 48
q0 31 -20 49t-49 18q-30 0 -50 -18t-20 -49q0 -30 20.5 -48t49.5 -18t49 18zM153 572.5q-42 22.5 -68.5 62.5t-29.5 90h117q4 -30 22.5 -49t49.5 -19t50 19t23 49h118q-4 -50 -30.5 -90t-69 -62.5t-91.5 -22.5t-91 22.5z" />
    <glyph glyph-name="acircumflex.ss06" horiz-adv-x="484" 
d="M123.5 15q-38.5 21 -61.5 59.5t-23 88.5t23.5 89.5t63.5 61t88 21.5q52 0 89 -26v17q0 29 -18 45.5t-48 16.5q-41 0 -75 -36l-70 85q26 32 67 50.5t89 18.5q86 0 134.5 -48.5t48.5 -134.5v-323h-128v28q-15 -16 -40 -25t-55 -9q-46 0 -84.5 21zM285 117q20 18 20 48
q0 31 -20 49t-49 18q-30 0 -50 -18t-20 -49q0 -30 20.5 -48t49.5 -18t49 18zM244 805l194 -193l-77 -77l-117 117l-117 -117l-76 77z" />
    <glyph glyph-name="adieresis.ss06" horiz-adv-x="484" 
d="M123.5 15q-38.5 21 -61.5 59.5t-23 88.5t23.5 89.5t63.5 61t88 21.5q52 0 89 -26v17q0 29 -18 45.5t-48 16.5q-41 0 -75 -36l-70 85q26 32 67 50.5t89 18.5q86 0 134.5 -48.5t48.5 -134.5v-323h-128v28q-15 -16 -40 -25t-55 -9q-46 0 -84.5 21zM285 117q20 18 20 48
q0 31 -20 49t-49 18q-30 0 -50 -18t-20 -49q0 -30 20.5 -48t49.5 -18t49 18zM65.5 579q-23.5 24 -23.5 58t23.5 58t57.5 24t58 -24t24 -58t-24 -58t-58 -24t-57.5 24zM305.5 579q-23.5 24 -23.5 58t23.5 58t57.5 24t58 -24t24 -58t-24 -58t-58 -24t-57.5 24z" />
    <glyph glyph-name="agrave.ss06" horiz-adv-x="484" 
d="M123.5 15q-38.5 21 -61.5 59.5t-23 88.5t23.5 89.5t63.5 61t88 21.5q52 0 89 -26v17q0 29 -18 45.5t-48 16.5q-41 0 -75 -36l-70 85q26 32 67 50.5t89 18.5q86 0 134.5 -48.5t48.5 -134.5v-323h-128v28q-15 -16 -40 -25t-55 -9q-46 0 -84.5 21zM285 117q20 18 20 48
q0 31 -20 49t-49 18q-30 0 -50 -18t-20 -49q0 -30 20.5 -48t49.5 -18t49 18zM86 764l241 -113l-51 -104l-241 113z" />
    <glyph glyph-name="amacron.ss06" horiz-adv-x="484" 
d="M123.5 15q-38.5 21 -61.5 59.5t-23 88.5t23.5 89.5t63.5 61t88 21.5q52 0 89 -26v17q0 29 -18 45.5t-48 16.5q-41 0 -75 -36l-70 85q26 32 67 50.5t89 18.5q86 0 134.5 -48.5t48.5 -134.5v-323h-128v28q-15 -16 -40 -25t-55 -9q-46 0 -84.5 21zM285 117q20 18 20 48
q0 31 -20 49t-49 18q-30 0 -50 -18t-20 -49q0 -30 20.5 -48t49.5 -18t49 18zM400 694v-112h-315v112h315z" />
    <glyph glyph-name="aogonek.ss06" horiz-adv-x="484" 
d="M441 -152v-98h-32q-58 0 -93.5 31.5t-35.5 81.5q0 27 16 63l30 74h-23v28q-15 -16 -40 -25t-55 -9q-46 0 -84.5 21t-61.5 59.5t-23 88.5t23.5 89.5t63.5 61t88 21.5q52 0 89 -26v17q0 29 -18 45.5t-48 16.5q-41 0 -75 -36l-70 85q26 32 67 50.5t89 18.5q86 0 134.5 -48.5
t48.5 -134.5v-323l-36 -88q-1 -3 -6 -14.5t-5 -21.5q0 -28 35 -28h22zM285 117q20 18 20 48q0 31 -20 49t-49 18q-30 0 -50 -18t-20 -49q0 -30 20.5 -48t49.5 -18t49 18z" />
    <glyph glyph-name="aring.ss06" horiz-adv-x="484" 
d="M123.5 15q-38.5 21 -61.5 59.5t-23 88.5t23.5 89.5t63.5 61t88 21.5q52 0 89 -26v17q0 29 -18 45.5t-48 16.5q-41 0 -75 -36l-70 85q26 32 67 50.5t89 18.5q86 0 134.5 -48.5t48.5 -134.5v-323h-128v28q-15 -16 -40 -25t-55 -9q-46 0 -84.5 21zM285 117q20 18 20 48
q0 31 -20 49t-49 18q-30 0 -50 -18t-20 -49q0 -30 20.5 -48t49.5 -18t49 18zM168 581q-31 31 -31 76q0 44 31 75t76 31t76 -31t31 -75t-31 -75.5t-76 -31.5t-76 31zM264 636q8 8 8 21q0 12 -8 20t-20 8q-13 0 -21 -8t-8 -20q0 -13 8 -21t21 -8q12 0 20 8z" />
    <glyph glyph-name="atilde.ss06" horiz-adv-x="484" 
d="M123.5 15q-38.5 21 -61.5 59.5t-23 88.5t23.5 89.5t63.5 61t88 21.5q52 0 89 -26v17q0 29 -18 45.5t-48 16.5q-41 0 -75 -36l-70 85q26 32 67 50.5t89 18.5q86 0 134.5 -48.5t48.5 -134.5v-323h-128v28q-15 -16 -40 -25t-55 -9q-46 0 -84.5 21zM285 117q20 18 20 48
q0 31 -20 49t-49 18q-30 0 -50 -18t-20 -49q0 -30 20.5 -48t49.5 -18t49 18zM87 696q29 33 78 33q26 0 46 -8t40 -25l19 -14q3 -3 11.5 -9.5t14 -9.5t11.5 -3q19 0 19 23v46h103v-51q0 -60 -29 -93t-78 -33q-26 0 -46 8t-40 25l-18 15q-4 3 -12.5 10t-14 9.5t-10.5 2.5
q-10 0 -15 -6t-5 -17v-47h-103v51q0 60 29 93z" />
    <glyph glyph-name="ae.ss06" horiz-adv-x="846" 
d="M126 15q-40 21 -63.5 59t-23.5 88q0 49 23 87.5t62.5 60t89.5 21.5q56 0 89 -28v21q0 31 -18.5 47.5t-51.5 16.5q-21 0 -38.5 -10t-30.5 -27l-69 88q26 31 65 49t84 18q98 0 145 -62q33 30 76 46t90 16q72 0 130.5 -35t91 -93t32.5 -125q0 -21 -3 -39h-373
q8 -44 42 -74.5t83 -30.5q34 0 60.5 11.5t39.5 34.5h144q-23 -73 -89.5 -117t-153.5 -44q-47 0 -95 19t-90 61q-33 -40 -71.5 -60t-88.5 -20q-48 0 -88 21zM629.5 371q-31.5 24 -74.5 24q-42 0 -74.5 -23.5t-42.5 -62.5h233q-10 38 -41.5 62zM285 119.5q20 17.5 20 46.5
q0 30 -19.5 47.5t-49.5 17.5t-50 -17.5t-20 -47.5q0 -29 20 -46.5t50 -17.5q29 0 49 17.5z" />
    <glyph glyph-name="aeacute.ss06" horiz-adv-x="846" 
d="M126 15q-40 21 -63.5 59t-23.5 88q0 49 23 87.5t62.5 60t89.5 21.5q56 0 89 -28v21q0 31 -18.5 47.5t-51.5 16.5q-21 0 -38.5 -10t-30.5 -27l-69 88q26 31 65 49t84 18q98 0 145 -62q33 30 76 46t90 16q72 0 130.5 -35t91 -93t32.5 -125q0 -21 -3 -39h-373
q8 -44 42 -74.5t83 -30.5q34 0 60.5 11.5t39.5 34.5h144q-23 -73 -89.5 -117t-153.5 -44q-47 0 -95 19t-90 61q-33 -40 -71.5 -60t-88.5 -20q-48 0 -88 21zM629.5 371q-31.5 24 -74.5 24q-42 0 -74.5 -23.5t-42.5 -62.5h233q-10 38 -41.5 62zM285 119.5q20 17.5 20 46.5
q0 30 -19.5 47.5t-49.5 17.5t-50 -17.5t-20 -47.5q0 -29 20 -46.5t50 -17.5q29 0 49 17.5zM547 764l51 -104l-241 -113l-51 104z" />
    <glyph glyph-name="ae.ss03.ss06" horiz-adv-x="846" 
d="M126 15q-40 21 -63.5 59t-23.5 88q0 49 23 87.5t62.5 60t89.5 21.5q56 0 89 -28v21q0 31 -18.5 47.5t-51.5 16.5q-21 0 -38.5 -10t-30.5 -27l-69 88q26 31 65 49t84 18q98 0 145 -62q33 30 76 46t90 16q72 0 130.5 -35t91 -93t32.5 -125q0 -21 -3 -39h-373
q8 -44 42 -74.5t83 -30.5q42 0 72.5 17.5t48.5 46.5l95 -76q-35 -48 -88 -75.5t-123 -27.5q-49 0 -98 19t-91 61q-33 -40 -71.5 -60t-88.5 -20q-48 0 -88 21zM629.5 371q-31.5 24 -74.5 24q-42 0 -74.5 -23.5t-42.5 -62.5h233q-10 38 -41.5 62zM285 119.5q20 17.5 20 46.5
q0 30 -19.5 47.5t-49.5 17.5t-50 -17.5t-20 -47.5q0 -29 20 -46.5t50 -17.5q29 0 49 17.5z" />
    <glyph glyph-name="aeacute.ss03.ss06" horiz-adv-x="846" 
d="M126 15q-40 21 -63.5 59t-23.5 88q0 49 23 87.5t62.5 60t89.5 21.5q56 0 89 -28v21q0 31 -18.5 47.5t-51.5 16.5q-21 0 -38.5 -10t-30.5 -27l-69 88q26 31 65 49t84 18q98 0 145 -62q33 30 76 46t90 16q72 0 130.5 -35t91 -93t32.5 -125q0 -21 -3 -39h-373
q8 -44 42 -74.5t83 -30.5q42 0 72.5 17.5t48.5 46.5l95 -76q-35 -48 -88 -75.5t-123 -27.5q-49 0 -98 19t-91 61q-33 -40 -71.5 -60t-88.5 -20q-48 0 -88 21zM629.5 371q-31.5 24 -74.5 24q-42 0 -74.5 -23.5t-42.5 -62.5h233q-10 38 -41.5 62zM285 119.5q20 17.5 20 46.5
q0 30 -19.5 47.5t-49.5 17.5t-50 -17.5t-20 -47.5q0 -29 20 -46.5t50 -17.5q29 0 49 17.5zM547 764l51 -104l-241 -113l-51 104z" />
    <glyph glyph-name="ae.ss07" horiz-adv-x="976" 
d="M156 26.5q-56 32.5 -87.5 91t-31.5 132.5t31.5 132.5t87.5 91t126 32.5q46 0 84 -16.5t56 -39.5v50h122v-40q62 46 146 46q87 0 151 -49.5t89 -127.5l-326 -187q36 -33 85 -33q51 0 84 29t41 81h125q-5 -67 -39 -118t-89 -79t-120 -28q-40 0 -78 11t-69 34v-39h-122v50
q-17 -22 -55.5 -39t-84.5 -17q-70 0 -126 32.5zM733.5 384q-21.5 9 -45.5 9q-57 0 -92 -39t-35 -96q0 -13 2 -20l208 121q-16 16 -37.5 25zM390.5 153.5q37.5 39.5 37.5 96.5q0 58 -37.5 97t-92.5 39q-37 0 -67.5 -18t-48.5 -49t-18 -69q0 -37 18 -68.5t48.5 -49.5t67.5 -18
q55 0 92.5 39.5z" />
    <glyph glyph-name="aeacute.ss07" horiz-adv-x="976" 
d="M156 26.5q-56 32.5 -87.5 91t-31.5 132.5t31.5 132.5t87.5 91t126 32.5q46 0 84 -16.5t56 -39.5v50h122v-40q62 46 146 46q87 0 151 -49.5t89 -127.5l-326 -187q36 -33 85 -33q51 0 84 29t41 81h125q-5 -67 -39 -118t-89 -79t-120 -28q-40 0 -78 11t-69 34v-39h-122v50
q-17 -22 -55.5 -39t-84.5 -17q-70 0 -126 32.5zM733.5 384q-21.5 9 -45.5 9q-57 0 -92 -39t-35 -96q0 -13 2 -20l208 121q-16 16 -37.5 25zM390.5 153.5q37.5 39.5 37.5 96.5q0 58 -37.5 97t-92.5 39q-37 0 -67.5 -18t-48.5 -49t-18 -69q0 -37 18 -68.5t48.5 -49.5t67.5 -18
q55 0 92.5 39.5zM645 764l51 -104l-241 -113l-51 104z" />
    <glyph glyph-name="e.ss07" horiz-adv-x="588" 
d="M163 28q-59 34 -92.5 92.5t-33.5 129.5t33.5 129.5t92 92.5t130.5 34q89 0 153.5 -49.5t90.5 -127.5l-326 -187q36 -33 84 -33q51 0 83.5 28.5t42.5 81.5h130q-20 -106 -88 -165.5t-168 -59.5q-73 0 -132 34zM340 385q-22 9 -47 9q-56 0 -90.5 -39t-34.5 -97q0 -14 1 -20
l208 121q-15 17 -37 26z" />
    <glyph glyph-name="eacute.ss07" horiz-adv-x="588" 
d="M163 28q-59 34 -92.5 92.5t-33.5 129.5t33.5 129.5t92 92.5t130.5 34q89 0 153.5 -49.5t90.5 -127.5l-326 -187q36 -33 84 -33q51 0 83.5 28.5t42.5 81.5h130q-20 -106 -88 -165.5t-168 -59.5q-73 0 -132 34zM340 385q-22 9 -47 9q-56 0 -90.5 -39t-34.5 -97q0 -14 1 -20
l208 121q-15 17 -37 26zM452 764l51 -104l-241 -113l-51 104z" />
    <glyph glyph-name="ecircumflex.ss07" horiz-adv-x="588" 
d="M163 28q-59 34 -92.5 92.5t-33.5 129.5t33.5 129.5t92 92.5t130.5 34q89 0 153.5 -49.5t90.5 -127.5l-326 -187q36 -33 84 -33q51 0 83.5 28.5t42.5 81.5h130q-20 -106 -88 -165.5t-168 -59.5q-73 0 -132 34zM340 385q-22 9 -47 9q-56 0 -90.5 -39t-34.5 -97q0 -14 1 -20
l208 121q-15 17 -37 26zM294 805l194 -193l-77 -77l-117 117l-117 -117l-76 77z" />
    <glyph glyph-name="edieresis.ss07" horiz-adv-x="588" 
d="M163 28q-59 34 -92.5 92.5t-33.5 129.5t33.5 129.5t92 92.5t130.5 34q89 0 153.5 -49.5t90.5 -127.5l-326 -187q36 -33 84 -33q51 0 83.5 28.5t42.5 81.5h130q-20 -106 -88 -165.5t-168 -59.5q-73 0 -132 34zM340 385q-22 9 -47 9q-56 0 -90.5 -39t-34.5 -97q0 -14 1 -20
l208 121q-15 17 -37 26zM115.5 579q-23.5 24 -23.5 58t23.5 58t57.5 24t58 -24t24 -58t-24 -58t-58 -24t-57.5 24zM355.5 579q-23.5 24 -23.5 58t23.5 58t57.5 24t58 -24t24 -58t-24 -58t-58 -24t-57.5 24z" />
    <glyph glyph-name="egrave.ss07" horiz-adv-x="588" 
d="M163 28q-59 34 -92.5 92.5t-33.5 129.5t33.5 129.5t92 92.5t130.5 34q89 0 153.5 -49.5t90.5 -127.5l-326 -187q36 -33 84 -33q51 0 83.5 28.5t42.5 81.5h130q-20 -106 -88 -165.5t-168 -59.5q-73 0 -132 34zM340 385q-22 9 -47 9q-56 0 -90.5 -39t-34.5 -97q0 -14 1 -20
l208 121q-15 17 -37 26zM136 764l241 -113l-51 -104l-241 113z" />
    <glyph glyph-name="emacron.ss07" horiz-adv-x="588" 
d="M163 28q-59 34 -92.5 92.5t-33.5 129.5t33.5 129.5t92 92.5t130.5 34q89 0 153.5 -49.5t90.5 -127.5l-326 -187q36 -33 84 -33q51 0 83.5 28.5t42.5 81.5h130q-20 -106 -88 -165.5t-168 -59.5q-73 0 -132 34zM340 385q-22 9 -47 9q-56 0 -90.5 -39t-34.5 -97q0 -14 1 -20
l208 121q-15 17 -37 26zM450 694v-112h-315v112h315z" />
    <glyph glyph-name="eogonek.ss07" horiz-adv-x="588" 
d="M321 -88q-1 -3 -6 -14.5t-5 -21.5q0 -28 35 -28h22v-98h-32q-58 0 -93.5 31.5t-35.5 81.5q0 25 15 63l30 71q-62 10 -111 45.5t-76 90t-27 117.5q0 71 33.5 129.5t92 92.5t130.5 34q89 0 153.5 -49.5t90.5 -127.5l-326 -187q36 -33 84 -33q51 0 83.5 28.5t42.5 81.5h130
q-17 -88 -68 -144.5t-126 -73.5zM169 238l208 121q-15 17 -37 26t-47 9q-56 0 -90.5 -39t-34.5 -97q0 -14 1 -20z" />
    <glyph glyph-name="oe.ss07" horiz-adv-x="973" 
d="M161.5 27.5q-58.5 33.5 -91.5 92t-33 130.5t33 130.5t91.5 92t131.5 33.5q60 0 109.5 -23t84.5 -65q34 42 83.5 65t107.5 23q89 0 153.5 -49.5t90.5 -127.5l-326 -187q36 -33 84 -33q51 0 83.5 28.5t42.5 81.5h130q-8 -68 -43.5 -119t-91 -78.5t-120.5 -27.5
q-59 0 -109.5 23.5t-84.5 64.5q-34 -42 -84 -65t-110 -23q-73 0 -131.5 33.5zM725 385q-22 9 -47 9q-56 0 -90.5 -38.5t-34.5 -97.5q0 -16 1 -20l208 121q-15 17 -37 26zM387 154q35 37 35 96t-35 96.5t-92 37.5t-92.5 -37.5t-35.5 -96.5t35.5 -96t92.5 -37t92 37z" />
    <glyph glyph-name="ae.ss06.ss07" horiz-adv-x="852" 
d="M122 15.5q-39 21.5 -61 59.5t-22 86q0 49 23 88t62 60.5t87 21.5q27 0 52.5 -8.5t39.5 -21.5v21q0 32 -18.5 49t-51.5 17q-21 0 -38.5 -10t-30.5 -27l-69 88q26 31 65 49t84 18q98 0 146 -62q33 30 76.5 46t92.5 16q89 0 153 -49.5t89 -127.5l-326 -187q36 -33 84 -33
q51 0 83.5 28.5t42.5 81.5h130q-8 -68 -43.5 -119t-91 -78.5t-122.5 -27.5q-114 0 -182 66q-42 -33 -80 -49.5t-84 -16.5q-51 0 -90 21.5zM604.5 385q-21.5 9 -46.5 9q-56 0 -91 -39t-35 -97q0 -13 1 -20l209 121q-16 17 -37.5 26zM285 116.5q20 17.5 20 46.5
q0 30 -19.5 47.5t-49.5 17.5t-50 -17.5t-20 -47.5q0 -29 20 -46.5t50 -17.5q29 0 49 17.5z" />
    <glyph glyph-name="aeacute.ss06.ss07" horiz-adv-x="852" 
d="M122 15.5q-39 21.5 -61 59.5t-22 86q0 49 23 88t62 60.5t87 21.5q27 0 52.5 -8.5t39.5 -21.5v21q0 32 -18.5 49t-51.5 17q-21 0 -38.5 -10t-30.5 -27l-69 88q26 31 65 49t84 18q98 0 146 -62q33 30 76.5 46t92.5 16q89 0 153 -49.5t89 -127.5l-326 -187q36 -33 84 -33
q51 0 83.5 28.5t42.5 81.5h130q-8 -68 -43.5 -119t-91 -78.5t-122.5 -27.5q-114 0 -182 66q-42 -33 -80 -49.5t-84 -16.5q-51 0 -90 21.5zM604.5 385q-21.5 9 -46.5 9q-56 0 -91 -39t-35 -97q0 -13 1 -20l209 121q-16 17 -37.5 26zM285 116.5q20 17.5 20 46.5
q0 30 -19.5 47.5t-49.5 17.5t-50 -17.5t-20 -47.5q0 -29 20 -46.5t50 -17.5q29 0 49 17.5zM550 764l51 -104l-241 -113l-51 104z" />
    <glyph glyph-name="g.ss08" horiz-adv-x="613" 
d="M175.5 -231.5q-58.5 24.5 -95 73t-37.5 117.5h130q2 -49 38.5 -73.5t86.5 -24.5q56 0 92 34.5t36 110.5v42q-21 -23 -57.5 -38.5t-83.5 -15.5q-69 0 -125.5 33t-89.5 91.5t-33 131.5t33 131.5t89.5 91.5t125.5 33q47 0 83.5 -15t57.5 -38v47h129v-503q0 -81 -34.5 -138.5
t-92 -86t-127.5 -28.5q-67 0 -125.5 24.5zM390.5 153.5q37.5 39.5 37.5 96.5q0 58 -37.5 97t-93.5 39q-37 0 -67.5 -18t-48 -49t-17.5 -69t18 -69t48.5 -49t66.5 -18q56 0 93.5 39.5z" />
    <glyph glyph-name="gbreve.ss08" horiz-adv-x="613" 
d="M175.5 -231.5q-58.5 24.5 -95 73t-37.5 117.5h130q2 -49 38.5 -73.5t86.5 -24.5q56 0 92 34.5t36 110.5v42q-21 -23 -57.5 -38.5t-83.5 -15.5q-69 0 -125.5 33t-89.5 91.5t-33 131.5t33 131.5t89.5 91.5t125.5 33q47 0 83.5 -15t57.5 -38v47h129v-503q0 -81 -34.5 -138.5
t-92 -86t-127.5 -28.5q-67 0 -125.5 24.5zM390.5 153.5q37.5 39.5 37.5 96.5q0 58 -37.5 97t-93.5 39q-37 0 -67.5 -18t-48 -49t-17.5 -69t18 -69t48.5 -49t66.5 -18q56 0 93.5 39.5zM215 572.5q-42 22.5 -68.5 62.5t-29.5 90h117q4 -30 22.5 -49t49.5 -19t50 19t23 49h118
q-4 -50 -30.5 -90t-69 -62.5t-91.5 -22.5t-91 22.5z" />
    <glyph glyph-name="gcircumflex.ss08" horiz-adv-x="613" 
d="M175.5 -231.5q-58.5 24.5 -95 73t-37.5 117.5h130q2 -49 38.5 -73.5t86.5 -24.5q56 0 92 34.5t36 110.5v42q-21 -23 -57.5 -38.5t-83.5 -15.5q-69 0 -125.5 33t-89.5 91.5t-33 131.5t33 131.5t89.5 91.5t125.5 33q47 0 83.5 -15t57.5 -38v47h129v-503q0 -81 -34.5 -138.5
t-92 -86t-127.5 -28.5q-67 0 -125.5 24.5zM390.5 153.5q37.5 39.5 37.5 96.5q0 58 -37.5 97t-93.5 39q-37 0 -67.5 -18t-48 -49t-17.5 -69t18 -69t48.5 -49t66.5 -18q56 0 93.5 39.5zM306 805l194 -193l-77 -77l-117 117l-117 -117l-76 77z" />
    <glyph glyph-name="uni0123.ss08" horiz-adv-x="613" 
d="M175.5 -231.5q-58.5 24.5 -95 73t-37.5 117.5h130q2 -49 38.5 -73.5t86.5 -24.5q56 0 92 34.5t36 110.5v42q-21 -23 -57.5 -38.5t-83.5 -15.5q-69 0 -125.5 33t-89.5 91.5t-33 131.5t33 131.5t89.5 91.5t125.5 33q47 0 83.5 -15t57.5 -38v47h129v-503q0 -81 -34.5 -138.5
t-92 -86t-127.5 -28.5q-67 0 -125.5 24.5zM390.5 153.5q37.5 39.5 37.5 96.5q0 58 -37.5 97t-93.5 39q-37 0 -67.5 -18t-48 -49t-17.5 -69t18 -69t48.5 -49t66.5 -18q56 0 93.5 39.5zM432 671l-78 -129h-141l111 192z" />
    <glyph glyph-name="gdotaccent.ss08" horiz-adv-x="613" 
d="M175.5 -231.5q-58.5 24.5 -95 73t-37.5 117.5h130q2 -49 38.5 -73.5t86.5 -24.5q56 0 92 34.5t36 110.5v42q-21 -23 -57.5 -38.5t-83.5 -15.5q-69 0 -125.5 33t-89.5 91.5t-33 131.5t33 131.5t89.5 91.5t125.5 33q47 0 83.5 -15t57.5 -38v47h129v-503q0 -81 -34.5 -138.5
t-92 -86t-127.5 -28.5q-67 0 -125.5 24.5zM390.5 153.5q37.5 39.5 37.5 96.5q0 58 -37.5 97t-93.5 39q-37 0 -67.5 -18t-48 -49t-17.5 -69t18 -69t48.5 -49t66.5 -18q56 0 93.5 39.5zM246.5 576.5q-24.5 24.5 -24.5 59.5t24.5 59.5t58.5 24.5q35 0 60 -24.5t25 -59.5
t-25 -59.5t-60 -24.5q-34 0 -58.5 24.5z" />
    <glyph glyph-name="g.ss09" horiz-adv-x="554" 
d="M154.5 -227q-53.5 29 -85.5 82t-32 121q1 58 23.5 104.5t63.5 77.5q-32 30 -48.5 68t-16.5 80q0 56 26.5 101.5t73 72t103.5 26.5q32 0 59.5 -8.5t45.5 -23.5v26h119l-1 -185q0 -49 -14 -87t-48 -70q41 -31 64 -78.5t23 -103.5q0 -68 -31 -121t-85.5 -82t-120.5 -29
q-65 0 -118.5 29zM334.5 238q25.5 25 25.5 65q0 41 -25.5 66t-63.5 25q-39 0 -64 -25t-25 -66q0 -40 25 -65t64 -25q38 0 63.5 25zM351 -104q30 31 30 80q0 50 -29.5 80.5t-77.5 30.5q-46 0 -76 -30.5t-30 -80.5q0 -48 30 -79.5t75 -31.5q48 0 78 31z" />
    <glyph glyph-name="gbreve.ss09" horiz-adv-x="554" 
d="M154.5 -227q-53.5 29 -85.5 82t-32 121q1 58 23.5 104.5t63.5 77.5q-32 30 -48.5 68t-16.5 80q0 56 26.5 101.5t73 72t103.5 26.5q32 0 59.5 -8.5t45.5 -23.5v26h119l-1 -185q0 -49 -14 -87t-48 -70q41 -31 64 -78.5t23 -103.5q0 -68 -31 -121t-85.5 -82t-120.5 -29
q-65 0 -118.5 29zM334.5 238q25.5 25 25.5 65q0 41 -25.5 66t-63.5 25q-39 0 -64 -25t-25 -66q0 -40 25 -65t64 -25q38 0 63.5 25zM351 -104q30 31 30 80q0 50 -29.5 80.5t-77.5 30.5q-46 0 -76 -30.5t-30 -80.5q0 -48 30 -79.5t75 -31.5q48 0 78 31zM183 572.5
q-42 22.5 -68.5 62.5t-29.5 90h117q4 -30 22.5 -49t49.5 -19t50 19t23 49h118q-4 -50 -30.5 -90t-69 -62.5t-91.5 -22.5t-91 22.5z" />
    <glyph glyph-name="gcircumflex.ss09" horiz-adv-x="554" 
d="M154.5 -227q-53.5 29 -85.5 82t-32 121q1 58 23.5 104.5t63.5 77.5q-32 30 -48.5 68t-16.5 80q0 56 26.5 101.5t73 72t103.5 26.5q32 0 59.5 -8.5t45.5 -23.5v26h119l-1 -185q0 -49 -14 -87t-48 -70q41 -31 64 -78.5t23 -103.5q0 -68 -31 -121t-85.5 -82t-120.5 -29
q-65 0 -118.5 29zM334.5 238q25.5 25 25.5 65q0 41 -25.5 66t-63.5 25q-39 0 -64 -25t-25 -66q0 -40 25 -65t64 -25q38 0 63.5 25zM351 -104q30 31 30 80q0 50 -29.5 80.5t-77.5 30.5q-46 0 -76 -30.5t-30 -80.5q0 -48 30 -79.5t75 -31.5q48 0 78 31zM274 805l194 -193
l-77 -77l-117 117l-117 -117l-76 77z" />
    <glyph glyph-name="uni0123.ss09" horiz-adv-x="554" 
d="M154.5 -227q-53.5 29 -85.5 82t-32 121q1 58 23.5 104.5t63.5 77.5q-32 30 -48.5 68t-16.5 80q0 56 26.5 101.5t73 72t103.5 26.5q32 0 59.5 -8.5t45.5 -23.5v26h119l-1 -185q0 -49 -14 -87t-48 -70q41 -31 64 -78.5t23 -103.5q0 -68 -31 -121t-85.5 -82t-120.5 -29
q-65 0 -118.5 29zM334.5 238q25.5 25 25.5 65q0 41 -25.5 66t-63.5 25q-39 0 -64 -25t-25 -66q0 -40 25 -65t64 -25q38 0 63.5 25zM351 -104q30 31 30 80q0 50 -29.5 80.5t-77.5 30.5q-46 0 -76 -30.5t-30 -80.5q0 -48 30 -79.5t75 -31.5q48 0 78 31zM401 671l-78 -129h-141
l111 192z" />
    <glyph glyph-name="gdotaccent.ss09" horiz-adv-x="554" 
d="M154.5 -227q-53.5 29 -85.5 82t-32 121q1 58 23.5 104.5t63.5 77.5q-32 30 -48.5 68t-16.5 80q0 56 26.5 101.5t73 72t103.5 26.5q32 0 59.5 -8.5t45.5 -23.5v26h119l-1 -185q0 -49 -14 -87t-48 -70q41 -31 64 -78.5t23 -103.5q0 -68 -31 -121t-85.5 -82t-120.5 -29
q-65 0 -118.5 29zM334.5 238q25.5 25 25.5 65q0 41 -25.5 66t-63.5 25q-39 0 -64 -25t-25 -66q0 -40 25 -65t64 -25q38 0 63.5 25zM351 -104q30 31 30 80q0 50 -29.5 80.5t-77.5 30.5q-46 0 -76 -30.5t-30 -80.5q0 -48 30 -79.5t75 -31.5q48 0 78 31zM215.5 576.5
q-24.5 24.5 -24.5 59.5t24.5 59.5t58.5 24.5q35 0 60 -24.5t25 -59.5t-25 -59.5t-60 -24.5q-34 0 -58.5 24.5z" />
    <glyph glyph-name="k.ss10" horiz-adv-x="490" 
d="M186 712v-230q16 10 39.5 17t47.5 7q52 0 92.5 -23t63 -63.5t22.5 -90.5q0 -58 -29.5 -100t-79.5 -60l130 -169h-156l-130 167v-167h-128v698zM306.5 278.5q20.5 18.5 20.5 48.5t-20.5 49t-51.5 19q-32 0 -52.5 -19t-20.5 -49t20.5 -48.5t52.5 -18.5q31 0 51.5 18.5z" />
    <glyph glyph-name="uni0137.ss10" horiz-adv-x="490" 
d="M186 712v-230q16 10 39.5 17t47.5 7q52 0 92.5 -23t63 -63.5t22.5 -90.5q0 -58 -29.5 -100t-79.5 -60l130 -169h-156l-130 167v-167h-128v698zM306.5 278.5q20.5 18.5 20.5 48.5t-20.5 49t-51.5 19q-32 0 -52.5 -19t-20.5 -49t20.5 -48.5t52.5 -18.5q31 0 51.5 18.5z
M170 -42h138l-139 -237l-105 60z" />
    <glyph glyph-name="u.ss11" horiz-adv-x="543" 
d="M109 51.5q-63 57.5 -63 164.5v284h128v-273q0 -54 26 -82.5t72 -28.5t72 28.5t26 82.5v273h128v-284q0 -107 -63 -164.5t-163 -57.5t-163 57.5z" />
    <glyph glyph-name="uacute.ss11" horiz-adv-x="543" 
d="M109 51.5q-63 57.5 -63 164.5v284h128v-273q0 -54 26 -82.5t72 -28.5t72 28.5t26 82.5v273h128v-284q0 -107 -63 -164.5t-163 -57.5t-163 57.5zM432 764l51 -104l-241 -113l-51 104z" />
    <glyph glyph-name="ubreve.ss11" horiz-adv-x="543" 
d="M109 51.5q-63 57.5 -63 164.5v284h128v-273q0 -54 26 -82.5t72 -28.5t72 28.5t26 82.5v273h128v-284q0 -107 -63 -164.5t-163 -57.5t-163 57.5zM183 572.5q-42 22.5 -68.5 62.5t-29.5 90h117q4 -30 22.5 -49t49.5 -19t50 19t23 49h118q-4 -50 -30.5 -90t-69 -62.5
t-91.5 -22.5t-91 22.5z" />
    <glyph glyph-name="ucircumflex.ss11" horiz-adv-x="543" 
d="M109 51.5q-63 57.5 -63 164.5v284h128v-273q0 -54 26 -82.5t72 -28.5t72 28.5t26 82.5v273h128v-284q0 -107 -63 -164.5t-163 -57.5t-163 57.5zM274 805l194 -193l-77 -77l-117 117l-117 -117l-76 77z" />
    <glyph glyph-name="udieresis.ss11" horiz-adv-x="543" 
d="M109 51.5q-63 57.5 -63 164.5v284h128v-273q0 -54 26 -82.5t72 -28.5t72 28.5t26 82.5v273h128v-284q0 -107 -63 -164.5t-163 -57.5t-163 57.5zM95.5 579q-23.5 24 -23.5 58t23.5 58t57.5 24t58 -24t24 -58t-24 -58t-58 -24t-57.5 24zM335.5 579q-23.5 24 -23.5 58
t23.5 58t57.5 24t58 -24t24 -58t-24 -58t-58 -24t-57.5 24z" />
    <glyph glyph-name="ugrave.ss11" horiz-adv-x="543" 
d="M109 51.5q-63 57.5 -63 164.5v284h128v-273q0 -54 26 -82.5t72 -28.5t72 28.5t26 82.5v273h128v-284q0 -107 -63 -164.5t-163 -57.5t-163 57.5zM116 764l241 -113l-51 -104l-241 113z" />
    <glyph glyph-name="uhungarumlaut.ss11" horiz-adv-x="543" 
d="M109 51.5q-63 57.5 -63 164.5v284h128v-273q0 -54 26 -82.5t72 -28.5t72 28.5t26 82.5v273h128v-284q0 -107 -63 -164.5t-163 -57.5t-163 57.5zM230 795l69 -88l-210 -162l-70 89zM474 795l69 -88l-210 -162l-70 89z" />
    <glyph glyph-name="umacron.ss11" horiz-adv-x="543" 
d="M109 51.5q-63 57.5 -63 164.5v284h128v-273q0 -54 26 -82.5t72 -28.5t72 28.5t26 82.5v273h128v-284q0 -107 -63 -164.5t-163 -57.5t-163 57.5zM431 694v-112h-315v112h315z" />
    <glyph glyph-name="uogonek.ss11" horiz-adv-x="543" 
d="M498 500v-284q0 -90 -45.5 -145.5t-121.5 -70.5l-36 -88q-1 -3 -6 -14.5t-5 -21.5q0 -28 35 -28h22v-98h-32q-58 0 -93.5 31.5t-35.5 81.5q0 25 15 63l30 72q-81 13 -130 68.5t-49 149.5v284h128v-273q0 -54 26 -82.5t72 -28.5t72 28.5t26 82.5v273h128z" />
    <glyph glyph-name="uring.ss11" horiz-adv-x="543" 
d="M109 51.5q-63 57.5 -63 164.5v284h128v-273q0 -54 26 -82.5t72 -28.5t72 28.5t26 82.5v273h128v-284q0 -107 -63 -164.5t-163 -57.5t-163 57.5zM199 581q-31 31 -31 76q0 44 31 75t76 31t76 -31t31 -75t-31 -75.5t-76 -31.5t-76 31zM295 636q8 8 8 21q0 12 -8 20t-20 8
q-13 0 -21 -8t-8 -20q0 -13 8 -21t21 -8q12 0 20 8z" />
    <glyph glyph-name="utilde.ss11" horiz-adv-x="543" 
d="M109 51.5q-63 57.5 -63 164.5v284h128v-273q0 -54 26 -82.5t72 -28.5t72 28.5t26 82.5v273h128v-284q0 -107 -63 -164.5t-163 -57.5t-163 57.5zM117 696q29 33 78 33q26 0 46 -8t40 -25l19 -14q3 -3 11.5 -9.5t14 -9.5t11.5 -3q19 0 19 23v46h103v-51q0 -60 -29 -93
t-78 -33q-26 0 -46 8t-40 25l-18 15q-4 3 -12.5 10t-14 9.5t-10.5 2.5q-10 0 -15 -6t-5 -17v-47h-103v51q0 60 29 93z" />
    <glyph glyph-name="w.ss12" horiz-adv-x="768" 
d="M145 500l88 -333l98 333h106l97 -333l89 333h124l-150 -500h-125l-88 298l-88 -298h-125l-150 500h124z" />
    <glyph glyph-name="wacute.ss12" horiz-adv-x="768" 
d="M145 500l88 -333l98 333h106l97 -333l89 333h124l-150 -500h-125l-88 298l-88 -298h-125l-150 500h124zM542 764l51 -104l-241 -113l-51 104z" />
    <glyph glyph-name="wcircumflex.ss12" horiz-adv-x="768" 
d="M145 500l88 -333l98 333h106l97 -333l89 333h124l-150 -500h-125l-88 298l-88 -298h-125l-150 500h124zM384 805l194 -193l-77 -77l-117 117l-117 -117l-76 77z" />
    <glyph glyph-name="wdieresis.ss12" horiz-adv-x="768" 
d="M145 500l88 -333l98 333h106l97 -333l89 333h124l-150 -500h-125l-88 298l-88 -298h-125l-150 500h124zM205.5 579q-23.5 24 -23.5 58t23.5 58t57.5 24t58 -24t24 -58t-24 -58t-58 -24t-57.5 24zM445.5 579q-23.5 24 -23.5 58t23.5 58t57.5 24t58 -24t24 -58t-24 -58
t-58 -24t-57.5 24z" />
    <glyph glyph-name="wgrave.ss12" horiz-adv-x="768" 
d="M145 500l88 -333l98 333h106l97 -333l89 333h124l-150 -500h-125l-88 298l-88 -298h-125l-150 500h124zM226 764l241 -113l-51 -104l-241 113z" />
    <glyph glyph-name="y.ss13" horiz-adv-x="536" 
d="M21 500h134l113 -266l113 266h134l-333 -750h-133l154 341z" />
    <glyph glyph-name="yacute.ss13" horiz-adv-x="536" 
d="M21 500h134l113 -266l113 266h134l-333 -750h-133l154 341zM426 764l51 -104l-241 -113l-51 104z" />
    <glyph glyph-name="ycircumflex.ss13" horiz-adv-x="536" 
d="M21 500h134l113 -266l113 266h134l-333 -750h-133l154 341zM268 805l194 -193l-77 -77l-117 117l-117 -117l-76 77z" />
    <glyph glyph-name="ydieresis.ss13" horiz-adv-x="536" 
d="M21 500h134l113 -266l113 266h134l-333 -750h-133l154 341zM89.5 579q-23.5 24 -23.5 58t23.5 58t57.5 24t58 -24t24 -58t-24 -58t-58 -24t-57.5 24zM329.5 579q-23.5 24 -23.5 58t23.5 58t57.5 24t58 -24t24 -58t-24 -58t-58 -24t-57.5 24z" />
    <glyph glyph-name="ygrave.ss13" horiz-adv-x="536" 
d="M21 500h134l113 -266l113 266h134l-333 -750h-133l154 341zM110 764l241 -113l-51 -104l-241 113z" />
    <glyph glyph-name="f_b" horiz-adv-x="977" 
d="M610.5 9q-35.5 15 -59.5 39v-48h-128v555q0 38 -23.5 63t-66.5 25q-45 0 -70 -25t-25 -63v-55h112v-119h-112v-381h-128v381h-96v119h96v61q0 66 30.5 111.5t81.5 68.5t111 23q58 0 108 -23t80 -68.5t30 -111.5v-107q24 24 60.5 38t80.5 14q73 0 129 -31.5t87.5 -90
t31.5 -134.5t-31.5 -134t-88 -90t-129.5 -32q-45 0 -80.5 15zM776 152.5q37 38.5 37 97.5q0 60 -37 98t-95 38t-94.5 -38t-36.5 -98t36.5 -98t94.5 -38t95 38.5z" />
    <glyph glyph-name="f_f_b" horiz-adv-x="1289" 
d="M920 10q-37 16 -60 42v-52h-125v555q0 38 -23.5 63t-66.5 25q-44 0 -69 -25t-25 -63v-55h112v-119h-112v-381h-128v381h-185v-381h-128v381h-96v119h96v61q0 66 30.5 111.5t81.5 68.5t111 23q44 0 85 -14t69 -42q29 28 70.5 42t87.5 14q59 0 108.5 -23t79.5 -68.5
t30 -111.5v-107q24 24 60.5 38t80.5 14q73 0 129 -31.5t87.5 -90t31.5 -134.5t-31.5 -134t-88 -90t-128.5 -32q-47 0 -84 16zM423 555q0 38 -23.5 63t-66.5 25q-45 0 -70 -25t-25 -63v-55h185v55zM1088.5 152q36.5 38 36.5 98t-36.5 98t-94.5 38t-95 -38t-37 -98
q0 -59 37 -97.5t95 -38.5t94.5 38z" />
    <glyph glyph-name="f_f_h" horiz-adv-x="1247" 
d="M14 381v119h96v61q0 66 30.5 111.5t81.5 68.5t111 23q44 0 85 -14t69 -42q29 28 70.5 42t87.5 14q59 0 108.5 -23t79.5 -68.5t30 -111.5v-112q24 26 58.5 41.5t77.5 15.5q89 0 142 -54t53 -152v-300h-128v270q0 115 -98 115q-48 0 -76.5 -32t-28.5 -83v-270h-128v555
q0 38 -23.5 63t-66.5 25q-44 0 -69 -25t-25 -63v-55h112v-119h-112v-381h-128v381h-185v-381h-128v381h-96zM423 555q0 38 -23.5 63t-66.5 25q-45 0 -70 -25t-25 -63v-55h185v55z" />
    <glyph glyph-name="f_f_j" horiz-adv-x="965" 
d="M784 576.5q-24 24.5 -24 59.5t24 59.5t59 24.5t59 -24.5t24 -59.5t-24 -59.5t-59 -24.5t-59 24.5zM569 381v-381h-128v381h-203v-381h-128v381h-96v119h96v60q0 69 45 107.5t112 38.5q92 0 131 -58l-81 -79q-7 11 -16 17t-25 6q-18 0 -28 -11.5t-10 -27.5v-53h203v60
q0 68 45 107t111 39q47 0 79 -14t53 -44l-82 -79q-6 11 -15 17t-25 6q-18 0 -28 -11.5t-10 -27.5v-53h338v-750l-128 -12v643h-210z" />
    <glyph glyph-name="f_f_k" horiz-adv-x="1213" 
d="M14 381v119h96v61q0 66 30.5 111.5t81.5 68.5t111 23q44 0 85 -14t69 -42q29 28 70.5 42t87.5 14q59 0 108.5 -23t79.5 -68.5t30 -111.5v-221l108 160h144l-111 -158l203 -342h-145l-137 231l-62 -89v-142h-128v555q0 38 -23.5 63t-66.5 25q-44 0 -69 -25t-25 -63v-55
h112v-119h-112v-381h-128v381h-185v-381h-128v381h-96zM423 555q0 38 -23.5 63t-66.5 25q-45 0 -70 -25t-25 -63v-55h185v55z" />
    <glyph glyph-name="f_h" horiz-adv-x="935" 
d="M14 381v119h96v61q0 66 30.5 111.5t81.5 68.5t111 23q58 0 108 -23t80 -68.5t30 -111.5v-112q23 26 57.5 41.5t77.5 15.5q90 0 143 -54t53 -152v-300h-128v270q0 55 -24 85t-74 30q-49 0 -77 -32t-28 -83v-270h-128v555q0 38 -23.5 63t-66.5 25q-45 0 -70 -25t-25 -63
v-55h112v-119h-112v-381h-128v381h-96z" />
    <glyph glyph-name="f_j" horiz-adv-x="635" 
d="M453.5 576.5q-24.5 24.5 -24.5 59.5t24.5 59.5t58.5 24.5q35 0 59.5 -24.5t24.5 -59.5t-24.5 -59.5t-59.5 -24.5q-34 0 -58.5 24.5zM238 381v-381h-128v381h-96v119h96v60q0 69 45 107.5t112 38.5q47 0 79 -14t52 -44l-81 -79q-7 11 -16 17t-24 6q-19 0 -29 -11.5
t-10 -27.5v-53h338v-750l-127 -12v643h-211z" />
    <glyph glyph-name="f_k" horiz-adv-x="901" 
d="M14 381v119h96v61q0 66 30.5 111.5t81.5 68.5t111 23q58 0 108 -23t80 -68.5t30 -111.5v-221l108 160h143l-110 -158l203 -342h-145l-137 231l-62 -89v-142h-128v555q0 38 -23.5 63t-66.5 25q-45 0 -70 -25t-25 -63v-55h112v-119h-112v-381h-128v381h-96z" />
    <glyph glyph-name="fi" unicode="&#xfb01;" horiz-adv-x="634" 
d="M453 576.5q-24 24.5 -24 59.5t24 59.5t59 24.5t59 -24.5t24 -59.5t-24 -59.5t-59 -24.5t-59 24.5zM14 381v119h96v60q0 69 45 107.5t112 38.5q47 0 79 -14t52 -44l-81 -79q-7 11 -16 17t-24 6q-19 0 -29 -11.5t-10 -27.5v-53h338v-500h-128v381h-210v-381h-128v381h-96z
" />
    <glyph glyph-name="fl" unicode="&#xfb02;" horiz-adv-x="609" 
d="M14 381v119h96v61q0 66 30.5 111.5t81.5 68.5t111 23q58 0 108 -23t80 -68.5t30 -111.5v-561h-128v555q0 38 -23.5 63t-66.5 25q-45 0 -70 -25t-25 -63v-55h112v-119h-112v-381h-128v381h-96z" />
    <glyph glyph-name="f_f_i.ss01" horiz-adv-x="952" 
d="M913 712v-140h-141v140h141zM14 381v119h96v60q0 69 45 107.5t112 38.5q92 0 131 -58l-81 -79q-7 11 -16 17t-25 6q-18 0 -28 -11.5t-10 -27.5v-53h203v60q0 68 45 107t111 39q47 0 79 -14t53 -44l-82 -79q-6 11 -15 17t-25 6q-18 0 -28 -11.5t-10 -27.5v-53h338v-500
h-128v381h-210v-381h-128v381h-203v-381h-128v381h-96z" />
    <glyph glyph-name="f_f_j.ss01" horiz-adv-x="952" 
d="M913 712v-140h-141v140h141zM569 381v-381h-128v381h-203v-381h-128v381h-96v119h96v60q0 69 45 107.5t112 38.5q92 0 131 -58l-81 -79q-7 11 -16 17t-25 6q-18 0 -28 -11.5t-10 -27.5v-53h203v60q0 68 45 107t111 39q47 0 79 -14t53 -44l-82 -79q-6 11 -15 17t-25 6
q-18 0 -28 -11.5t-10 -27.5v-53h338v-750l-128 -12v643h-210z" />
    <glyph glyph-name="f_i.ss01" horiz-adv-x="621" 
d="M582 712v-140h-141v140h141zM14 381v119h96v60q0 69 45 107.5t112 38.5q92 0 131 -58l-81 -79q-7 11 -16 17t-25 6q-18 0 -28 -11.5t-10 -27.5v-53h338v-500h-128v381h-210v-381h-128v381h-96z" />
    <glyph glyph-name="f_j.ss01" horiz-adv-x="621" 
d="M582 712v-140h-141v140h141zM238 381v-381h-128v381h-96v119h96v60q0 69 45 107.5t112 38.5q47 0 79 -14t52 -44l-81 -79q-7 11 -16 17t-24 6q-19 0 -29 -11.5t-10 -27.5v-53h338v-750l-128 -12v643h-210z" />
    <glyph glyph-name="fi.ss01" horiz-adv-x="621" 
d="M582 712v-140h-141v140h141zM14 381v119h96v60q0 69 45 107.5t112 38.5q92 0 131 -58l-81 -79q-7 11 -16 17t-25 6q-18 0 -28 -11.5t-10 -27.5v-53h338v-500h-128v381h-210v-381h-128v381h-96z" />
    <glyph glyph-name="f_f_j.ss05" horiz-adv-x="965" 
d="M784 576.5q-24 24.5 -24 59.5t24 59.5t59 24.5t59 -24.5t24 -59.5t-24 -59.5t-59 -24.5t-59 24.5zM628 -232.5q-42 23.5 -65.5 65.5t-23.5 94h128q0 -29 16 -45.5t40 -16.5t40 17t16 48v451h-210v-381h-128v381h-203v-381h-128v381h-96v119h96v60q0 69 45 107.5t112 38.5
q92 0 131 -58l-81 -79q-7 11 -16 17t-25 6q-18 0 -28 -11.5t-10 -27.5v-53h203v60q0 68 45 107t111 39q47 0 79 -14t53 -44l-82 -79q-6 11 -15 17t-25 6q-18 0 -28 -11.5t-10 -27.5v-53h338v-575q0 -51 -23.5 -92.5t-65.5 -65t-95 -23.5t-95 23.5z" />
    <glyph glyph-name="f_j.ss05" horiz-adv-x="635" 
d="M453.5 576.5q-24.5 24.5 -24.5 59.5t24.5 59.5t58.5 24.5q35 0 59.5 -24.5t24.5 -59.5t-24.5 -59.5t-59.5 -24.5q-34 0 -58.5 24.5zM297 -232.5q-42 23.5 -65.5 65.5t-23.5 94h128q0 -29 16 -45.5t40 -16.5q25 0 41 17t16 48v451h-211v-381h-128v381h-96v119h96v60
q0 69 45 107.5t112 38.5q47 0 79 -14t52 -44l-81 -79q-7 11 -16 17t-24 6q-19 0 -29 -11.5t-10 -27.5v-53h338v-575q0 -51 -23.5 -92.5t-65.5 -65t-95 -23.5t-95 23.5z" />
    <glyph glyph-name="f_f_j.ss01.ss05" horiz-adv-x="952" 
d="M913 712v-140h-141v140h141zM627 -232.5q-42 23.5 -65.5 65.5t-23.5 94h128q0 -29 16 -45.5t40 -16.5q25 0 41 17t16 48v451h-210v-381h-128v381h-203v-381h-128v381h-96v119h96v60q0 69 45 107.5t112 38.5q92 0 131 -58l-81 -79q-7 11 -16 17t-25 6q-18 0 -28 -11.5
t-10 -27.5v-53h203v60q0 68 45 107t111 39q47 0 79 -14t53 -44l-82 -79q-6 11 -15 17t-25 6q-18 0 -28 -11.5t-10 -27.5v-53h338v-575q0 -51 -23.5 -92.5t-66 -65t-95.5 -23.5t-95 23.5z" />
    <glyph glyph-name="f_j.ss01.ss05" horiz-adv-x="621" 
d="M582 710v-138h-139v138h139zM297 -232.5q-42 23.5 -65.5 65.5t-23.5 94h128q0 -29 16 -45.5t40 -16.5q25 0 41 17t16 48v451h-211v-381h-128v381h-96v119h96v60q0 69 45 107.5t112 38.5q47 0 79 -14t52 -44l-81 -79q-7 11 -16 17t-24 6q-19 0 -29 -11.5t-10 -27.5v-53
h338v-575q0 -51 -23.5 -92.5t-65.5 -65t-95 -23.5t-95 23.5z" />
    <glyph glyph-name="ordfeminine" unicode="&#xaa;" horiz-adv-x="384" 
d="M78 430.5q-43 44.5 -43 114.5t43 115.5t110 45.5q27 0 49.5 -10t34.5 -24v28h77v-310h-77v29q-13 -15 -34.5 -24t-48.5 -9q-68 0 -111 44.5zM250.5 484.5q22.5 24.5 22.5 60.5q0 37 -22.5 62t-57.5 25q-36 0 -59.5 -25.5t-23.5 -61.5t23.5 -60.5t59.5 -24.5
q35 0 57.5 24.5zM349 352v-67h-296v67h296z" />
    <glyph glyph-name="ordmasculine" unicode="&#xba;" horiz-adv-x="392" 
d="M115 409q-36 21 -57 57.5t-21 80.5q0 45 20.5 81.5t57 57t81.5 20.5t81.5 -20.5t57 -57t20.5 -81.5t-20.5 -81t-57 -57t-81.5 -21t-81 21zM255 486q23 24 23 61q0 38 -22.5 62t-59.5 24t-59.5 -24t-22.5 -62q0 -37 23 -61t59 -24t59 24zM337 352v-67h-282v67h282z" />
    <glyph glyph-name="uni0394" unicode="&#x394;" horiz-adv-x="657" 
d="M390 700l260 -700h-642l260 700h122zM329 501l-130 -380h260z" />
    <glyph glyph-name="Pi" unicode="&#x3a0;" horiz-adv-x="604" 
d="M542 700v-700h-131v577h-218v-577h-131v700h480z" />
    <glyph glyph-name="uni03A9" unicode="&#x3a9;" horiz-adv-x="795" 
d="M155 124q-47 46 -76 107t-29 128q0 97 44 176.5t123.5 125t180.5 45.5t180 -45.5t123 -125t44 -176.5q0 -67 -29 -128t-76 -107h111v-124h-301v122q74 26 119 89.5t45 141.5q0 66 -27.5 117.5t-76.5 80.5t-112 29t-112.5 -29t-77 -80.5t-27.5 -117.5q0 -78 45.5 -141.5
t119.5 -89.5v-122h-302v124h111z" />
    <glyph glyph-name="uni03BC" unicode="&#x3bc;" horiz-adv-x="571" 
d="M186 500v-269q0 -59 24 -87t74 -28q48 0 74.5 31.5t26.5 83.5v269h128v-500h-128v51q-21 -25 -54 -41t-77 -16q-36 0 -68 10v-254l-128 -14v764h128z" />
    <glyph glyph-name="pi" unicode="&#x3c0;" horiz-adv-x="649" 
d="M60 381v119h529v-119h-99v-381h-128v381h-73v-381h-128v381h-101z" />
    <glyph glyph-name="zero" unicode="0" horiz-adv-x="780" 
d="M213 41.5q-79 47.5 -124 129t-45 179.5t45 179.5t124 129t177 47.5t177 -47.5t124 -129t45 -179.5t-45 -179.5t-124 -129t-177 -47.5t-177 47.5zM501 150q49 30 76 82.5t27 117.5t-27 117.5t-76 82.5t-111 30t-110.5 -30t-76 -82.5t-27.5 -117.5t27.5 -117.5t76 -82.5
t110.5 -30t111 30z" />
    <glyph glyph-name="one" unicode="1" horiz-adv-x="255" 
d="M193 706v-706h-131v692z" />
    <glyph glyph-name="two" unicode="2" horiz-adv-x="571" 
d="M92.5 266q39.5 59 124.5 93l35 13q43 14 68.5 26.5t42.5 34.5t17 57q0 42 -26.5 67.5t-72.5 25.5q-44 0 -74.5 -25t-45.5 -69l-94 81q26 61 83 98.5t131 37.5q71 0 122.5 -27t79 -75t27.5 -111q0 -86 -48.5 -140.5t-131.5 -82.5q-49 -17 -77 -29.5t-48.5 -38t-20.5 -65.5
v-13h326v-124h-457v130q0 77 39.5 136z" />
    <glyph glyph-name="three" unicode="3" horiz-adv-x="550" 
d="M148.5 25q-53.5 31 -83 83.5t-29.5 114.5h126q0 -46 29.5 -77.5t78.5 -31.5t77 29t28 77q0 50 -29 77t-79 27h-44v124h40q35 0 55.5 18.5t20.5 52.5q0 32 -20 50t-50 18t-51.5 -17t-33.5 -47l-91 73q23 47 71 78.5t108 31.5q87 0 140.5 -48.5t53.5 -127.5q0 -37 -15 -71
t-43 -59q98 -60 98 -180q0 -69 -31.5 -120.5t-85.5 -78.5t-119 -27q-68 0 -121.5 31z" />
    <glyph glyph-name="four" unicode="4" horiz-adv-x="592" 
d="M62 230v463l130 13v-353h127v259h131v-259h94v-123h-94v-230h-131v230h-257z" />
    <glyph glyph-name="five" unicode="5" horiz-adv-x="545" 
d="M151 24.5q-54 30.5 -84 82.5t-30 115h130q1 -46 31.5 -76.5t75.5 -30.5q47 0 75.5 30t28.5 80t-27 80t-75 30q-24 0 -44.5 -9t-34.5 -25h-116v399h383v-123h-261v-150q19 12 44 19t51 7q60 0 107.5 -28.5t75 -80.5t27.5 -119q0 -66 -31 -119t-85 -82.5t-119 -29.5
q-68 0 -122 30.5z" />
    <glyph glyph-name="six" unicode="6" horiz-adv-x="545" 
d="M150.5 24q-53.5 30 -83.5 82.5t-30 117.5q0 38 12.5 71.5t38.5 83.5l170 321h140l-134 -252q15 3 27 3q62 0 111 -28t77.5 -79.5t28.5 -119.5q0 -65 -30.5 -117.5t-84.5 -82.5t-122 -30q-67 0 -120.5 30zM348.5 144.5q29.5 31.5 29.5 79.5t-29.5 79t-77.5 31t-77 -31
t-29 -79q0 -49 29.5 -80t76.5 -31q48 0 77.5 31.5z" />
    <glyph glyph-name="seven" unicode="7" horiz-adv-x="529" 
d="M130 292v113h131l91 172h-318v123h461v-108l-97 -187h57v-113h-116l-151 -292h-139l153 292h-72z" />
    <glyph glyph-name="eight" unicode="8" horiz-adv-x="554" 
d="M157.5 24q-53.5 30 -83.5 81.5t-30 113.5q0 56 25.5 102.5t70.5 77.5q-54 51 -54 123q0 52 24.5 94t68 66t98.5 24t98.5 -24t68 -66t24.5 -94q0 -73 -55 -123q46 -31 71.5 -77.5t25.5 -102.5q0 -62 -30 -113.5t-83.5 -81.5t-119.5 -30t-119.5 30zM327.5 468
q19.5 20 19.5 51t-19.5 51t-50.5 20t-50.5 -20t-19.5 -51t19.5 -51t50.5 -20t50.5 20zM350.5 142q28.5 29 28.5 77t-28.5 77t-73.5 29t-74 -29t-29 -77t29 -77t74 -29t73.5 29z" />
    <glyph glyph-name="nine" unicode="9" horiz-adv-x="572" 
d="M328.5 263.5q-30.5 -10.5 -67.5 -10.5q-62 0 -113 28.5t-81 80t-30 117.5q0 67 29.5 118.5t80.5 80t112 28.5q78 0 120 -44v32l131 12v-706h-131v294q-20 -20 -50.5 -30.5zM351 398.5q30 31.5 30 80.5q0 48 -30.5 79.5t-76.5 31.5t-76 -31.5t-30 -79.5q0 -49 30 -80.5
t76 -31.5q47 0 77 31.5z" />
    <glyph glyph-name="zero.osf" horiz-adv-x="589" 
d="M162 27.5q-59 33.5 -92 92t-33 130.5t33 130.5t92 92t133 33.5q73 0 132 -33.5t92 -92t33 -130.5t-33 -130.5t-92 -92t-132 -33.5q-74 0 -133 33.5zM387 154q35 37 35 96t-35 96.5t-92 37.5t-92.5 -37.5t-35.5 -96.5t35.5 -96t92.5 -37t92 37z" />
    <glyph glyph-name="one.osf" horiz-adv-x="247" 
d="M189 500v-500h-131v500h131z" />
    <glyph glyph-name="two.osf" horiz-adv-x="521" 
d="M95 203q42 46 135 61q42 7 64 14t32 19.5t10 34.5q0 28 -22 44t-56 16q-39 0 -68.5 -20.5t-42.5 -51.5l-86 73q22 49 75 81t124 32q54 0 100 -20t73 -58t27 -89q0 -72 -43.5 -108t-137.5 -56q-54 -11 -75 -27.5t-21 -40.5h277v-107h-407v83q0 74 42 120z" />
    <glyph glyph-name="three.osf" horiz-adv-x="550" 
d="M148.5 -175q-53.5 31 -83 83.5t-29.5 114.5h126q0 -46 29.5 -77.5t78.5 -31.5t77 29t28 77q0 50 -29 77t-79 27h-44v124h40q35 0 55.5 18.5t20.5 52.5q0 32 -20 50t-50 18t-51.5 -17t-33.5 -47l-91 73q23 47 71 78.5t108 31.5q87 0 140.5 -48.5t53.5 -127.5
q0 -37 -15 -71t-43 -59q98 -60 98 -180q0 -69 -31.5 -120.5t-85.5 -78.5t-119 -27q-68 0 -121.5 31z" />
    <glyph glyph-name="four.osf" horiz-adv-x="598" 
d="M62 37v457l129 13v-347h138v247h129v-247h92v-123h-92v-242h-129v242h-267z" />
    <glyph glyph-name="five.osf" horiz-adv-x="545" 
d="M151 -175.5q-54 30.5 -84 82.5t-30 115h130q1 -46 31.5 -76.5t75.5 -30.5q47 0 75.5 30t28.5 80t-27 80t-75 30q-24 0 -44.5 -9t-34.5 -25h-116v399h383v-123h-261v-150q19 12 44 19t51 7q60 0 107.5 -28.5t75 -80.5t27.5 -119q0 -66 -31 -119t-85 -82.5t-119 -29.5
q-68 0 -122 30.5z" />
    <glyph glyph-name="six.osf" horiz-adv-x="545" 
d="M150.5 24q-53.5 30 -83.5 82.5t-30 117.5q0 38 12.5 71.5t38.5 83.5l170 321h140l-134 -252q15 3 27 3q62 0 111 -28t77.5 -79.5t28.5 -119.5q0 -65 -30.5 -117.5t-84.5 -82.5t-122 -30q-67 0 -120.5 30zM348.5 144.5q29.5 31.5 29.5 79.5t-29.5 79t-77.5 31t-77 -31
t-29 -79q0 -49 29.5 -80t76.5 -31q48 0 77.5 31.5z" />
    <glyph glyph-name="seven.osf" horiz-adv-x="529" 
d="M130 92v113h131l91 172h-318v123h461v-108l-97 -187h57v-113h-116l-151 -292h-139l153 292h-72z" />
    <glyph glyph-name="eight.osf" horiz-adv-x="554" 
d="M157.5 24q-53.5 30 -83.5 81.5t-30 113.5q0 56 25.5 102.5t70.5 77.5q-54 51 -54 123q0 52 24.5 94t68 66t98.5 24t98.5 -24t68 -66t24.5 -94q0 -73 -55 -123q46 -31 71.5 -77.5t25.5 -102.5q0 -62 -30 -113.5t-83.5 -81.5t-119.5 -30t-119.5 30zM327.5 468
q19.5 20 19.5 51t-19.5 51t-50.5 20t-50.5 -20t-19.5 -51t19.5 -51t50.5 -20t50.5 20zM350.5 142q28.5 29 28.5 77t-28.5 77t-73.5 29t-74 -29t-29 -77t29 -77t74 -29t73.5 29z" />
    <glyph glyph-name="nine.osf" horiz-adv-x="561" 
d="M323 62.5q-31 -10.5 -66 -10.5q-64 0 -114 29.5t-78 81t-28 116.5t28 117t78 81t114 29q40 0 72 -12t52 -33v32l122 13v-706h-128v293q-21 -20 -52 -30.5zM347 199q30 31 30 80t-30 80.5t-77 31.5t-77 -31.5t-30 -80.5t30 -80t77 -31t77 31z" />
    <glyph glyph-name="one.osf.ss14" horiz-adv-x="379" 
d="M26 305v124h164v71h131v-500h-131v305h-164z" />
    <glyph glyph-name="seven.osf.ss14" horiz-adv-x="529" 
d="M34 377v123h461v-108l-307 -592h-139l303 577h-318z" />
    <glyph glyph-name="nine.osf.ss14" horiz-adv-x="545" 
d="M395 476q53 -30 83 -82.5t30 -117.5q0 -38 -12.5 -72.5t-37.5 -82.5l-171 -321h-139l133 252q-13 -3 -27 -3q-62 0 -111 28t-77.5 79.5t-28.5 120.5q0 65 30.5 117.5t84.5 82t122 29.5t121 -30zM197.5 356q-29.5 -31 -29.5 -80q0 -48 29 -79t77 -31t77.5 31t29.5 79
t-29.5 79.5t-77.5 31.5q-47 0 -76.5 -31z" />
    <glyph glyph-name="zero.osf.zero" horiz-adv-x="589" 
d="M427 472.5q59 -33.5 92 -92t33 -130.5t-33 -130.5t-92 -92t-132 -33.5q-74 0 -133 33.5t-92 92t-33 130.5t33 130.5t92 92t133 33.5q73 0 132 -33.5zM196.5 352.5q-37.5 -39.5 -37.5 -102.5q0 -25 6 -46l184 178q-27 10 -54 10q-61 0 -98.5 -39.5zM392.5 148
q37.5 39 37.5 102q0 25 -6 47l-184 -178q27 -10 55 -10q60 0 97.5 39z" />
    <glyph glyph-name="one.ss14" horiz-adv-x="383" 
d="M26 491v123h164v86h131v-700h-131v491h-164z" />
    <glyph glyph-name="seven.ss14" horiz-adv-x="529" 
d="M34 577v123h461v-108l-307 -592h-139l303 577h-318z" />
    <glyph glyph-name="nine.ss14" horiz-adv-x="545" 
d="M395 676q53 -30 83 -82.5t30 -117.5q0 -38 -12.5 -72.5t-37.5 -82.5l-171 -321h-139l133 252q-13 -3 -27 -3q-62 0 -111 28t-77.5 79.5t-28.5 120.5q0 65 30.5 117.5t84.5 82t122 29.5t121 -30zM197.5 556q-29.5 -31 -29.5 -80q0 -48 29 -79t77 -31t77.5 31t29.5 79
t-29.5 79.5t-77.5 31.5q-47 0 -76.5 -31z" />
    <glyph glyph-name="zero.tf" 
d="M160.5 37.5q-58.5 43.5 -89.5 124t-31 188.5t31 188.5t89.5 124t139.5 43.5t139.5 -43.5t89.5 -124t31 -188.5t-31 -188.5t-89.5 -124t-139.5 -43.5t-139.5 43.5zM394.5 181.5q33.5 61.5 33.5 168.5t-33.5 168.5t-94.5 61.5t-94 -61.5t-33 -168.5t33 -168.5t94 -61.5
t94.5 61.5z" />
    <glyph glyph-name="one.tf" 
d="M236 124v367h-164v123h164v86h131v-576h162v-124h-458v124h165z" />
    <glyph glyph-name="two.tf" 
d="M236 359l35 12q44 15 68.5 27.5t41.5 34.5t17 57q0 42 -26.5 67.5t-72.5 25.5q-43 0 -74 -25t-45 -69l-94 81q26 61 83 98.5t131 37.5q71 0 122.5 -27t79 -75t27.5 -111q0 -159 -180 -223q-49 -17 -76.5 -29.5t-48.5 -38t-21 -65.5v-13h326v-124h-458v130q0 163 165 229z
" />
    <glyph glyph-name="three.tf" 
d="M177.5 25q-53.5 31 -83 83.5t-29.5 114.5h125q1 -46 30 -77.5t80 -31.5q48 0 76.5 29t28.5 77q0 50 -29.5 77t-79.5 27h-45v124h42q34 0 54.5 18.5t20.5 52.5q0 32 -20 50t-50 18t-51.5 -17t-34.5 -47l-90 73q23 47 71 78.5t108 31.5q87 0 140.5 -48.5t53.5 -127.5
q0 -37 -15 -71t-43 -59q98 -60 98 -180q0 -69 -31.5 -120.5t-85.5 -78.5t-119 -27q-68 0 -121.5 31z" />
    <glyph glyph-name="four.tf" 
d="M63 230v467l130 14v-358h122v259h131v-259h91v-123h-91v-230h-131v230h-252z" />
    <glyph glyph-name="five.tf" 
d="M179 24.5q-54 30.5 -84 82.5t-30 115h130q1 -46 31.5 -76.5t75.5 -30.5q47 0 75.5 30t28.5 80t-27 80t-75 30q-24 0 -44.5 -9t-34.5 -25h-116v399h383v-123h-261v-150q19 12 44 19t51 7q60 0 107.5 -28.5t75 -80.5t27.5 -119q0 -66 -31 -119t-85 -82.5t-119 -29.5
q-68 0 -122 30.5z" />
    <glyph glyph-name="six.tf" 
d="M178.5 24q-53.5 30 -83.5 82.5t-30 117.5q0 38 12.5 71.5t38.5 83.5l170 321h140l-134 -252q15 3 27 3q62 0 111 -28t77.5 -79.5t28.5 -119.5q0 -65 -30.5 -117.5t-84.5 -82.5t-122 -30q-67 0 -120.5 30zM376.5 144.5q29.5 31.5 29.5 79.5t-29.5 79t-77.5 31t-77 -31
t-29 -79q0 -49 29.5 -80t76.5 -31q48 0 77.5 31.5z" />
    <glyph glyph-name="seven.tf" 
d="M166 292v113h131l91 172h-318v123h461v-108l-97 -187h57v-113h-116l-151 -292h-139l153 292h-72z" />
    <glyph glyph-name="eight.tf" 
d="M184.5 24q-53.5 30 -83.5 81.5t-30 113.5q0 56 25.5 102.5t70.5 77.5q-54 51 -54 123q0 52 24.5 94t68 66t98.5 24t98.5 -24t68 -66t24.5 -94q0 -73 -55 -123q46 -31 71.5 -77.5t25.5 -102.5q0 -62 -30 -113.5t-83.5 -81.5t-119.5 -30t-119.5 30zM354.5 468
q19.5 20 19.5 51t-19.5 51t-50.5 20t-50.5 -20t-19.5 -51t19.5 -51t50.5 -20t50.5 20zM377.5 142q28.5 29 28.5 77t-28.5 77t-73.5 29t-74 -29t-29 -77t29 -77t74 -29t73.5 29z" />
    <glyph glyph-name="nine.tf" 
d="M355.5 253.5q-33.5 -11.5 -72.5 -11.5q-63 0 -114.5 28.5t-81 81t-29.5 121.5q0 70 30 123t81.5 81.5t115.5 28.5q41 0 73.5 -13t52.5 -34v39l131 13v-711h-131v288q-22 -23 -55.5 -34.5zM381 389q32 33 32 84t-32 84t-81 33t-80 -33t-31 -84t31 -84t80 -33t81 33z" />
    <glyph glyph-name="seven.tf.ss14" 
d="M69 577v123h461v-108l-306 -592h-140l303 577h-318z" />
    <glyph glyph-name="nine.tf.ss14" 
d="M423 676q53 -30 83 -82.5t30 -117.5q0 -38 -12.5 -72.5t-37.5 -82.5l-171 -321h-139l133 252q-13 -3 -27 -3q-62 0 -111 28t-77.5 79.5t-28.5 120.5q0 65 30.5 117.5t84.5 82t122 29.5t121 -30zM225.5 556q-29.5 -31 -29.5 -80q0 -48 29 -79t77 -31t77.5 31t29.5 79
t-29.5 79.5t-77.5 31.5q-47 0 -76.5 -31z" />
    <glyph glyph-name="zero.tf.zero" 
d="M160.5 37.5q-58.5 43.5 -89.5 124t-31 188.5t31 188.5t89.5 124t139.5 43.5t139.5 -43.5t89.5 -124t31 -188.5t-31 -188.5t-89.5 -124t-139.5 -43.5t-139.5 43.5zM300 586q-62 0 -96 -62.5t-34 -170.5q0 -33 3 -47l221 221q-35 59 -94 59zM396 177.5q34 62.5 35 170.5
q0 26 -3 48l-222 -222q34 -59 94 -59q62 0 96 62.5z" />
    <glyph glyph-name="zero.tosf" 
d="M165 27.5q-59 33.5 -92 92t-33 130.5t33 130.5t92 92t133 33.5q73 0 132 -33.5t92 -92t33 -130.5t-33 -130.5t-92 -92t-132 -33.5q-74 0 -133 33.5zM390 154q35 37 35 96t-35 96.5t-92 37.5t-92.5 -37.5t-35.5 -96.5t35.5 -96t92.5 -37t92 37z" />
    <glyph glyph-name="one.tosf" 
d="M235 118v187h-150v124h150v71h131v-382h152v-118h-435v118h152z" />
    <glyph glyph-name="two.tosf" 
d="M139 203q42 46 135 61q42 7 64 14t32 19.5t10 34.5q0 28 -22 44t-56 16q-39 0 -68.5 -20.5t-42.5 -51.5l-86 73q22 49 75 81t124 32q54 0 100 -20t73 -58t27 -89q0 -72 -43.5 -108t-137.5 -56q-54 -11 -75 -27.5t-21 -40.5h277v-107h-407v83q0 74 42 120z" />
    <glyph glyph-name="three.tosf" 
d="M177.5 -175q-53.5 31 -83 83.5t-29.5 114.5h126q0 -46 29.5 -77.5t78.5 -31.5t77 29t28 77q0 50 -29 77t-79 27h-44v124h40q35 0 55.5 18.5t20.5 52.5q0 32 -20 50t-50 18t-51.5 -17t-33.5 -47l-91 73q23 47 71 78.5t108 31.5q87 0 140.5 -48.5t53.5 -127.5
q0 -37 -15 -71t-43 -59q98 -60 98 -180q0 -69 -31.5 -120.5t-85.5 -78.5t-119 -27q-68 0 -121.5 31z" />
    <glyph glyph-name="four.tosf" 
d="M56 37v457l129 13v-347h138v247h129v-247h92v-123h-92v-242h-129v242h-267z" />
    <glyph glyph-name="five.tosf" 
d="M179 -175.5q-54 30.5 -84 82.5t-30 115h130q1 -46 31.5 -76.5t75.5 -30.5q47 0 75.5 30t28.5 80t-27 80t-75 30q-24 0 -44.5 -9t-34.5 -25h-116v399h383v-123h-261v-150q19 12 44 19t51 7q60 0 107.5 -28.5t75 -80.5t27.5 -119q0 -66 -31 -119t-85 -82.5t-119 -29.5
q-68 0 -122 30.5z" />
    <glyph glyph-name="six.tosf" 
d="M178.5 24q-53.5 30 -83.5 82.5t-30 117.5q0 38 12.5 71.5t38.5 83.5l170 321h140l-134 -252q15 3 27 3q62 0 111 -28t77.5 -79.5t28.5 -119.5q0 -65 -30.5 -117.5t-84.5 -82.5t-122 -30q-67 0 -120.5 30zM376.5 144.5q29.5 31.5 29.5 79.5t-29.5 79t-77.5 31t-77 -31
t-29 -79q0 -49 29.5 -80t76.5 -31q48 0 77.5 31.5z" />
    <glyph glyph-name="seven.tosf" 
d="M166 92v113h131l91 172h-318v123h461v-108l-97 -187h57v-113h-116l-151 -292h-139l153 292h-72z" />
    <glyph glyph-name="eight.tosf" 
d="M180.5 24q-53.5 30 -83.5 81.5t-30 113.5q0 56 25.5 102.5t70.5 77.5q-54 51 -54 123q0 52 24.5 94t68 66t98.5 24t98.5 -24t68 -66t24.5 -94q0 -73 -55 -123q46 -31 71.5 -77.5t25.5 -102.5q0 -62 -30 -113.5t-83.5 -81.5t-119.5 -30t-119.5 30zM350.5 468
q19.5 20 19.5 51t-19.5 51t-50.5 20t-50.5 -20t-19.5 -51t19.5 -51t50.5 -20t50.5 20zM373.5 142q28.5 29 28.5 77t-28.5 77t-73.5 29t-74 -29t-29 -77t29 -77t74 -29t73.5 29z" />
    <glyph glyph-name="nine.tosf" 
d="M353 62.5q-31 -10.5 -66 -10.5q-64 0 -114 29.5t-78 81t-28 116.5t28 117t78 81t114 29q40 0 72 -12t52 -33v32l122 13v-706h-128v293q-21 -20 -52 -30.5zM377 199q30 31 30 80t-30 80.5t-77 31.5t-77 -31.5t-30 -80.5t30 -80t77 -31t77 31z" />
    <glyph glyph-name="seven.tosf.ss14" 
d="M70 377v123h461v-108l-307 -592h-139l303 577h-318z" />
    <glyph glyph-name="zero.tosf.zero" 
d="M432 472.5q59 -33.5 92 -92t33 -130.5t-33 -130.5t-92 -92t-132 -33.5t-132 33.5t-92 92t-33 130.5t33 130.5t92 92t132 33.5t132 -33.5zM202 352.5q-38 -39.5 -38 -102.5q0 -27 7 -48l185 179q-25 11 -56 11q-60 0 -98 -39.5zM398.5 148.5q37.5 39.5 37.5 101.5
q0 27 -7 48l-185 -179q28 -10 56 -10q61 0 98.5 39.5z" />
    <glyph glyph-name="zero.zero" horiz-adv-x="780" 
d="M567 658.5q79 -47.5 124 -129t45 -179.5t-45 -179.5t-124 -129t-177 -47.5t-177 47.5t-124 129t-45 179.5t45 179.5t124 129t177 47.5t177 -47.5zM278.5 551.5q-49.5 -30.5 -77 -83.5t-27.5 -118q0 -62 24 -110l309 309q-52 33 -117 33q-62 0 -111.5 -30.5zM502 148.5
q49 30.5 76.5 83.5t27.5 118q0 62 -24 110l-308 -308q49 -34 116 -34q63 0 112 30.5z" />
    <glyph glyph-name="uni2080" unicode="&#x2080;" horiz-adv-x="356" 
d="M77 -211q-41 45 -41 138t41 138t101 45t101 -45t41 -138t-41 -138t-101 -45t-101 45zM222.5 -153.5q16.5 25.5 16.5 80.5t-16.5 80.5t-44.5 25.5t-44.5 -25.5t-16.5 -80.5t16.5 -80.5t44.5 -25.5t44.5 25.5z" />
    <glyph glyph-name="uni2081" unicode="&#x2081;" horiz-adv-x="155" 
d="M119 112v-362h-83v355z" />
    <glyph glyph-name="uni2082" unicode="&#x2082;" horiz-adv-x="313" 
d="M66.5 -98q26.5 29 76.5 45q31 9 45.5 19t14.5 30q0 19 -10.5 28.5t-30.5 9.5t-34.5 -13.5t-21.5 -38.5l-58 53q14 35 45.5 55t70.5 20q55 0 87 -30.5t32 -82.5q0 -43 -23 -71t-71 -45q-34 -11 -51 -21.5t-17 -33.5h161v-76h-242v75q0 48 26.5 77z" />
    <glyph glyph-name="uni2083" unicode="&#x2083;" horiz-adv-x="308" 
d="M65.5 -218.5q-35.5 37.5 -35.5 91.5h77q1 -24 13.5 -39t34.5 -15q21 0 31.5 12t10.5 33t-12 32t-34 11h-26v75h26q13 0 20 8t7 21q0 11 -7 18t-18 7q-28 0 -41 -37l-55 48q12 29 38.5 46t58.5 17q45 0 72.5 -25.5t27.5 -67.5q0 -39 -22 -64q44 -34 44 -90
q0 -52 -34 -85.5t-87 -33.5q-54 0 -89.5 37.5z" />
    <glyph glyph-name="uni2084" unicode="&#x2084;" horiz-adv-x="330" 
d="M36 -131v236l80 8v-168h56v120h81v-120h45v-76h-45v-119h-81v119h-136z" />
    <glyph glyph-name="uni2085" unicode="&#x2085;" horiz-adv-x="304" 
d="M68.5 -222.5q-34.5 33.5 -34.5 83.5h80q1 -19 12.5 -31t28.5 -12q18 0 28.5 13t10.5 35q0 21 -9.5 33t-27.5 12q-20 0 -30 -18h-71v212h198v-75h-121v-56q14 7 33 7q48 0 78 -31.5t30 -83.5t-34 -87t-85 -35q-52 0 -86.5 33.5z" />
    <glyph glyph-name="uni2086" unicode="&#x2086;" horiz-adv-x="300" 
d="M239.5 -54.5q30.5 -32.5 30.5 -82.5q0 -52 -34 -85.5t-87 -33.5q-52 0 -85.5 30.5t-33.5 80.5q0 39 28 91l85 159h85l-67 -125q48 -2 78.5 -34.5zM178 -168q11 12 11 31t-11 30t-28 11q-18 0 -29 -11t-11 -30t11.5 -31t28.5 -12t28 12z" />
    <glyph glyph-name="uni2087" unicode="&#x2087;" horiz-adv-x="299" 
d="M70 -111v72h67l38 67h-148v77h242v-63l-45 -81h27v-72h-66l-75 -139h-87l75 139h-28z" />
    <glyph glyph-name="uni2088" unicode="&#x2088;" horiz-adv-x="304" 
d="M65 -221.5q-35 34.5 -35 84.5q0 25 11 48t31 40q-21 30 -21 61q0 42 29 70t72 28t72 -28t29 -70q0 -31 -21 -61q20 -17 31 -39.5t11 -48.5q0 -50 -35 -84.5t-87 -34.5t-87 34.5zM172 -11q8 8 8 22t-8 21.5t-20 7.5t-20 -7.5t-8 -21.5t8 -22t20 -8t20 8zM181.5 -168
q11.5 12 11.5 32t-11.5 32t-29.5 12t-29.5 -12t-11.5 -32t11.5 -32t29.5 -12t29.5 12z" />
    <glyph glyph-name="uni2089" unicode="&#x2089;" horiz-adv-x="298" 
d="M132 -131q-50 0 -82 33.5t-32 85.5t31.5 85t81.5 33q32 0 50 -14v11l81 7v-360h-81v132q-21 -13 -49 -13zM169.5 -43q11.5 12 11.5 31t-11.5 31t-29.5 12t-29.5 -12t-11.5 -31t11.5 -31t29.5 -12t29.5 12z" />
    <glyph glyph-name="zero.dnom" horiz-adv-x="356" 
d="M77 39q-41 45 -41 138t41 138t101 45t101 -45t41 -138t-41 -138t-101 -45t-101 45zM222.5 96.5q16.5 25.5 16.5 80.5t-16.5 80.5t-44.5 25.5t-44.5 -25.5t-16.5 -80.5t16.5 -80.5t44.5 -25.5t44.5 25.5z" />
    <glyph glyph-name="one.dnom" horiz-adv-x="155" 
d="M119 362v-362h-83v355z" />
    <glyph glyph-name="two.dnom" horiz-adv-x="313" 
d="M66.5 152q26.5 29 76.5 45q31 9 45.5 19t14.5 30q0 19 -10.5 28.5t-30.5 9.5t-34.5 -13.5t-21.5 -38.5l-58 53q14 35 45.5 55t70.5 20q55 0 87 -30.5t32 -82.5q0 -43 -23 -71t-71 -45q-34 -11 -51 -21.5t-17 -33.5h161v-76h-242v75q0 48 26.5 77z" />
    <glyph glyph-name="three.dnom" horiz-adv-x="308" 
d="M65.5 31.5q-35.5 37.5 -35.5 91.5h77q1 -24 13.5 -39t34.5 -15q21 0 31.5 12t10.5 33t-12 32t-34 11h-26v75h26q13 0 20 8t7 21q0 11 -7 18t-18 7q-28 0 -41 -37l-55 48q12 29 38.5 46t58.5 17q45 0 72.5 -25.5t27.5 -67.5q0 -39 -22 -64q44 -34 44 -90q0 -52 -34 -85.5
t-87 -33.5q-54 0 -89.5 37.5z" />
    <glyph glyph-name="four.dnom" horiz-adv-x="330" 
d="M36 119v236l80 8v-168h56v120h81v-120h45v-76h-45v-119h-81v119h-136z" />
    <glyph glyph-name="five.dnom" horiz-adv-x="304" 
d="M68.5 27.5q-34.5 33.5 -34.5 83.5h80q1 -19 12.5 -31t28.5 -12q18 0 28.5 13t10.5 35q0 21 -9.5 33t-27.5 12q-20 0 -30 -18h-71v212h198v-75h-121v-56q14 7 33 7q48 0 78 -31.5t30 -83.5t-34 -87t-85 -35q-52 0 -86.5 33.5z" />
    <glyph glyph-name="six.dnom" horiz-adv-x="300" 
d="M239.5 195.5q30.5 -32.5 30.5 -82.5q0 -52 -34 -85.5t-87 -33.5q-52 0 -85.5 30.5t-33.5 80.5q0 39 28 91l85 159h85l-67 -125q48 -2 78.5 -34.5zM178 82q11 12 11 31t-11 30t-28 11q-18 0 -29 -11t-11 -30t11.5 -31t28.5 -12t28 12z" />
    <glyph glyph-name="seven.dnom" horiz-adv-x="299" 
d="M70 139v72h67l38 67h-148v77h242v-63l-45 -81h27v-72h-66l-75 -139h-87l75 139h-28z" />
    <glyph glyph-name="eight.dnom" horiz-adv-x="304" 
d="M65 28.5q-35 34.5 -35 84.5q0 25 11 48t31 40q-21 30 -21 61q0 42 29 70t72 28t72 -28t29 -70q0 -31 -21 -61q20 -17 31 -39.5t11 -48.5q0 -50 -35 -84.5t-87 -34.5t-87 34.5zM172 239q8 8 8 22t-8 21.5t-20 7.5t-20 -7.5t-8 -21.5t8 -22t20 -8t20 8zM181.5 82
q11.5 12 11.5 32t-11.5 32t-29.5 12t-29.5 -12t-11.5 -32t11.5 -32t29.5 -12t29.5 12z" />
    <glyph glyph-name="nine.dnom" horiz-adv-x="298" 
d="M132 119q-50 0 -82 33.5t-32 85.5t31.5 85t81.5 33q32 0 50 -14v11l81 7v-360h-81v132q-21 -13 -49 -13zM169.5 207q11.5 12 11.5 31t-11.5 31t-29.5 12t-29.5 -12t-11.5 -31t11.5 -31t29.5 -12t29.5 12z" />
    <glyph glyph-name="zero.numr" horiz-adv-x="356" 
d="M77 395q-41 45 -41 138t41 138t101 45t101 -45t41 -138t-41 -138t-101 -45t-101 45zM222.5 452.5q16.5 25.5 16.5 80.5t-16.5 80.5t-44.5 25.5t-44.5 -25.5t-16.5 -80.5t16.5 -80.5t44.5 -25.5t44.5 25.5z" />
    <glyph glyph-name="one.numr" horiz-adv-x="155" 
d="M119 718v-362h-83v355z" />
    <glyph glyph-name="two.numr" horiz-adv-x="313" 
d="M66.5 508q26.5 29 76.5 45q31 9 45.5 19t14.5 30q0 19 -10.5 28.5t-30.5 9.5t-34.5 -13.5t-21.5 -38.5l-58 53q14 35 45.5 55t70.5 20q55 0 87 -30.5t32 -82.5q0 -43 -23 -71t-71 -45q-34 -11 -51 -21.5t-17 -33.5h161v-76h-242v75q0 48 26.5 77z" />
    <glyph glyph-name="three.numr" horiz-adv-x="308" 
d="M65.5 387.5q-35.5 37.5 -35.5 91.5h77q1 -24 13.5 -39t34.5 -15q21 0 31.5 12t10.5 33t-12 32t-34 11h-26v75h26q13 0 20 8t7 21q0 11 -7 18t-18 7q-28 0 -41 -37l-55 48q12 29 38.5 46t58.5 17q45 0 72.5 -25.5t27.5 -67.5q0 -39 -22 -64q44 -34 44 -90q0 -52 -34 -85.5
t-87 -33.5q-54 0 -89.5 37.5z" />
    <glyph glyph-name="four.numr" horiz-adv-x="330" 
d="M36 475v236l80 8v-168h56v120h81v-120h45v-76h-45v-119h-81v119h-136z" />
    <glyph glyph-name="five.numr" horiz-adv-x="304" 
d="M68.5 383.5q-34.5 33.5 -34.5 83.5h80q1 -19 12.5 -31t28.5 -12q18 0 28.5 13t10.5 35q0 21 -9.5 33t-27.5 12q-20 0 -30 -18h-71v212h198v-75h-121v-56q14 7 33 7q48 0 78 -31.5t30 -83.5t-34 -87t-85 -35q-52 0 -86.5 33.5z" />
    <glyph glyph-name="six.numr" horiz-adv-x="300" 
d="M239.5 551.5q30.5 -32.5 30.5 -82.5q0 -52 -34 -85.5t-87 -33.5q-52 0 -85.5 30.5t-33.5 80.5q0 39 28 91l85 159h85l-67 -125q48 -2 78.5 -34.5zM178 438q11 12 11 31t-11 30t-28 11q-18 0 -29 -11t-11 -30t11.5 -31t28.5 -12t28 12z" />
    <glyph glyph-name="seven.numr" horiz-adv-x="299" 
d="M70 495v72h67l38 67h-148v77h242v-63l-45 -81h27v-72h-66l-75 -139h-87l75 139h-28z" />
    <glyph glyph-name="eight.numr" horiz-adv-x="304" 
d="M65 384.5q-35 34.5 -35 84.5q0 25 11 48t31 40q-21 30 -21 61q0 42 29 70t72 28t72 -28t29 -70q0 -31 -21 -61q20 -17 31 -39.5t11 -48.5q0 -50 -35 -84.5t-87 -34.5t-87 34.5zM172 595q8 8 8 22t-8 21.5t-20 7.5t-20 -7.5t-8 -21.5t8 -22t20 -8t20 8zM181.5 438
q11.5 12 11.5 32t-11.5 32t-29.5 12t-29.5 -12t-11.5 -32t11.5 -32t29.5 -12t29.5 12z" />
    <glyph glyph-name="nine.numr" horiz-adv-x="298" 
d="M132 479q-50 0 -82 33.5t-32 85.5t31.5 85t81.5 33q32 0 50 -14v11l81 7v-360h-81v132q-21 -13 -49 -13zM169.5 567q11.5 12 11.5 31t-11.5 31t-29.5 12t-29.5 -12t-11.5 -31t11.5 -31t29.5 -12t29.5 12z" />
    <glyph glyph-name="uni2070" unicode="&#x2070;" horiz-adv-x="356" 
d="M77 495q-41 45 -41 138t41 138t101 45t101 -45t41 -138t-41 -138t-101 -45t-101 45zM222.5 552.5q16.5 25.5 16.5 80.5t-16.5 80.5t-44.5 25.5t-44.5 -25.5t-16.5 -80.5t16.5 -80.5t44.5 -25.5t44.5 25.5z" />
    <glyph glyph-name="uni00B9" unicode="&#xb9;" horiz-adv-x="155" 
d="M119 818v-362h-83v355z" />
    <glyph glyph-name="uni00B2" unicode="&#xb2;" horiz-adv-x="313" 
d="M66.5 608q26.5 29 76.5 45q31 9 45.5 19t14.5 30q0 19 -10.5 28.5t-30.5 9.5t-34.5 -13.5t-21.5 -38.5l-58 53q14 35 45.5 55t70.5 20q55 0 87 -30.5t32 -82.5q0 -43 -23 -71t-71 -45q-34 -11 -51 -21.5t-17 -33.5h161v-76h-242v75q0 48 26.5 77z" />
    <glyph glyph-name="uni00B3" unicode="&#xb3;" horiz-adv-x="308" 
d="M65.5 487.5q-35.5 37.5 -35.5 91.5h77q1 -24 13.5 -39t34.5 -15q21 0 31.5 12t10.5 33t-12 32t-34 11h-26v75h26q13 0 20 8t7 21q0 11 -7 18t-18 7q-28 0 -41 -37l-55 48q12 29 38.5 46t58.5 17q45 0 72.5 -25.5t27.5 -67.5q0 -39 -22 -64q44 -34 44 -90q0 -52 -34 -85.5
t-87 -33.5q-54 0 -89.5 37.5z" />
    <glyph glyph-name="uni2074" unicode="&#x2074;" horiz-adv-x="330" 
d="M36 575v236l80 8v-168h56v120h81v-120h45v-76h-45v-119h-81v119h-136z" />
    <glyph glyph-name="uni2075" unicode="&#x2075;" horiz-adv-x="304" 
d="M68.5 483.5q-34.5 33.5 -34.5 83.5h80q1 -19 12.5 -31t28.5 -12q18 0 28.5 13t10.5 35q0 21 -9.5 33t-27.5 12q-20 0 -30 -18h-71v212h198v-75h-121v-56q14 7 33 7q48 0 78 -31.5t30 -83.5t-34 -87t-85 -35q-52 0 -86.5 33.5z" />
    <glyph glyph-name="uni2076" unicode="&#x2076;" horiz-adv-x="300" 
d="M239.5 651.5q30.5 -32.5 30.5 -82.5q0 -52 -34 -85.5t-87 -33.5q-52 0 -85.5 30.5t-33.5 80.5q0 39 28 91l85 159h85l-67 -125q48 -2 78.5 -34.5zM178 538q11 12 11 31t-11 30t-28 11q-18 0 -29 -11t-11 -30t11.5 -31t28.5 -12t28 12z" />
    <glyph glyph-name="uni2077" unicode="&#x2077;" horiz-adv-x="299" 
d="M70 595v72h67l38 67h-148v77h242v-63l-45 -81h27v-72h-66l-75 -139h-87l75 139h-28z" />
    <glyph glyph-name="uni2078" unicode="&#x2078;" horiz-adv-x="304" 
d="M65 484.5q-35 34.5 -35 84.5q0 25 11 48t31 40q-21 30 -21 61q0 42 29 70t72 28t72 -28t29 -70q0 -31 -21 -61q20 -17 31 -39.5t11 -48.5q0 -50 -35 -84.5t-87 -34.5t-87 34.5zM172 695q8 8 8 22t-8 21.5t-20 7.5t-20 -7.5t-8 -21.5t8 -22t20 -8t20 8zM181.5 538
q11.5 12 11.5 32t-11.5 32t-29.5 12t-29.5 -12t-11.5 -32t11.5 -32t29.5 -12t29.5 12z" />
    <glyph glyph-name="uni2079" unicode="&#x2079;" horiz-adv-x="298" 
d="M132 575q-50 0 -82 33.5t-32 85.5t31.5 85t81.5 33q32 0 50 -14v11l81 7v-360h-81v132q-21 -13 -49 -13zM169.5 663q11.5 12 11.5 31t-11.5 31t-29.5 12t-29.5 -12t-11.5 -31t11.5 -31t29.5 -12t29.5 12z" />
    <glyph glyph-name="fraction" unicode="&#x2044;" horiz-adv-x="319" 
d="M460 710l59 -59l-660 -661l-59 60z" />
    <glyph glyph-name="onehalf" unicode="&#xbd;" horiz-adv-x="858" 
d="M213 718v-362h-83v355zM700 710l59 -59l-660 -661l-59 60zM618.5 152q26.5 29 76.5 45q31 9 45.5 19t14.5 30q0 19 -10.5 28.5t-30.5 9.5t-34.5 -13.5t-21.5 -38.5l-58 53q14 35 45.5 55t70.5 20q55 0 87 -30.5t32 -82.5q0 -43 -23 -71t-71 -45q-34 -11 -51 -21.5
t-17 -33.5h161v-76h-242v75q0 48 26.5 77z" />
    <glyph glyph-name="uni2153" unicode="&#x2153;" horiz-adv-x="860" 
d="M209 718v-362h-83v355zM696 710l59 -59l-660 -661l-59 60zM613.5 31.5q-35.5 37.5 -35.5 91.5h77q1 -24 13.5 -39t34.5 -15q21 0 31.5 12t10.5 33t-12 32t-34 11h-26v75h26q13 0 20 8t7 21q0 11 -7 18t-18 7q-28 0 -41 -37l-55 48q12 29 38.5 46t58.5 17q45 0 72.5 -25.5
t27.5 -67.5q0 -39 -22 -64q44 -34 44 -90q0 -52 -34 -85.5t-87 -33.5q-54 0 -89.5 37.5z" />
    <glyph glyph-name="uni2154" unicode="&#x2154;" horiz-adv-x="940" 
d="M66.5 508q26.5 29 76.5 45q31 9 45.5 19t14.5 30q0 19 -10.5 28.5t-30.5 9.5t-34.5 -13.5t-21.5 -38.5l-58 53q14 35 45.5 55t70.5 20q55 0 87 -30.5t32 -82.5q0 -43 -23 -71t-71 -45q-34 -11 -51 -21.5t-17 -33.5h161v-76h-242v75q0 48 26.5 77zM773 710l59 -59
l-660 -661l-59 60zM697.5 31.5q-35.5 37.5 -35.5 91.5h77q1 -24 13.5 -39t34.5 -15q21 0 31.5 12t10.5 33t-12 32t-34 11h-26v75h26q13 0 20 8t7 21q0 11 -7 18t-18 7q-28 0 -41 -37l-55 48q12 29 38.5 46t58.5 17q45 0 72.5 -25.5t27.5 -67.5q0 -39 -22 -64q44 -34 44 -90
q0 -52 -34 -85.5t-87 -33.5q-54 0 -89.5 37.5z" />
    <glyph glyph-name="onequarter" unicode="&#xbc;" horiz-adv-x="871" 
d="M209 718v-362h-83v355zM696 710l59 -59l-660 -661l-59 60zM584 119v236l80 8v-168h56v120h81v-120h45v-76h-45v-119h-81v119h-136z" />
    <glyph glyph-name="threequarters" unicode="&#xbe;" horiz-adv-x="957" 
d="M65.5 387.5q-35.5 37.5 -35.5 91.5h77q1 -24 13.5 -39t34.5 -15q21 0 31.5 12t10.5 33t-12 32t-34 11h-26v75h26q13 0 20 8t7 21q0 11 -7 18t-18 7q-28 0 -41 -37l-55 48q12 29 38.5 46t58.5 17q45 0 72.5 -25.5t27.5 -67.5q0 -39 -22 -64q44 -34 44 -90q0 -52 -34 -85.5
t-87 -33.5q-54 0 -89.5 37.5zM768 710l59 -59l-660 -661l-59 60zM663 119v236l80 8v-168h56v120h81v-120h45v-76h-45v-119h-81v119h-136z" />
    <glyph glyph-name="oneeighth" unicode="&#x215b;" horiz-adv-x="852" 
d="M209 718v-362h-83v355zM696 710l59 -59l-660 -661l-59 60zM613 28.5q-35 34.5 -35 84.5q0 25 11 48t31 40q-21 30 -21 61q0 42 29 70t72 28t72 -28t29 -70q0 -31 -21 -61q20 -17 31 -39.5t11 -48.5q0 -50 -35 -84.5t-87 -34.5t-87 34.5zM720 239q8 8 8 22t-8 21.5
t-20 7.5t-20 -7.5t-8 -21.5t8 -22t20 -8t20 8zM729.5 82q11.5 12 11.5 32t-11.5 32t-29.5 12t-29.5 -12t-11.5 -32t11.5 -32t29.5 -12t29.5 12z" />
    <glyph glyph-name="threeeighths" unicode="&#x215c;" horiz-adv-x="931" 
d="M65.5 387.5q-35.5 37.5 -35.5 91.5h77q1 -24 13.5 -39t34.5 -15q21 0 31.5 12t10.5 33t-12 32t-34 11h-26v75h26q13 0 20 8t7 21q0 11 -7 18t-18 7q-28 0 -41 -37l-55 48q12 29 38.5 46t58.5 17q45 0 72.5 -25.5t27.5 -67.5q0 -39 -22 -64q44 -34 44 -90q0 -52 -34 -85.5
t-87 -33.5q-54 0 -89.5 37.5zM768 710l59 -59l-660 -661l-59 60zM692 28.5q-35 34.5 -35 84.5q0 25 11 48t31 40q-21 30 -21 61q0 42 29 70t72 28t72 -28t29 -70q0 -31 -21 -61q20 -17 31 -39.5t11 -48.5q0 -50 -35 -84.5t-87 -34.5t-87 34.5zM799 239q8 8 8 22t-8 21.5
t-20 7.5t-20 -7.5t-8 -21.5t8 -22t20 -8t20 8zM808.5 82q11.5 12 11.5 32t-11.5 32t-29.5 12t-29.5 -12t-11.5 -32t11.5 -32t29.5 -12t29.5 12z" />
    <glyph glyph-name="fiveeighths" unicode="&#x215d;" horiz-adv-x="927" 
d="M68.5 383.5q-34.5 33.5 -34.5 83.5h80q1 -19 12.5 -31t28.5 -12q18 0 28.5 13t10.5 35q0 21 -9.5 33t-27.5 12q-20 0 -30 -18h-71v212h198v-75h-121v-56q14 7 33 7q48 0 78 -31.5t30 -83.5t-34 -87t-85 -35q-52 0 -86.5 33.5zM764 710l59 -59l-660 -661l-59 60zM688 28.5
q-35 34.5 -35 84.5q0 25 11 48t31 40q-21 30 -21 61q0 42 29 70t72 28t72 -28t29 -70q0 -31 -21 -61q20 -17 31 -39.5t11 -48.5q0 -50 -35 -84.5t-87 -34.5t-87 34.5zM795 239q8 8 8 22t-8 21.5t-20 7.5t-20 -7.5t-8 -21.5t8 -22t20 -8t20 8zM804.5 82q11.5 12 11.5 32
t-11.5 32t-29.5 12t-29.5 -12t-11.5 -32t11.5 -32t29.5 -12t29.5 12z" />
    <glyph glyph-name="seveneighths" unicode="&#x215e;" horiz-adv-x="842" 
d="M70 495v72h67l38 67h-148v77h242v-63l-45 -81h27v-72h-66l-75 -139h-87l75 139h-28zM679 710l59 -59l-660 -661l-59 60zM603 28.5q-35 34.5 -35 84.5q0 25 11 48t31 40q-21 30 -21 61q0 42 29 70t72 28t72 -28t29 -70q0 -31 -21 -61q20 -17 31 -39.5t11 -48.5
q0 -50 -35 -84.5t-87 -34.5t-87 34.5zM710 239q8 8 8 22t-8 21.5t-20 7.5t-20 -7.5t-8 -21.5t8 -22t20 -8t20 8zM719.5 82q11.5 12 11.5 32t-11.5 32t-29.5 12t-29.5 -12t-11.5 -32t11.5 -32t29.5 -12t29.5 12z" />
    <glyph glyph-name="uni2081.ss14" horiz-adv-x="198" 
d="M0 -23v77h78v51h84v-355h-83v227h-79z" />
    <glyph glyph-name="uni2087.ss14" horiz-adv-x="299" 
d="M25 28v77h244v-63l-159 -292h-87l152 278h-150z" />
    <glyph glyph-name="uni2089.ss14" horiz-adv-x="301" 
d="M61 -90.5q-31 32.5 -31 81.5q0 52 34.5 86t87.5 34q52 0 85.5 -33t33.5 -85q0 -32 -22 -73l-92 -170h-84l67 125q-48 2 -79 34.5zM180 -38.5q11 11.5 11 30.5t-11.5 31t-28.5 12t-28 -12t-11 -31t10.5 -30.5t28.5 -11.5t29 11.5z" />
    <glyph glyph-name="one.dnom.ss14" horiz-adv-x="198" 
d="M0 228v76h78v51h84v-355h-83v228h-79z" />
    <glyph glyph-name="seven.dnom.ss14" horiz-adv-x="299" 
d="M25 278v77h244v-63l-159 -292h-87l152 278h-150z" />
    <glyph glyph-name="nine.dnom.ss14" horiz-adv-x="301" 
d="M61 159.5q-31 32.5 -31 82.5q0 52 34.5 85.5t87.5 33.5q52 0 85.5 -33t33.5 -84q0 -34 -22 -73l-92 -171h-84l67 125q-48 2 -79 34.5zM180 212q11 11 11 30t-11.5 31t-28.5 12t-28 -12t-11 -31t10.5 -30t28.5 -11t29 11z" />
    <glyph glyph-name="one.numr.ss14" horiz-adv-x="198" 
d="M0 584v76h78v51h84v-355h-83v228h-79z" />
    <glyph glyph-name="seven.numr.ss14" horiz-adv-x="299" 
d="M25 634v77h244v-63l-159 -292h-87l152 278h-150z" />
    <glyph glyph-name="nine.numr.ss14" horiz-adv-x="300" 
d="M237 686.5q33 -30.5 33 -80.5q0 -41 -27 -91l-86 -159h-84l67 125q-48 2 -79 34.5t-31 82.5q0 52 34.5 85.5t87.5 33.5q52 0 85 -30.5zM122.5 629q-11.5 -12 -11.5 -31t11 -30t29 -11t28.5 11t10.5 30t-11 31t-28 12t-28.5 -12z" />
    <glyph glyph-name="uni00B9.ss14" horiz-adv-x="198" 
d="M0 684v76h78v51h84v-355h-83v228h-79z" />
    <glyph glyph-name="uni2077.ss14" horiz-adv-x="299" 
d="M25 734v77h244v-63l-159 -292h-87l152 278h-150z" />
    <glyph glyph-name="uni2079.ss14" horiz-adv-x="301" 
d="M61 615.5q-31 32.5 -31 82.5q0 52 34.5 85.5t87.5 33.5q52 0 85.5 -33t33.5 -84q0 -34 -22 -73l-92 -171h-84l67 125q-48 2 -79 34.5zM180 668q11 11 11 30t-11.5 31t-28.5 12t-28 -12t-11 -31t10.5 -30t28.5 -11t29 11z" />
    <glyph glyph-name="onehalf.ss14" horiz-adv-x="830" 
d="M0 584v76h78v51h84v-355h-83v228h-79zM658 710l59 -59l-660 -661l-59 60zM583.5 152q26.5 29 76.5 45q31 9 45.5 19t14.5 30q0 19 -10.5 28.5t-30.5 9.5t-34.5 -13.5t-21.5 -38.5l-58 53q14 35 45.5 55t70.5 20q55 0 87 -30.5t32 -82.5q0 -43 -23 -71t-71 -45
q-34 -11 -51 -21.5t-17 -33.5h161v-76h-242v75q0 48 26.5 77z" />
    <glyph glyph-name="uni2153.ss14" horiz-adv-x="825" 
d="M0 584v76h78v51h84v-355h-83v228h-79zM658 710l59 -59l-660 -661l-59 60zM582.5 31.5q-35.5 37.5 -35.5 91.5h77q1 -24 13.5 -39t34.5 -15q21 0 31.5 12t10.5 33t-12 32t-34 11h-26v75h26q13 0 20 8t7 21q0 11 -7 18t-18 7q-28 0 -41 -37l-55 48q12 29 38.5 46t58.5 17
q45 0 72.5 -25.5t27.5 -67.5q0 -39 -22 -64q44 -34 44 -90q0 -52 -34 -85.5t-87 -33.5q-54 0 -89.5 37.5z" />
    <glyph glyph-name="onequarter.ss14" horiz-adv-x="847" 
d="M0 584v76h78v51h84v-355h-83v228h-79zM658 710l59 -59l-660 -661l-59 60zM553 119v236l80 8v-168h56v120h81v-120h45v-76h-45v-119h-81v119h-136z" />
    <glyph glyph-name="oneeighth.ss14" horiz-adv-x="821" 
d="M0 584v76h78v51h84v-355h-83v228h-79zM658 710l59 -59l-660 -661l-59 60zM582 28.5q-35 34.5 -35 84.5q0 25 11 48t31 40q-21 30 -21 61q0 42 29 70t72 28t72 -28t29 -70q0 -31 -21 -61q20 -17 31 -39.5t11 -48.5q0 -50 -35 -84.5t-87 -34.5t-87 34.5zM689 239q8 8 8 22
t-8 21.5t-20 7.5t-20 -7.5t-8 -21.5t8 -22t20 -8t20 8zM698.5 82q11.5 12 11.5 32t-11.5 32t-29.5 12t-29.5 -12t-11.5 -32t11.5 -32t29.5 -12t29.5 12z" />
    <glyph glyph-name="seveneighths.ss14" horiz-adv-x="842" 
d="M25 634v77h244v-63l-159 -292h-87l152 278h-150zM679 710l59 -59l-660 -661l-59 60zM603 28.5q-35 34.5 -35 84.5q0 25 11 48t31 40q-21 30 -21 61q0 42 29 70t72 28t72 -28t29 -70q0 -31 -21 -61q20 -17 31 -39.5t11 -48.5q0 -50 -35 -84.5t-87 -34.5t-87 34.5zM710 239
q8 8 8 22t-8 21.5t-20 7.5t-20 -7.5t-8 -21.5t8 -22t20 -8t20 8zM719.5 82q11.5 12 11.5 32t-11.5 32t-29.5 12t-29.5 -12t-11.5 -32t11.5 -32t29.5 -12t29.5 12z" />
    <glyph glyph-name="uni2080.zero" horiz-adv-x="356" 
d="M279 65q41 -45 41 -138t-41 -138t-101 -45t-101 45t-41 138t41 138t101 45t101 -45zM133.5 7.5q-16.5 -25.5 -16.5 -80.5v-6l97 97q-14 15 -36 15q-28 0 -44.5 -25.5zM222.5 -153.5q16.5 25.5 16.5 80.5v7l-98 -98q15 -15 37 -15q28 0 44.5 25.5z" />
    <glyph glyph-name="zero.dnom.zero" horiz-adv-x="356" 
d="M279 315q41 -45 41 -138q0 -92 -41.5 -137.5t-100.5 -45.5t-100.5 45.5t-41.5 137.5q0 93 41 138t101 45t101 -45zM133.5 257.5q-16.5 -25.5 -16.5 -80.5v-6l97 97q-14 15 -36 15q-28 0 -44.5 -25.5zM222.5 96.5q16.5 25.5 16.5 80.5v7l-98 -98q15 -15 37 -15
q28 0 44.5 25.5z" />
    <glyph glyph-name="zero.numr.zero" horiz-adv-x="356" 
d="M279 671q41 -45 41 -138q0 -92 -41.5 -137.5t-100.5 -45.5t-100.5 45.5t-41.5 137.5q0 93 41 138t101 45t101 -45zM133.5 613.5q-16.5 -25.5 -16.5 -80.5v-6l97 97q-14 15 -36 15q-28 0 -44.5 -25.5zM222.5 452.5q16.5 25.5 16.5 80.5v7l-98 -98q15 -15 37 -15
q28 0 44.5 25.5z" />
    <glyph glyph-name="uni2070.zero" horiz-adv-x="356" 
d="M279 771q41 -45 41 -138q0 -92 -41.5 -137.5t-100.5 -45.5t-100.5 45.5t-41.5 137.5q0 93 41 138t101 45t101 -45zM133.5 713.5q-16.5 -25.5 -16.5 -80.5v-6l97 97q-14 15 -36 15q-28 0 -44.5 -25.5zM222.5 552.5q16.5 25.5 16.5 80.5v7l-98 -98q15 -15 37 -15
q28 0 44.5 25.5z" />
    <glyph glyph-name="period" unicode="." horiz-adv-x="249" 
d="M65.5 19q-24.5 25 -24.5 59q0 35 24.5 60t58.5 25q35 0 59.5 -25t24.5 -60q0 -34 -24.5 -59t-59.5 -25q-34 0 -58.5 25z" />
    <glyph glyph-name="comma" unicode="," horiz-adv-x="295" 
d="M123 136h139l-164 -284l-107 61z" />
    <glyph glyph-name="colon" unicode=":" horiz-adv-x="249" 
d="M65.5 281.5q-24.5 24.5 -24.5 59.5t24.5 59.5t58.5 24.5q35 0 59.5 -24.5t24.5 -59.5t-24.5 -59.5t-59.5 -24.5q-34 0 -58.5 24.5zM65.5 19q-24.5 25 -24.5 59q0 35 24.5 60t58.5 25q35 0 59.5 -25t24.5 -60q0 -34 -24.5 -59t-59.5 -25q-34 0 -58.5 25z" />
    <glyph glyph-name="semicolon" unicode=";" horiz-adv-x="310" 
d="M126.5 281.5q-24.5 24.5 -24.5 59.5t24.5 59.5t58.5 24.5q35 0 59.5 -24.5t24.5 -59.5t-24.5 -59.5t-59.5 -24.5q-34 0 -58.5 24.5zM262 136l-164 -284l-107 61l132 223h139z" />
    <glyph glyph-name="ellipsis" unicode="&#x2026;" horiz-adv-x="690" 
d="M65.5 18.5q-24.5 24.5 -24.5 59.5q0 36 24.5 60.5t58.5 24.5q35 0 59.5 -24.5t24.5 -60.5q0 -35 -24.5 -59.5t-59.5 -24.5q-34 0 -58.5 24.5zM286 18.5q-24 24.5 -24 59.5q0 36 24 60.5t59 24.5t59 -24.5t24 -60.5q0 -35 -24 -59.5t-59 -24.5t-59 24.5zM506.5 18.5
q-24.5 24.5 -24.5 59.5q0 36 24.5 60.5t58.5 24.5q35 0 59.5 -24.5t24.5 -60.5q0 -35 -24.5 -59.5t-59.5 -24.5q-34 0 -58.5 24.5z" />
    <glyph glyph-name="exclam" unicode="!" horiz-adv-x="249" 
d="M189 712v-486h-129v473zM65.5 19q-24.5 25 -24.5 59q0 35 24.5 60t58.5 25q35 0 59.5 -25t24.5 -60q0 -34 -24.5 -59t-59.5 -25q-34 0 -58.5 25z" />
    <glyph glyph-name="exclamdown" unicode="&#xa1;" horiz-adv-x="249" 
d="M183.5 481.5q24.5 -24.5 24.5 -59.5t-24.5 -59.5t-58.5 -24.5q-35 0 -59.5 24.5t-24.5 59.5t24.5 59.5t59.5 24.5q34 0 58.5 -24.5zM60 275h129v-474l-129 -13v487z" />
    <glyph glyph-name="question" unicode="?" horiz-adv-x="519" 
d="M200 327.5q21 40.5 66 74.5q43 31 61 51t18 52q0 34 -24.5 56.5t-67.5 22.5q-44 0 -73 -24.5t-44 -67.5l-110 62q29 71 89.5 111.5t139.5 40.5q68 0 118 -27t76 -72.5t26 -100.5q0 -61 -25.5 -97t-71.5 -68q-40 -27 -56 -53.5t-16 -67.5h-127q0 67 21 107.5zM184.5 19
q-24.5 25 -24.5 59q0 35 24.5 60t58.5 25q35 0 59.5 -25t24.5 -60q0 -34 -24.5 -59t-59.5 -25q-34 0 -58.5 25z" />
    <glyph glyph-name="questiondown" unicode="&#xbf;" horiz-adv-x="519" 
d="M335 481.5q24 -24.5 24 -59.5t-24 -59.5t-59 -24.5t-59 24.5t-24 59.5t24 59.5t59 24.5t59 -24.5zM319.5 173q-21.5 -40 -65.5 -74q-32 -24 -46 -35.5t-24 -29t-10 -39.5q0 -34 25 -56.5t68 -22.5t72.5 24.5t44.5 67.5l109 -62q-29 -71 -89.5 -111.5t-139.5 -40.5
q-68 0 -118 27t-76 72.5t-26 100.5q0 62 25.5 98t71.5 67q40 27 56 53.5t16 68.5h128q0 -68 -21.5 -108z" />
    <glyph glyph-name="periodcentered" unicode="&#xb7;" horiz-adv-x="249" 
d="M65.5 291q-24.5 25 -24.5 59q0 35 24.5 60t58.5 25q35 0 59.5 -25t24.5 -60q0 -34 -24.5 -59t-59.5 -25q-34 0 -58.5 25z" />
    <glyph glyph-name="bullet" unicode="&#x2022;" horiz-adv-x="310" 
d="M74 267.5q-33 33.5 -33 82.5t33 82.5t81 33.5q47 0 80.5 -33.5t33.5 -82.5t-33.5 -82.5t-80.5 -33.5q-48 0 -81 33.5z" />
    <glyph glyph-name="asterisk" unicode="*" horiz-adv-x="404" 
d="M83 427l-39 70l78 44l-78 45l39 70l79 -46v90h79v-90l80 46l39 -70l-78 -45l78 -44l-39 -70l-80 45v-90h-79v90z" />
    <glyph glyph-name="uni2049" unicode="&#x2049;" horiz-adv-x="751" 
d="M189 712v-486h-129v473zM65.5 19q-24.5 25 -24.5 59q0 35 24.5 60t58.5 25q35 0 59.5 -25t24.5 -60q0 -34 -24.5 -59t-59.5 -25q-34 0 -58.5 25zM432 327.5q21 40.5 66 74.5q43 31 61 51t18 52q0 34 -24.5 56.5t-67.5 22.5q-44 0 -73 -24.5t-44 -67.5l-110 62
q29 71 89.5 111.5t139.5 40.5q68 0 118 -27t76 -72.5t26 -100.5q0 -61 -25.5 -97t-71.5 -68q-40 -27 -56 -53.5t-16 -67.5h-127q0 67 21 107.5zM416.5 19q-24.5 25 -24.5 59q0 35 24.5 60t58.5 25q35 0 59.5 -25t24.5 -60q0 -34 -24.5 -59t-59.5 -25q-34 0 -58.5 25z" />
    <glyph glyph-name="uni203D" unicode="&#x203d;" horiz-adv-x="516" 
d="M367 679q51 -27 78 -72.5t27 -99.5q0 -62 -25.5 -98t-73.5 -68q-36 -25 -49.5 -52.5t-14.5 -68.5h-122v312h114v-112q23 19 35 38t12 44q0 36 -27 61t-73 25q-45 0 -76.5 -25t-47.5 -67l-98 67q29 65 88 104t134 39q68 0 119 -27zM305.5 138q24.5 -25 24.5 -60
t-24.5 -59.5t-58.5 -24.5t-58.5 24.5t-24.5 59.5t24.5 60t58.5 25t58.5 -25z" />
    <glyph glyph-name="numbersign" unicode="#" horiz-adv-x="815" 
d="M50 189v114h185v94h-185v115h185v187l121 14v-201h103v187l121 14v-201h185v-115h-185v-94h185v-114h-185v-189h-121v189h-103v-189h-121v189h-185zM459 397h-103v-94h103v94z" />
    <glyph glyph-name="uni2048" unicode="&#x2048;" horiz-adv-x="724" 
d="M200 327.5q21 40.5 66 74.5q43 31 61 51t18 52q0 34 -24.5 56.5t-67.5 22.5q-44 0 -73 -24.5t-44 -67.5l-110 62q29 71 89.5 111.5t139.5 40.5q68 0 118 -27t76 -72.5t26 -100.5q0 -61 -25.5 -97t-71.5 -68q-40 -27 -56 -53.5t-16 -67.5h-127q0 67 21 107.5zM184.5 19
q-24.5 25 -24.5 59q0 35 24.5 60t58.5 25q35 0 59.5 -25t24.5 -60q0 -34 -24.5 -59t-59.5 -25q-34 0 -58.5 25zM664 712v-486h-129v473zM540.5 19q-24.5 25 -24.5 59q0 35 24.5 60t58.5 25q35 0 59.5 -25t24.5 -60q0 -34 -24.5 -59t-59.5 -25q-34 0 -58.5 25z" />
    <glyph glyph-name="slash" unicode="/" horiz-adv-x="496" 
d="M375 804l111 -47l-365 -861l-111 47z" />
    <glyph glyph-name="backslash" unicode="\" horiz-adv-x="496" 
d="M121 804l365 -861l-111 -47l-365 861z" />
    <glyph glyph-name="exclamdown.case" horiz-adv-x="249" 
d="M65.5 562.5q-24.5 24.5 -24.5 59.5t24.5 59.5t58.5 24.5q35 0 59.5 -24.5t24.5 -59.5t-24.5 -59.5t-59.5 -24.5q-34 0 -58.5 24.5zM189 475v-475h-129v475h129z" />
    <glyph glyph-name="questiondown.case" horiz-adv-x="516" 
d="M216.5 562.5q-24.5 24.5 -24.5 59.5t24.5 59.5t58.5 24.5q35 0 59.5 -24.5t24.5 -59.5t-24.5 -59.5t-59.5 -24.5q-34 0 -58.5 24.5zM147.5 21q-50.5 27 -77 73t-26.5 101q0 61 25.5 97t71.5 67q40 27 56 53.5t16 68.5h128q0 -69 -21 -110t-66 -72q-44 -27 -62 -48.5
t-18 -54.5q0 -34 25 -56.5t69 -22.5q42 0 72 25t45 66l105 -70q-31 -67 -89.5 -105.5t-134.5 -38.5q-68 0 -118.5 27z" />
    <glyph glyph-name="period.ss01" horiz-adv-x="223" 
d="M182 141v-141h-141v141h141z" />
    <glyph glyph-name="colon.ss01" horiz-adv-x="223" 
d="M182 141v-141h-141v141h141zM182 417v-141h-141v141h141z" />
    <glyph glyph-name="semicolon.ss01" horiz-adv-x="301" 
d="M255 276h-141v141h141v-141zM123 136h137l-164 -283l-105 60z" />
    <glyph glyph-name="ellipsis.ss01" horiz-adv-x="669" 
d="M405 141v-141h-141v141h141zM628 141v-141h-141v141h141zM182 141v-141h-141v141h141z" />
    <glyph glyph-name="exclam.ss01" horiz-adv-x="223" 
d="M176 712v-486h-129v473zM182 141v-141h-141v141h141z" />
    <glyph glyph-name="exclamdown.ss01" horiz-adv-x="223" 
d="M182 500v-140h-141v140h141zM176 275v-457l-129 -13v470h129z" />
    <glyph glyph-name="question.ss01" horiz-adv-x="519" 
d="M200 327.5q21 40.5 66 74.5q43 31 61 51t18 52q0 34 -24.5 56.5t-67.5 22.5q-44 0 -73 -24.5t-44 -67.5l-110 62q29 71 89.5 111.5t139.5 40.5q68 0 118 -27t76 -72.5t26 -100.5q0 -61 -25.5 -97t-71.5 -68q-40 -27 -56 -53.5t-16 -67.5h-127q0 67 21 107.5zM313 0h-141
v141h141v-141z" />
    <glyph glyph-name="questiondown.ss01" horiz-adv-x="519" 
d="M348 500v-140h-141v140h141zM319.5 173q-21.5 -40 -65.5 -74q-32 -24 -46 -35.5t-24 -29t-10 -39.5q0 -34 25 -56.5t68 -22.5t72.5 24.5t44.5 67.5l109 -62q-29 -71 -89.5 -111.5t-139.5 -40.5q-68 0 -118 27t-76 72.5t-26 100.5q0 62 25.5 98t71.5 67q40 27 56 53.5
t16 68.5h128q0 -68 -21.5 -108z" />
    <glyph glyph-name="periodcentered.ss01" horiz-adv-x="223" 
d="M182 421v-141h-141v141h141z" />
    <glyph glyph-name="bullet.ss01" horiz-adv-x="278" 
d="M237 448v-196h-196v196h196z" />
    <glyph glyph-name="exclamdown.case.ss01" horiz-adv-x="223" 
d="M41 700h141v-140h-141v140zM47 475h129v-473l-129 -14v487z" />
    <glyph glyph-name="questiondown.case.ss01" horiz-adv-x="519" 
d="M348 700v-140h-141v140h141zM319.5 373q-21.5 -40 -65.5 -74q-32 -24 -46 -35.5t-24 -28.5t-10 -39q0 -34 25 -56.5t68 -22.5t72.5 24.5t44.5 66.5l109 -61q-29 -71 -89.5 -112t-139.5 -41q-68 0 -117.5 27t-76 73t-26.5 101q0 61 25.5 97t71.5 67q40 27 56 53.5t16 68.5
h128q0 -68 -21.5 -108z" />
    <glyph glyph-name="uni2049.ss01" horiz-adv-x="739" 
d="M176 712v-486h-129v473zM182 141v-141h-141v141h141zM420 327.5q21 40.5 66 74.5q43 31 61 51t18 52q0 34 -24.5 56.5t-67.5 22.5q-44 0 -73 -24.5t-44 -67.5l-110 62q29 71 89.5 111.5t139.5 40.5q68 0 118 -27t76 -72.5t26 -100.5q0 -61 -25.5 -97t-71.5 -68
q-40 -27 -56 -53.5t-16 -67.5h-127q0 67 21 107.5zM533 0h-141v141h141v-141z" />
    </font>
</defs>
</svg>
